<svg xmlns="http://www.w3.org/2000/svg" enable-background="new 0 0 75 75" viewBox="0 0 75 75"><path fill="#34a853" d="M-179.721-305.896c-1.062-1.063-2.914-1.063-3.978 0l-8.114 8.114c-.391.391-1.023.391-1.414 0l-8.114-8.114c-.531-.532-1.237-.824-1.988-.824-.751 0-1.458.293-1.989.824-.529.53-.821 1.236-.821 1.988 0 .752.292 1.459.822 1.99l10.81 10.81c1.064 1.062 2.915 1.062 3.978-.001l10.811-10.81C-178.624-303.016-178.625-304.799-179.721-305.896zM-192.538-338.461c-1.551 0-2.813 1.261-2.813 2.812v23.356c0 1.551 1.262 2.813 2.813 2.813 1.55 0 2.812-1.262 2.812-2.813v-23.356C-189.727-337.2-190.988-338.461-192.538-338.461z" class="color41d88d svgShape"></path><path d="M-192.538-307.481c-2.654,0-4.813-2.159-4.813-4.813v-23.356c0-2.653,2.159-4.812,4.813-4.812c2.653,0,4.812,2.159,4.812,4.812v23.356C-187.727-309.64-189.885-307.481-192.538-307.481z M-192.538-338.461c-1.551,0-2.813,1.261-2.813,2.812v23.356c0,1.551,1.262,2.813,2.813,2.813c1.55,0,2.812-1.262,2.812-2.813v-23.356C-189.727-337.2-190.988-338.461-192.538-338.461z" fill="#000000" class="color000000 svgShape"></path><path fill="#34a853" d="M-174.356-282.163h-36.287c-1.551,0-2.813,1.262-2.813,2.813s1.262,2.812,2.813,2.812h36.287c1.551,0,2.813-1.262,2.813-2.813S-172.806-282.163-174.356-282.163z" class="color41d88d svgShape"></path><path d="M-174.356-274.539h-36.287c-2.654,0-4.813-2.159-4.813-4.812c0-2.654,2.159-4.813,4.813-4.813h36.287c2.654,0,4.813,2.159,4.813,4.812C-169.544-276.697-171.703-274.539-174.356-274.539z M-210.644-282.163c-1.551,0-2.813,1.262-2.813,2.813s1.262,2.812,2.813,2.812h36.287c1.551,0,2.813-1.262,2.813-2.813s-1.262-2.812-2.813-2.812H-210.644z" fill="#000000" class="color000000 svgShape"></path><path fill="#ffffff" d="M-190.597-291.207c-1.018,0-1.975-0.396-2.696-1.116l-10.81-10.811c-0.718-0.719-1.114-1.676-1.114-2.696c0-0.056,0.015-0.108,0.018-0.163c-0.038,0.034-0.082,0.061-0.119,0.098c-0.529,0.53-0.821,1.236-0.821,1.988c0,0.752,0.292,1.459,0.822,1.99l10.81,10.81c1.064,1.062,2.915,1.062,3.978-0.001l0.115-0.115C-190.476-291.221-190.535-291.207-190.597-291.207z" class="colorffffff svgShape"></path><path d="M-192.52-288.285c-1.284,0-2.492-0.5-3.402-1.409l-10.811-10.811c-0.908-0.909-1.407-2.117-1.407-3.403c0-1.286,0.5-2.494,1.407-3.402c0.91-0.909,2.118-1.41,3.404-1.41c1.286,0,2.495,0.501,3.403,1.411l7.407,7.406l7.407-7.407c0.909-0.909,2.118-1.41,3.403-1.41c1.286,0,2.495,0.501,3.403,1.411c1.875,1.875,1.876,4.927,0.001,6.804l-10.811,10.811C-190.026-288.785-191.234-288.285-192.52-288.285z M-203.329-306.72c-0.751,0-1.458,0.293-1.989,0.824c-0.529,0.53-0.821,1.236-0.821,1.988c0,0.752,0.292,1.459,0.822,1.99l10.81,10.81c1.064,1.062,2.915,1.062,3.978-0.001l10.811-10.81c1.096-1.097,1.095-2.88-0.001-3.977c-1.062-1.063-2.914-1.063-3.978,0l-8.114,8.114c-0.391,0.391-1.023,0.391-1.414,0l-8.114-8.114C-201.872-306.427-202.578-306.72-203.329-306.72z" fill="#000000" class="color000000 svgShape"></path><path fill="#ea4335" d="M267.52-331.257c.256 0 .512.098.707.293l8.113 8.114c1.064 1.063 2.916 1.063 3.979 0 .529-.529.82-1.235.82-1.988s-.291-1.459-.82-1.989l-10.811-10.811c-1.063-1.063-2.914-1.062-3.977.001l-10.813 10.81c-1.095 1.097-1.094 2.881.002 3.977 1.066 1.064 2.919 1.062 3.976.001l8.116-8.115C267.008-331.16 267.264-331.257 267.52-331.257zM267.539-319.265c-1.551 0-2.813 1.262-2.813 2.813v22.356c0 1.551 1.262 2.812 2.813 2.812s2.813-1.261 2.813-2.812v-22.356C270.352-318.003 269.09-319.265 267.539-319.265z" class="coloref3039 svgShape"></path><path d="M267.539-289.285c-2.653,0-4.813-2.159-4.813-4.812v-22.356c0-2.654,2.159-4.813,4.813-4.813s4.813,2.159,4.813,4.813v22.356C272.352-291.443,270.192-289.285,267.539-289.285z M267.539-319.265c-1.551,0-2.813,1.262-2.813,2.813v22.356c0,1.551,1.262,2.812,2.813,2.812s2.813-1.261,2.813-2.812v-22.356C270.352-318.003,269.09-319.265,267.539-319.265z" fill="#000000" class="color000000 svgShape"></path><path fill="#ea4335" d="M285.645-282.163h-36.289c-1.551,0-2.813,1.262-2.813,2.813s1.262,2.812,2.813,2.812h36.289c1.551,0,2.813-1.262,2.813-2.813S287.195-282.163,285.645-282.163z" class="coloref3039 svgShape"></path><path d="M285.645-274.539h-36.289c-2.653,0-4.813-2.159-4.813-4.812c0-2.654,2.159-4.813,4.813-4.813h36.289c2.653,0,4.813,2.159,4.813,4.812C290.457-276.697,288.298-274.539,285.645-274.539z M249.355-282.163c-1.551,0-2.813,1.262-2.813,2.813s1.262,2.812,2.813,2.812h36.289c1.551,0,2.813-1.262,2.813-2.813s-1.262-2.812-2.813-2.812H249.355z" fill="#000000" class="color000000 svgShape"></path><path fill="#ffffff" d="M280.318-322.851c0.529-0.529,0.82-1.235,0.82-1.988s-0.291-1.459-0.82-1.989l-10.811-10.811c-1.063-1.063-2.914-1.062-3.977,0.001l-0.074,0.074c0.061-0.003,0.12-0.018,0.181-0.018c1.018,0,1.975,0.396,2.695,1.116l10.811,10.811c0.719,0.719,1.114,1.676,1.114,2.696c0,0.059-0.017,0.114-0.019,0.172C280.264-322.81,280.294-322.826,280.318-322.851z" class="colorffffff svgShape"></path><path d="M278.33-320.026c-1.285,0-2.494-0.5-3.404-1.41l-7.406-7.407l-7.408,7.407c-0.906,0.909-2.115,1.41-3.402,1.41c-1.284,0-2.492-0.5-3.402-1.41c-1.875-1.875-1.877-4.928-0.003-6.805l10.813-10.811c0.909-0.909,2.118-1.41,3.402-1.41s2.492,0.5,3.402,1.409l10.811,10.811c0.907,0.907,1.406,2.115,1.406,3.403c0,1.288-0.499,2.496-1.406,3.403C280.823-320.527,279.615-320.026,278.33-320.026z M267.52-331.257c0.256,0,0.512,0.098,0.707,0.293l8.113,8.114c1.064,1.063,2.916,1.063,3.979,0c0.529-0.529,0.82-1.235,0.82-1.988s-0.291-1.459-0.82-1.989l-10.811-10.811c-1.063-1.063-2.914-1.062-3.977,0.001l-10.813,10.81c-1.095,1.097-1.094,2.881,0.002,3.977c1.066,1.064,2.919,1.062,3.976,0.001l8.116-8.115C267.008-331.16,267.264-331.257,267.52-331.257z" fill="#000000" class="color000000 svgShape"></path><path fill="#ea4335" d="M-161.5-77.5c0-0.751-0.292-1.458-0.824-1.989l-10.81-10.811c-0.531-0.531-1.237-0.823-1.988-0.823c-0.751,0-1.457,0.292-1.988,0.824c-0.531,0.531-0.823,1.237-0.823,1.989s0.292,1.458,0.822,1.989l8.114,8.114c0.391,0.391,0.391,1.023,0,1.414l-8.114,8.114c-0.53,0.53-0.822,1.236-0.822,1.989c0,0.752,0.292,1.458,0.822,1.988c1.064,1.063,2.916,1.063,3.977,0l10.81-10.81C-161.792-76.042-161.5-76.748-161.5-77.5z" class="coloref3039 svgShape"></path><path fill="#ea4335" d="M-220.688-74.668h40.379c1.551,0,2.813-1.262,2.813-2.813c0-1.55-1.262-2.812-2.813-2.812h-40.379c-1.551,0-2.812,1.261-2.812,2.812C-223.5-75.93-222.239-74.668-220.688-74.668z" class="coloref3039 svgShape"></path><path d="M-180.309-72.668h-40.379c-2.653,0-4.812-2.159-4.812-4.813c0-2.653,2.159-4.812,4.812-4.812h40.379c2.654,0,4.813,2.158,4.813,4.812C-175.497-74.827-177.655-72.668-180.309-72.668z M-220.688-80.293c-1.551,0-2.812,1.261-2.812,2.812c0,1.552,1.261,2.813,2.812,2.813h40.379c1.551,0,2.813-1.262,2.813-2.813c0-1.55-1.262-2.812-2.813-2.812H-220.688z" fill="#000000" class="color000000 svgShape"></path><path fill="#ffffff" d="M-163.742-76.929l-10.81,10.81c-0.72,0.721-1.677,1.117-2.696,1.117c-0.041,0-0.08-0.01-0.121-0.012c0.081,0.108,0.16,0.216,0.257,0.313c1.064,1.063,2.916,1.063,3.977,0l10.81-10.81c0.532-0.531,0.824-1.237,0.824-1.989c0-0.751-0.292-1.458-0.824-1.989l-0.319-0.319c0.003,0.062,0.018,0.121,0.018,0.183C-162.625-78.607-163.022-77.649-163.742-76.929z" class="colorffffff svgShape"></path><path d="M-175.123-61.877c-1.285,0-2.494-0.501-3.403-1.41c-0.908-0.907-1.408-2.116-1.408-3.403c0-1.286,0.5-2.495,1.408-3.402l7.407-7.407l-7.407-7.407c-0.908-0.908-1.408-2.116-1.408-3.403s0.5-2.495,1.408-3.403c0.908-0.909,2.116-1.41,3.402-1.41c1.286,0,2.494,0.5,3.402,1.409l10.811,10.811c0.909,0.91,1.41,2.118,1.41,3.403c0,1.286-0.501,2.495-1.41,3.403l-10.81,10.81C-172.628-62.378-173.837-61.877-175.123-61.877z M-175.123-91.123c-0.751,0-1.457,0.292-1.988,0.824c-0.531,0.531-0.823,1.237-0.823,1.989s0.292,1.458,0.822,1.989l8.114,8.114c0.391,0.391,0.391,1.023,0,1.414l-8.114,8.114c-0.53,0.53-0.822,1.236-0.822,1.989c0,0.752,0.292,1.458,0.822,1.988c1.064,1.063,2.916,1.063,3.977,0l10.81-10.81c0.532-0.531,0.824-1.237,0.824-1.989c0-0.751-0.292-1.458-0.824-1.989l-10.81-10.811C-173.665-90.831-174.372-91.123-175.123-91.123z" fill="#000000" class="color000000 svgShape"></path><path fill="#fbbc05" d="M-223.5,37.5c0,0.751,0.292,1.458,0.824,1.989l10.81,10.811c1.062,1.063,2.915,1.061,3.976-0.001c0.531-0.53,0.823-1.236,0.823-1.988c0-0.753-0.292-1.459-0.822-1.989l-8.114-8.114c-0.391-0.391-0.391-1.023,0-1.414l8.114-8.114c0.53-0.53,0.822-1.236,0.822-1.989c0-0.752-0.292-1.458-0.822-1.988c-0.532-0.531-1.238-0.824-1.989-0.824c-0.751,0-1.458,0.293-1.988,0.824l-10.81,10.81C-223.208,36.042-223.5,36.748-223.5,37.5z" class="colorf2bf1c svgShape"></path><path fill="#fbbc05" d="M-164.312,34.668h-40.379c-1.551,0-2.813,1.262-2.813,2.813c0,1.55,1.262,2.812,2.813,2.812h40.379c1.551,0,2.812-1.262,2.812-2.812C-161.5,35.93-162.761,34.668-164.312,34.668z" class="colorf2bf1c svgShape"></path><path d="M-164.312,42.293h-40.379c-2.654,0-4.813-2.158-4.813-4.812c0-2.654,2.159-4.813,4.813-4.813h40.379c2.653,0,4.812,2.159,4.812,4.813C-159.5,40.135-161.659,42.293-164.312,42.293z M-204.691,34.668c-1.551,0-2.813,1.262-2.813,2.813c0,1.55,1.262,2.812,2.813,2.812h40.379c1.551,0,2.812-1.262,2.812-2.812c0-1.552-1.261-2.813-2.812-2.813H-204.691z" fill="#000000" class="color000000 svgShape"></path><path fill="#ffffff" d="M-221.008,37.179l10.81-10.81c0.72-0.721,1.677-1.117,2.696-1.117c0.011,0,0.022,0.003,0.033,0.003c-0.118-0.198-0.252-0.387-0.419-0.554c-0.532-0.531-1.238-0.824-1.989-0.824c-0.751,0-1.458,0.293-1.988,0.824l-10.81,10.81c-0.532,0.531-0.824,1.237-0.824,1.989c0,0.751,0.292,1.458,0.824,1.989l0.569,0.569c-0.003-0.062-0.018-0.121-0.018-0.183C-222.125,38.857-221.728,37.899-221.008,37.179z" class="colorffffff svgShape"></path><path d="M-209.877,53.123c-1.286,0-2.494-0.5-3.402-1.409l-10.811-10.811c-0.909-0.909-1.41-2.118-1.41-3.403c0-1.286,0.501-2.495,1.41-3.403l10.81-10.81c0.909-0.909,2.117-1.41,3.403-1.41c1.285,0,2.494,0.501,3.403,1.41c0.908,0.907,1.408,2.116,1.408,3.403c0,1.286-0.5,2.495-1.408,3.402l-7.407,7.407l7.407,7.407c0.908,0.907,1.408,2.116,1.408,3.403c0,1.286-0.5,2.495-1.408,3.402C-207.383,52.622-208.591,53.123-209.877,53.123z M-209.877,23.877c-0.751,0-1.458,0.293-1.988,0.824l-10.81,10.81c-0.532,0.531-0.824,1.237-0.824,1.989c0,0.751,0.292,1.458,0.824,1.989l10.81,10.811c1.062,1.063,2.915,1.061,3.976-0.001c0.531-0.53,0.823-1.236,0.823-1.988c0-0.753-0.292-1.459-0.822-1.989l-8.114-8.114c-0.391-0.391-0.391-1.023,0-1.414l8.114-8.114c0.53-0.53,0.822-1.236,0.822-1.989c0-0.752-0.292-1.458-0.822-1.988C-208.42,24.17-209.126,23.877-209.877,23.877z" fill="#000000" class="color000000 svgShape"></path><path fill="#34a853" d="M266.793,13.997c0.391-0.391,1.023-0.391,1.414,0l8.114,8.113c0.53,0.53,1.236,0.822,1.989,0.822c0.752,0,1.458-0.291,1.988-0.821c0.531-0.531,0.824-1.238,0.824-1.989s-0.293-1.457-0.824-1.987l-10.81-10.811C268.958,6.793,268.252,6.5,267.5,6.5c-0.751,0-1.458,0.293-1.989,0.824L254.7,18.135c-0.531,0.531-0.823,1.237-0.823,1.988s0.293,1.457,0.824,1.987c1.095,1.097,2.879,1.098,3.978,0.001L266.793,13.997z" class="color41d88d svgShape"></path><path fill="#34a853" d="M267.519,22.497c-1.55,0-2.812,1.262-2.812,2.813v40.379c0,1.55,1.262,2.812,2.812,2.812c1.552,0,2.813-1.262,2.813-2.813V25.31C270.332,23.759,269.07,22.497,267.519,22.497z" class="color41d88d svgShape"></path><path d="M267.519,70.5c-2.653,0-4.812-2.158-4.812-4.812V25.31c0-2.653,2.158-4.813,4.812-4.813c2.654,0,4.813,2.159,4.813,4.813v40.378C272.332,68.341,270.173,70.5,267.519,70.5z M267.519,22.497c-1.55,0-2.812,1.262-2.812,2.813v40.379c0,1.55,1.262,2.812,2.812,2.812c1.552,0,2.813-1.262,2.813-2.813V25.31C270.332,23.759,269.07,22.497,267.519,22.497z" fill="#000000" class="color000000 svgShape"></path><path d="M278.311,24.933C278.311,24.933,278.311,24.933,278.311,24.933c-1.287,0-2.496-0.5-3.403-1.408l-7.407-7.406l-7.407,7.407c-1.876,1.876-4.928,1.878-6.806,0c-0.909-0.908-1.41-2.116-1.41-3.402c0-1.285,0.5-2.494,1.409-3.402L264.097,5.91c0.909-0.909,2.118-1.41,3.403-1.41c1.287,0,2.495,0.501,3.404,1.41l10.809,10.81c0.909,0.908,1.41,2.116,1.41,3.402c0,1.285-0.501,2.494-1.41,3.403C280.806,24.434,279.597,24.933,278.311,24.933z M267.5,6.5c-0.751,0-1.458,0.293-1.989,0.824L254.7,18.135c-0.531,0.531-0.823,1.237-0.823,1.988s0.293,1.457,0.824,1.987c1.095,1.097,2.879,1.098,3.978,0.001l8.114-8.114c0.391-0.391,1.023-0.391,1.414,0l8.114,8.113c0.53,0.53,1.236,0.822,1.989,0.822l0,0c0.752,0,1.458-0.291,1.988-0.821c0.531-0.531,0.824-1.238,0.824-1.989s-0.293-1.457-0.824-1.987l-10.81-10.811C268.958,6.793,268.252,6.5,267.5,6.5z" fill="#000000" class="color000000 svgShape"></path><path fill="#ffffff" d="M280.299,18.135l-10.81-10.811C268.958,6.793,268.252,6.5,267.5,6.5c-0.751,0-1.458,0.293-1.989,0.824l-0.84,0.84c0.062-0.003,0.121-0.018,0.183-0.018c1.019,0,1.977,0.397,2.696,1.117l10.81,10.81c0.699,0.698,1.085,1.621,1.108,2.605c0.305-0.138,0.588-0.324,0.831-0.567c0.531-0.531,0.824-1.238,0.824-1.989S280.83,18.665,280.299,18.135z" class="colorffffff svgShape"></path><path fill="#34a853" d="M59.078 133.134l-10.81-10.81c-1.063-1.063-2.915-1.063-3.978 0L33.48 133.135c-.531.531-.823 1.237-.823 1.988s.292 1.457.824 1.988c1.061 1.061 2.917 1.061 3.977 0l8.114-8.114c.195-.195.451-.293.707-.293s.512.098.707.293l8.114 8.114c1.099 1.096 2.881 1.096 3.978 0 .531-.531.824-1.237.824-1.988S59.609 133.665 59.078 133.134zM30.708 141.133c-.532-.531-1.238-.824-1.989-.824-.751 0-1.458.293-1.988.824l-10.81 10.81c-.532.531-.824 1.237-.824 1.989 0 .751.292 1.458.824 1.989l10.81 10.811c1.062 1.063 2.915 1.062 3.976-.001.531-.53.823-1.236.823-1.988 0-.753-.292-1.459-.822-1.989l-8.114-8.114c-.391-.391-.391-1.023 0-1.414l8.114-8.114c.53-.53.822-1.236.822-1.989C31.53 142.369 31.238 141.663 30.708 141.133z" class="color41d88d svgShape"></path><path d="M28.72,169.555c-1.286,0-2.494-0.5-3.402-1.409l-10.811-10.811c-0.909-0.909-1.41-2.118-1.41-3.403c0-1.286,0.501-2.495,1.41-3.403l10.81-10.81c0.909-0.909,2.117-1.41,3.403-1.41c1.285,0,2.494,0.501,3.403,1.41c0.908,0.907,1.408,2.116,1.408,3.403c0,1.286-0.5,2.495-1.408,3.402l-7.407,7.407l7.407,7.407c0.908,0.907,1.408,2.116,1.408,3.403c0,1.286-0.5,2.495-1.408,3.402C31.214,169.054,30.006,169.555,28.72,169.555z M28.72,140.309c-0.751,0-1.458,0.293-1.988,0.824l-10.81,10.81c-0.532,0.531-0.824,1.237-0.824,1.989c0,0.751,0.292,1.458,0.824,1.989l10.81,10.811c1.062,1.063,2.915,1.062,3.976-0.001c0.531-0.53,0.823-1.236,0.823-1.988c0-0.753-0.292-1.459-0.822-1.989l-8.114-8.114c-0.391-0.391-0.391-1.023,0-1.414l8.114-8.114c0.53-0.53,0.822-1.236,0.822-1.989c0-0.752-0.292-1.458-0.822-1.988C30.177,140.602,29.471,140.309,28.72,140.309z" fill="#000000" class="color000000 svgShape"></path><path fill="#34a853" d="M46.299,183.5c1.551,0,2.813-1.262,2.813-2.813V140.31c0-1.551-1.262-2.813-2.813-2.813s-2.813,1.262-2.813,2.813v9.79c0,0.553-0.447,1-1,1h-8.58c-1.551,0-2.813,1.262-2.813,2.813c0,1.55,1.262,2.812,2.813,2.812h8.58c0.553,0,1,0.447,1,1v22.963C43.486,182.238,44.748,183.5,46.299,183.5z" class="color41d88d svgShape"></path><path d="M46.299,185.5c-2.653,0-4.813-2.159-4.813-4.813v-21.963h-7.58c-2.654,0-4.813-2.158-4.813-4.812c0-2.654,2.159-4.813,4.813-4.813h7.58v-8.79c0-2.653,2.159-4.813,4.813-4.813s4.813,2.159,4.813,4.813v40.378C51.111,183.341,48.952,185.5,46.299,185.5z M33.907,151.1c-1.551,0-2.813,1.262-2.813,2.813c0,1.55,1.262,2.812,2.813,2.812h8.58c0.553,0,1,0.447,1,1v22.963c0,1.551,1.262,2.813,2.813,2.813s2.813-1.262,2.813-2.813V140.31c0-1.551-1.262-2.813-2.813-2.813s-2.813,1.262-2.813,2.813v9.79c0,0.553-0.447,1-1,1H33.907z" fill="#000000" class="color000000 svgShape"></path><path fill="#ffffff" d="M59.078,133.134l-10.81-10.81c-1.063-1.063-2.915-1.063-3.978,0l-0.412,0.412c0.061-0.003,0.12-0.018,0.182-0.018c1.019,0,1.977,0.397,2.696,1.117l10.81,10.81c0.721,0.72,1.117,1.677,1.117,2.696c0,0.034-0.009,0.066-0.01,0.099c0.142-0.097,0.278-0.204,0.404-0.329c0.531-0.531,0.824-1.237,0.824-1.988S59.609,133.665,59.078,133.134z" class="colorffffff svgShape"></path><path d="M35.47,139.933c-1.287,0-2.495-0.499-3.403-1.407c-0.909-0.908-1.41-2.116-1.41-3.402c0-1.285,0.5-2.494,1.409-3.402l10.811-10.811c0.909-0.909,2.117-1.41,3.402-1.41s2.494,0.501,3.403,1.41l10.81,10.81c0.909,0.909,1.41,2.118,1.41,3.403s-0.501,2.493-1.41,3.402c-1.878,1.878-4.93,1.876-6.806,0l-7.407-7.407l-7.407,7.407C37.965,139.434,36.756,139.933,35.47,139.933z M46.279,128.704c0.256,0,0.512,0.098,0.707,0.293l8.114,8.114c1.099,1.096,2.881,1.096,3.978,0c0.531-0.531,0.824-1.237,0.824-1.988s-0.293-1.458-0.824-1.989l-10.81-10.81c-1.063-1.063-2.915-1.063-3.978,0L33.48,133.135c-0.531,0.531-0.823,1.237-0.823,1.988s0.292,1.457,0.824,1.988c1.061,1.061,2.917,1.061,3.977,0l8.114-8.114C45.768,128.802,46.023,128.704,46.279,128.704z" fill="#000000" class="color000000 svgShape"></path><path fill="#4285f4" d="M137.093,122.344c-0.531-0.531-1.238-0.824-1.989-0.824s-1.457,0.293-1.987,0.824l-10.811,10.81c-0.531,0.531-0.824,1.237-0.824,1.989c0,0.75,0.293,1.457,0.824,1.988l10.81,10.811c1.063,1.063,2.914,1.063,3.977,0c0.53-0.53,0.822-1.236,0.822-1.988c0-0.753-0.292-1.459-0.822-1.989l-8.113-8.114c-0.391-0.391-0.391-1.023,0-1.414l8.113-8.114c0.53-0.53,0.822-1.236,0.822-1.989C137.914,123.58,137.623,122.874,137.093,122.344z" class="color37c3f4 svgShape"></path><path fill="#ffffff" d="M123.598,134.446l10.81-10.81c0.72-0.721,1.677-1.117,2.696-1.117c0.049,0,0.096,0.013,0.145,0.015c-0.053-0.063-0.097-0.132-0.156-0.19c-0.531-0.531-1.238-0.824-1.989-0.824s-1.457,0.293-1.987,0.824l-10.811,10.81c-0.531,0.531-0.824,1.237-0.824,1.989c0,0.75,0.293,1.457,0.824,1.988l0.193,0.193c-0.003-0.061-0.018-0.12-0.018-0.182C122.481,136.124,122.878,135.166,123.598,134.446z" class="colorffffff svgShape"></path><path d="M135.104,150.765c-1.285,0-2.494-0.5-3.402-1.409l-10.811-10.811c-0.909-0.91-1.409-2.118-1.409-3.402c0-1.287,0.501-2.495,1.41-3.404l10.81-10.809c0.908-0.909,2.116-1.41,3.402-1.41c1.285,0,2.494,0.501,3.403,1.41c0.908,0.908,1.408,2.116,1.407,3.403c0,1.286-0.5,2.495-1.408,3.402l-7.406,7.407l7.406,7.407c0.908,0.907,1.408,2.116,1.408,3.403c0,1.286-0.5,2.495-1.408,3.402C137.598,150.265,136.389,150.765,135.104,150.765z M135.104,121.52c-0.751,0-1.457,0.293-1.987,0.824l-10.811,10.81c-0.531,0.531-0.824,1.237-0.824,1.989c0,0.75,0.293,1.457,0.824,1.988l10.81,10.811c1.063,1.063,2.914,1.063,3.977,0c0.53-0.53,0.822-1.236,0.822-1.988c0-0.753-0.292-1.459-0.822-1.989l-8.113-8.114c-0.391-0.391-0.391-1.023,0-1.414l8.113-8.114c0.53-0.53,0.822-1.236,0.822-1.989c0-0.752-0.291-1.458-0.821-1.988C136.562,121.813,135.854,121.52,135.104,121.52z" fill="#000000" class="color000000 svgShape"></path><path fill="#4285f4" d="M171.885,147.941l10.811-10.811c0.53-0.531,0.823-1.238,0.823-1.988c0-0.752-0.293-1.458-0.824-1.988l-10.81-10.811c-0.531-0.531-1.237-0.824-1.988-0.824s-1.458,0.293-1.989,0.824c-0.53,0.53-0.821,1.236-0.821,1.988c0,0.753,0.292,1.459,0.822,1.989l8.113,8.114c0.391,0.391,0.391,1.023,0,1.414l-8.113,8.114c-0.53,0.53-0.822,1.236-0.822,1.989c0,0.752,0.292,1.458,0.822,1.988C168.971,149.004,170.822,149.004,171.885,147.941z" class="color37c3f4 svgShape"></path><path d="M169.896,150.765c-1.285,0-2.494-0.5-3.402-1.409c-0.908-0.907-1.408-2.116-1.408-3.402c0-1.287,0.5-2.496,1.408-3.403l7.406-7.407l-7.406-7.407c-0.908-0.907-1.408-2.116-1.408-3.402c-0.001-1.287,0.499-2.495,1.407-3.403c0.909-0.909,2.118-1.41,3.403-1.41c1.286,0,2.494,0.501,3.403,1.41l10.809,10.81c0.909,0.908,1.41,2.116,1.41,3.403c0,1.284-0.5,2.492-1.408,3.402l-10.812,10.811C172.391,150.265,171.182,150.765,169.896,150.765z M169.896,121.52c-0.751,0-1.458,0.293-1.989,0.824c-0.53,0.53-0.821,1.236-0.821,1.988c0,0.753,0.292,1.459,0.822,1.989l8.113,8.114c0.391,0.391,0.391,1.023,0,1.414l-8.113,8.114c-0.53,0.53-0.822,1.236-0.822,1.989c0,0.752,0.292,1.458,0.822,1.988c1.063,1.063,2.914,1.063,3.977,0l10.811-10.811c0.53-0.531,0.823-1.238,0.823-1.988c0-0.752-0.293-1.458-0.824-1.988l-10.81-10.811C171.354,121.813,170.647,121.52,169.896,121.52z" fill="#000000" class="color000000 svgShape"></path><path fill="#4285f4" d="M155.312,138.936c0-0.553,0.447-1,1-1h8.396c1.551,0,2.813-1.262,2.813-2.813s-1.262-2.813-2.813-2.813H140.29c-1.551,0-2.813,1.262-2.813,2.813s1.262,2.813,2.813,2.813h8.397c0.553,0,1,0.447,1,1v41.733c0,1.55,1.262,2.812,2.813,2.812s2.812-1.262,2.812-2.812V138.936z" class="color37c3f4 svgShape"></path><path d="M152.5,185.48c-2.653,0-4.813-2.158-4.813-4.812v-40.733h-7.397c-2.653,0-4.813-2.159-4.813-4.813s2.159-4.813,4.813-4.813h24.419c2.653,0,4.813,2.159,4.813,4.813s-2.159,4.813-4.813,4.813h-7.396v40.733C157.312,183.322,155.153,185.48,152.5,185.48z M140.29,132.311c-1.551,0-2.813,1.262-2.813,2.813s1.262,2.813,2.813,2.813h8.397c0.553,0,1,0.447,1,1v41.733c0,1.55,1.262,2.812,2.813,2.812s2.812-1.262,2.812-2.812v-41.733c0-0.553,0.447-1,1-1h8.396c1.551,0,2.813-1.262,2.813-2.813s-1.262-2.813-2.813-2.813H140.29z" fill="#000000" class="color000000 svgShape"></path><path fill="#ea4335" d="M-179.7,171.865c0.531-0.531,0.823-1.237,0.823-1.988c0-0.751-0.293-1.457-0.824-1.988c-1.097-1.096-2.881-1.096-3.978,0l-8.114,8.114c-0.391,0.391-1.023,0.391-1.414,0l-8.115-8.113c-0.53-0.53-1.236-0.822-1.989-0.822h0c-0.752,0-1.458,0.291-1.988,0.821c-0.531,0.531-0.824,1.238-0.824,1.989c0,0.751,0.293,1.457,0.824,1.987l10.81,10.811c1.062,1.062,2.914,1.063,3.978,0L-179.7,171.865z" class="coloref3039 svgShape"></path><path fill="#ea4335" d="M-192.519,121.5c-1.551,0-2.813,1.262-2.813,2.813v40.378c0,1.551,1.262,2.813,2.813,2.813c1.551,0,2.812-1.262,2.812-2.813v-40.379C-189.707,122.762-190.968,121.5-192.519,121.5z" class="coloref3039 svgShape"></path><path d="M-192.519,169.503c-2.654,0-4.813-2.159-4.813-4.813v-40.378c0-2.653,2.159-4.813,4.813-4.813c2.653,0,4.812,2.158,4.812,4.812v40.379C-187.707,167.344-189.866,169.503-192.519,169.503z M-192.519,121.5c-1.551,0-2.813,1.262-2.813,2.813v40.378c0,1.551,1.262,2.813,2.813,2.813c1.551,0,2.812-1.262,2.812-2.813v-40.379C-189.707,122.762-190.968,121.5-192.519,121.5z" fill="#000000" class="color000000 svgShape"></path><path fill="#ffffff" d="M-181.056,170.51l-10.811,10.811c-0.721,0.72-1.678,1.117-2.696,1.117c-0.062,0-0.121-0.015-0.183-0.018l0.256,0.256c1.062,1.062,2.914,1.063,3.978,0l10.811-10.811c0.531-0.531,0.823-1.237,0.823-1.988c0-0.751-0.293-1.457-0.824-1.988c-0.078-0.078-0.167-0.138-0.251-0.205c0.002,0.044,0.013,0.087,0.013,0.131C-179.94,168.833-180.336,169.791-181.056,170.51z" class="colorffffff svgShape"></path><path d="M-192.5,185.5c-1.287,0-2.496-0.501-3.404-1.41l-10.809-10.81c-0.909-0.907-1.41-2.116-1.411-3.402l0,0c0-1.285,0.501-2.494,1.41-3.403c0.908-0.908,2.116-1.407,3.402-1.407h0c1.287,0,2.496,0.5,3.403,1.408l7.407,7.406l7.407-7.407c1.876-1.877,4.93-1.877,6.806,0c0.909,0.908,1.41,2.116,1.41,3.402c0,1.285-0.5,2.494-1.409,3.402l-10.811,10.811C-190.006,184.999-191.214,185.5-192.5,185.5z M-206.123,169.878c0,0.751,0.293,1.457,0.824,1.987l10.81,10.811c1.062,1.062,2.914,1.063,3.978,0l10.811-10.811c0.531-0.531,0.823-1.237,0.823-1.988c0-0.751-0.293-1.457-0.824-1.988c-1.097-1.096-2.881-1.096-3.978,0l-8.114,8.114c-0.391,0.391-1.023,0.391-1.414,0l-8.115-8.113c-0.53-0.53-1.236-0.822-1.989-0.822h0c-0.752,0-1.458,0.291-1.988,0.821C-205.83,168.42-206.123,169.127-206.123,169.878z" fill="#000000" class="color000000 svgShape"></path><path fill="#4285f4" d="M180.671-87.584c1.551,0,2.813-1.262,2.813-2.813v-15.288c0-1.551-1.262-2.813-2.813-2.813h-15.287c-1.551,0-2.813,1.262-2.813,2.813s1.262,2.813,2.813,2.813h11.475c0.553,0,1,0.448,1,1v11.475C177.858-88.846,179.12-87.584,180.671-87.584z" class="color37c3f4 svgShape"></path><path fill="#4285f4" d="M171.217-92.226c0.531-0.531,0.824-1.237,0.824-1.989c0-0.751-0.292-1.458-0.823-1.988c-0.531-0.532-1.237-0.824-1.989-0.824s-1.457,0.292-1.987,0.823l-44.9,44.9c-0.531,0.531-0.824,1.237-0.824,1.988s0.292,1.457,0.823,1.986c1.063,1.066,2.916,1.064,3.977,0.002L171.217-92.226z" class="color37c3f4 svgShape"></path><path d="M124.329-44.503c-1.286,0-2.495-0.501-3.404-1.411c-0.907-0.907-1.408-2.115-1.408-3.401s0.501-2.494,1.41-3.403l44.899-44.899c0.907-0.909,2.116-1.41,3.402-1.41s2.495,0.501,3.403,1.41c0.909,0.909,1.409,2.117,1.409,3.402s-0.501,2.494-1.41,3.403l-44.899,44.898C126.823-45.004,125.615-44.503,124.329-44.503z M169.229-97.027c-0.752,0-1.457,0.292-1.987,0.823l-44.9,44.9c-0.531,0.531-0.824,1.237-0.824,1.988s0.292,1.457,0.823,1.986c1.063,1.066,2.916,1.064,3.977,0.002l44.9-44.899c0.531-0.531,0.824-1.237,0.824-1.989c0-0.751-0.292-1.458-0.823-1.988C170.687-96.735,169.98-97.027,169.229-97.027z" fill="#000000" class="color000000 svgShape"></path><path fill="#ffffff" d="M180.671-108.497h-15.287c-1.551,0-2.813,1.262-2.813,2.813c0,0.007,0.002,0.014,0.002,0.021c0.694-0.774,1.689-1.271,2.811-1.271h15.287c1.118,0,2.114,0.492,2.812,1.26v-0.01C183.483-107.235,182.222-108.497,180.671-108.497z" class="colorffffff svgShape"></path><path d="M180.671-85.584c-2.653,0-4.813-2.159-4.813-4.813v-10.475h-10.475c-2.653,0-4.813-2.159-4.813-4.813s2.159-4.813,4.813-4.813h15.287c2.653,0,4.813,2.159,4.813,4.813v15.288C185.483-87.743,183.324-85.584,180.671-85.584z M165.384-108.497c-1.551,0-2.813,1.262-2.813,2.813s1.262,2.813,2.813,2.813h11.475c0.553,0,1,0.448,1,1v11.475c0,1.551,1.262,2.813,2.813,2.813s2.813-1.262,2.813-2.813v-15.288c0-1.551-1.262-2.813-2.813-2.813H165.384z" fill="#000000" class="color000000 svgShape"></path><path fill="#4285f4" d="M-90.397,6.517h-15.288c-1.551,0-2.813,1.262-2.813,2.813v15.287c0,1.551,1.262,2.813,2.813,2.813s2.813-1.262,2.813-2.813V13.142c0-0.553,0.448-1,1-1h11.475c1.551,0,2.813-1.262,2.813-2.813S-88.846,6.517-90.397,6.517z" class="color37c3f4 svgShape"></path><path fill="#4285f4" d="M-47.327,63.684l-44.899-44.9c-0.531-0.531-1.237-0.824-1.989-0.824c-0.751,0-1.458,0.292-1.988,0.823c-0.532,0.531-0.824,1.237-0.824,1.989s0.292,1.457,0.823,1.987l44.9,44.9c1.063,1.063,2.916,1.063,3.975,0.001c0.533-0.531,0.826-1.238,0.826-1.989S-46.795,64.214-47.327,63.684z" class="color37c3f4 svgShape"></path><path d="M-49.315,70.483c-1.286,0-2.495-0.501-3.403-1.41l-44.899-44.899c-0.909-0.907-1.41-2.116-1.41-3.402s0.501-2.495,1.41-3.403c0.909-0.909,2.117-1.409,3.402-1.409s2.494,0.501,3.403,1.41l44.898,44.899c0.909,0.908,1.41,2.116,1.41,3.402s-0.501,2.495-1.412,3.404C-46.821,69.982-48.029,70.483-49.315,70.483z M-94.215,17.959c-0.751,0-1.458,0.292-1.988,0.823c-0.532,0.531-0.824,1.237-0.824,1.989s0.292,1.457,0.823,1.987l44.9,44.9c1.063,1.063,2.916,1.063,3.975,0.001c0.533-0.531,0.826-1.238,0.826-1.989s-0.292-1.457-0.824-1.987l-44.899-44.9C-92.757,18.252-93.463,17.959-94.215,17.959z" fill="#000000" class="color000000 svgShape"></path><path fill="#ffffff" d="M-105.685,8.853h15.288c1.07,0,2.027,0.452,2.717,1.167c0.057-0.222,0.096-0.451,0.096-0.691c0-1.551-1.262-2.813-2.813-2.813h-15.288c-1.551,0-2.813,1.262-2.813,2.813v0.784C-107.799,9.345-106.802,8.853-105.685,8.853z" class="colorffffff svgShape"></path><path d="M-105.685,29.429c-2.654,0-4.813-2.159-4.813-4.813V9.329c0-2.653,2.159-4.813,4.813-4.813h15.288c2.654,0,4.813,2.159,4.813,4.813s-2.159,4.813-4.813,4.813h-10.475v10.475C-100.872,27.27-103.031,29.429-105.685,29.429z M-105.685,6.517c-1.551,0-2.813,1.262-2.813,2.813v15.287c0,1.551,1.262,2.813,2.813,2.813s2.813-1.262,2.813-2.813V13.142c0-0.553,0.448-1,1-1h11.475c1.551,0,2.813-1.262,2.813-2.813s-1.262-2.813-2.813-2.813H-105.685z" fill="#000000" class="color000000 svgShape"></path><path fill="#ea4335" d="M9.329,47.585c-1.551,0-2.813,1.262-2.813,2.813v15.287c0,1.551,1.262,2.813,2.813,2.813h15.287c1.551,0,2.813-1.262,2.813-2.813s-1.262-2.813-2.813-2.813H13.142c-0.552,0-1-0.447-1-1V50.397C12.142,48.847,10.88,47.585,9.329,47.585z" class="coloref3039 svgShape"></path><path fill="#ea4335" d="M65.671,6.503c-0.751,0-1.457,0.293-1.987,0.824l-44.9,44.899c-0.532,0.531-0.824,1.237-0.824,1.988s0.292,1.457,0.823,1.988c1.063,1.063,2.917,1.063,3.977,0.001l44.9-44.9c0.531-0.531,0.824-1.237,0.824-1.988s-0.292-1.457-0.823-1.986C67.129,6.796,66.422,6.503,65.671,6.503z" class="coloref3039 svgShape"></path><path d="M20.771,59.027c-1.287,0-2.496-0.501-3.404-1.41c-0.908-0.908-1.409-2.117-1.409-3.402c0-1.286,0.501-2.494,1.411-3.403L62.269,5.913c0.908-0.909,2.116-1.41,3.402-1.41s2.495,0.501,3.404,1.411c0.907,0.907,1.408,2.115,1.408,3.401s-0.501,2.494-1.41,3.403L24.174,57.618C23.267,58.526,22.058,59.027,20.771,59.027z M65.671,6.503c-0.751,0-1.457,0.293-1.987,0.824l-44.9,44.899c-0.532,0.531-0.824,1.237-0.824,1.988s0.292,1.457,0.823,1.988c1.063,1.063,2.917,1.063,3.977,0.001l44.9-44.9c0.531-0.531,0.824-1.237,0.824-1.988s-0.292-1.457-0.823-1.986C67.129,6.796,66.422,6.503,65.671,6.503z" fill="#000000" class="color000000 svgShape"></path><path fill="#ffffff" d="M9.329,68.497h15.287c1.551,0,2.813-1.262,2.813-2.813c0-0.044-0.011-0.086-0.013-0.13c-0.695,0.766-1.686,1.255-2.8,1.255H9.329c-1.118,0-2.114-0.492-2.812-1.26v0.135C6.517,67.235,7.778,68.497,9.329,68.497z" class="colorffffff svgShape"></path><path d="M24.616,70.497H9.329c-2.654,0-4.813-2.159-4.813-4.813V50.397c0-2.653,2.159-4.813,4.813-4.813s4.813,2.159,4.813,4.813v10.475h10.475c2.654,0,4.813,2.159,4.813,4.813S27.27,70.497,24.616,70.497z M9.329,47.585c-1.551,0-2.813,1.262-2.813,2.813v15.287c0,1.551,1.262,2.813,2.813,2.813h15.287c1.551,0,2.813-1.262,2.813-2.813s-1.262-2.813-2.813-2.813H13.142c-0.552,0-1-0.447-1-1V50.397C12.142,48.847,10.88,47.585,9.329,47.585z" fill="#000000" class="color000000 svgShape"></path><path fill="#ea4335" d="M295.685-67.429c-1.551,0-2.813,1.262-2.813,2.813v11.475c0,0.553-0.447,1-1,1h-11.475c-1.551,0-2.813,1.262-2.813,2.813s1.262,2.813,2.813,2.813h15.287c1.551,0,2.813-1.262,2.813-2.813v-15.287C298.497-66.167,297.235-67.429,295.685-67.429z" class="coloref3039 svgShape"></path><path fill="#ea4335" d="M241.304-107.659c-0.531-0.532-1.237-0.824-1.988-0.824s-1.457,0.292-1.986,0.823c-0.533,0.532-0.826,1.238-0.826,1.99s0.293,1.457,0.824,1.988l44.899,44.9c1.063,1.063,2.914,1.063,3.977,0.001c0.531-0.531,0.824-1.237,0.824-1.989s-0.292-1.458-0.823-1.987L241.304-107.659z" class="coloref3039 svgShape"></path><path d="M284.215-55.959c-1.286,0-2.494-0.501-3.403-1.41l-44.898-44.899c-0.909-0.908-1.41-2.116-1.41-3.402s0.501-2.495,1.411-3.404c0.907-0.908,2.115-1.409,3.401-1.409s2.494,0.501,3.403,1.411l44.899,44.899c0.908,0.907,1.409,2.115,1.409,3.402s-0.501,2.495-1.41,3.404C286.709-56.459,285.5-55.959,284.215-55.959z M239.315-108.483c-0.751,0-1.457,0.292-1.986,0.823c-0.533,0.532-0.826,1.238-0.826,1.99s0.293,1.457,0.824,1.988l44.899,44.9c1.063,1.063,2.914,1.063,3.977,0.001c0.531-0.531,0.824-1.237,0.824-1.989s-0.292-1.458-0.823-1.987l-44.9-44.9C240.772-108.191,240.066-108.483,239.315-108.483z" fill="#000000" class="color000000 svgShape"></path><path d="M295.685-44.517h-15.287c-2.653,0-4.813-2.159-4.813-4.813s2.159-4.813,4.813-4.813h10.475v-10.475c0-2.653,2.159-4.813,4.813-4.813s4.813,2.159,4.813,4.813v15.287C300.497-46.676,298.338-44.517,295.685-44.517z M280.397-52.142c-1.551,0-2.813,1.262-2.813,2.813s1.262,2.813,2.813,2.813h15.287c1.551,0,2.813-1.262,2.813-2.813v-15.287c0-1.551-1.262-2.813-2.813-2.813s-2.813,1.262-2.813,2.813v11.475c0,0.553-0.447,1-1,1H280.397z" fill="#000000" class="color000000 svgShape"></path><path fill="#ffffff" d="M280.397-46.517h15.287c1.53,0,2.774-1.23,2.807-2.753c-0.698,0.765-1.692,1.253-2.806,1.253h-15.288c-1.12,0-2.114-0.495-2.808-1.268C277.614-47.755,278.862-46.517,280.397-46.517z" class="colorffffff svgShape"></path><path fill="#34a853" d="M-86.787-222.696c-1.063-1.062-2.915-1.062-3.976,0l-10.811,10.81c-0.531,0.532-0.824,1.238-0.824,1.989s0.293,1.457,0.824,1.989c1.062,1.062,2.913,1.063,3.977,0l8.114-8.114c0.195-0.195,0.451-0.293,0.707-0.293s0.512,0.098,0.707,0.293l8.115,8.114c1.062,1.062,2.914,1.063,3.978-0.001c1.095-1.096,1.095-2.88-0.001-3.977L-86.787-222.696z" class="color41d88d svgShape"></path><path fill="#34a853" d="M-88.756-208.603c-1.551,0-2.813,1.262-2.813,2.813v40.572c0,1.551,1.262,2.812,2.813,2.812s2.812-1.261,2.812-2.812v-40.572C-85.944-207.341-87.205-208.603-88.756-208.603z" class="color41d88d svgShape"></path><path d="M-88.756-160.406c-2.654,0-4.813-2.159-4.813-4.812v-40.572c0-2.654,2.159-4.813,4.813-4.813c2.653,0,4.812,2.159,4.812,4.813v40.572C-83.944-162.564-86.103-160.406-88.756-160.406z M-88.756-208.603c-1.551,0-2.813,1.262-2.813,2.813v40.572c0,1.551,1.262,2.812,2.813,2.812s2.812-1.261,2.812-2.812v-40.572C-85.944-207.341-87.205-208.603-88.756-208.603z" fill="#000000" class="color000000 svgShape"></path><path fill="#ffffff" d="M-75.976-207.909c1.095-1.096,1.095-2.88-0.001-3.977l-10.81-10.811c-1.063-1.062-2.915-1.062-3.976,0l-0.281,0.281c0.061-0.003,0.12-0.018,0.182-0.018c1.018,0,1.975,0.396,2.695,1.116l10.811,10.811c0.775,0.775,1.136,1.804,1.102,2.821C-76.16-207.756-76.062-207.823-75.976-207.909z" class="colorffffff svgShape"></path><path d="M-77.965-205.084c-1.286,0-2.494-0.5-3.403-1.41l-7.407-7.407l-7.407,7.407c-0.91,0.909-2.118,1.41-3.403,1.41c-1.286,0-2.494-0.5-3.403-1.41s-1.41-2.118-1.41-3.403s0.501-2.494,1.41-3.403l10.81-10.81c0.908-0.909,2.117-1.41,3.402-1.41c1.285,0,2.493,0.5,3.402,1.409l10.811,10.811c1.875,1.876,1.875,4.929,0.001,6.805C-75.472-205.584-76.681-205.084-77.965-205.084z M-88.775-216.315c0.256,0,0.512,0.098,0.707,0.293l8.115,8.114c1.062,1.062,2.914,1.063,3.978-0.001c1.095-1.096,1.095-2.88-0.001-3.977l-10.81-10.811c-1.063-1.062-2.915-1.062-3.976,0l-10.811,10.81c-0.531,0.532-0.824,1.238-0.824,1.989s0.293,1.457,0.824,1.989c1.062,1.062,2.913,1.063,3.977,0l8.114-8.114C-89.287-216.217-89.031-216.315-88.775-216.315z" fill="#000000" class="color000000 svgShape"></path><path fill="#34a853" d="M-66.203-222.594c-1.551,0-2.813,1.261-2.813,2.812v40.572c0,1.551,1.262,2.813,2.813,2.813s2.812-1.262,2.812-2.813v-40.572C-63.391-221.333-64.652-222.594-66.203-222.594z" class="color41d88d svgShape"></path><path d="M-66.203-174.397c-2.654,0-4.813-2.159-4.813-4.813v-40.572c0-2.653,2.159-4.812,4.813-4.812c2.653,0,4.812,2.159,4.812,4.812v40.572C-61.391-176.556-63.55-174.397-66.203-174.397z M-66.203-222.594c-1.551,0-2.813,1.261-2.813,2.812v40.572c0,1.551,1.262,2.813,2.813,2.813s2.812-1.262,2.812-2.813v-40.572C-63.391-221.333-64.652-222.594-66.203-222.594z" fill="#000000" class="color000000 svgShape"></path><path fill="#34a853" d="M-57.4-177.092l-8.115,8.114c-0.391,0.391-1.023,0.391-1.414,0l-8.114-8.114c-0.532-0.531-1.238-0.824-1.989-0.824c-0.751,0-1.457,0.292-1.988,0.824c-0.532,0.532-0.825,1.238-0.825,1.989s0.293,1.457,0.824,1.989l10.81,10.81c1.062,1.062,2.914,1.063,3.977,0l10.811-10.81c1.096-1.097,1.096-2.881,0-3.977C-54.487-178.154-56.339-178.155-57.4-177.092z" class="color41d88d svgShape"></path><path d="M-66.223-159.481c-1.286,0-2.494-0.5-3.403-1.41l-10.81-10.81c-0.909-0.909-1.41-2.118-1.41-3.403s0.501-2.494,1.41-3.403c0.908-0.909,2.117-1.41,3.402-1.41c1.285,0,2.493,0.5,3.403,1.409l7.407,7.408l7.408-7.407c0.908-0.909,2.117-1.41,3.402-1.41c1.285,0,2.493,0.5,3.403,1.41c1.875,1.876,1.875,4.929,0,6.806L-62.82-160.89C-63.729-159.981-64.938-159.481-66.223-159.481z M-77.033-177.916c-0.751,0-1.457,0.292-1.988,0.824c-0.532,0.532-0.825,1.238-0.825,1.989s0.293,1.457,0.824,1.989l10.81,10.81c1.062,1.062,2.914,1.063,3.977,0l10.811-10.81c1.096-1.097,1.096-2.881,0-3.977c-1.063-1.063-2.915-1.063-3.977,0l-8.115,8.114c-0.391,0.391-1.023,0.391-1.414,0l-8.114-8.114C-75.576-177.624-76.282-177.916-77.033-177.916z" fill="#000000" class="color000000 svgShape"></path><g fill="#000000" class="color000000 svgShape"><path fill="#fbbc05" d="M56.886-168.427l10.81-10.81c0.531-0.531,0.824-1.237,0.824-1.988c0-0.751-0.292-1.457-0.823-1.988l-10.811-10.811c-0.549-0.548-1.269-0.822-1.989-0.822s-1.44,0.274-1.988,0.822c-0.531,0.531-0.824,1.238-0.824,1.989c0,0.751,0.293,1.457,0.824,1.988l8.114,8.115c0.391,0.391,0.391,1.023,0,1.414l-8.114,8.114c-0.531,0.532-0.824,1.238-0.824,1.989c0,0.751,0.293,1.457,0.824,1.988C53.971-167.362,55.821-167.363,56.886-168.427z" class="colorf2bf1c svgShape"></path><path fill="#fbbc05" d="M50.79-184.056H10.218c-1.551,0-2.812,1.261-2.812,2.812s1.261,2.813,2.812,2.813H50.79c1.551,0,2.813-1.262,2.813-2.813S52.341-184.056,50.79-184.056z" class="colorf2bf1c svgShape"></path><path d="M50.79-176.432H10.218c-2.653,0-4.812-2.159-4.812-4.813c0-2.653,2.159-4.812,4.812-4.812H50.79c2.653,0,4.813,2.159,4.813,4.812C55.603-178.59,53.443-176.432,50.79-176.432z M10.218-184.056c-1.551,0-2.812,1.261-2.812,2.812s1.261,2.813,2.812,2.813H50.79c1.551,0,2.813-1.262,2.813-2.813s-1.262-2.812-2.813-2.812H10.218z" fill="#000000" class="color000000 svgShape"></path><path fill="#ffffff" d="M56.886-168.427l10.81-10.81c0.531-0.531,0.824-1.237,0.824-1.988c0-0.751-0.292-1.457-0.823-1.988l-0.158-0.158c0.003,0.062,0.018,0.121,0.018,0.183c0,1.018-0.396,1.976-1.117,2.695l-10.81,10.81c-0.72,0.72-1.677,1.117-2.696,1.117c-0.052,0-0.101-0.014-0.153-0.016c0.044,0.051,0.079,0.107,0.127,0.154C53.971-167.362,55.821-167.363,56.886-168.427z" class="colorffffff svgShape"></path><path d="M54.896-165.602c-1.285,0-2.494-0.501-3.402-1.41c-0.909-0.908-1.41-2.116-1.41-3.402c0-1.285,0.501-2.494,1.41-3.403l7.407-7.407l-7.407-7.408c-0.909-0.908-1.41-2.116-1.41-3.402c0-1.285,0.501-2.493,1.41-3.403c1.875-1.874,4.929-1.875,6.806,0l10.811,10.811c0.909,0.909,1.409,2.118,1.409,3.402c0,1.286-0.501,2.495-1.41,3.403l-10.81,10.81C57.39-166.103,56.182-165.602,54.896-165.602z M54.896-194.845c-0.721,0-1.44,0.274-1.988,0.822c-0.531,0.531-0.824,1.238-0.824,1.989c0,0.751,0.293,1.457,0.824,1.988l8.114,8.115c0.391,0.391,0.391,1.023,0,1.414l-8.114,8.114c-0.531,0.532-0.824,1.238-0.824,1.989c0,0.751,0.293,1.457,0.824,1.988c1.063,1.064,2.913,1.063,3.978,0l10.81-10.81c0.531-0.531,0.824-1.237,0.824-1.988c0-0.751-0.292-1.457-0.823-1.988l-10.811-10.811C56.337-194.571,55.617-194.845,54.896-194.845z" fill="#000000" class="color000000 svgShape"></path><path fill="#f2bb1c" d="M64.782-206.609H24.21c-1.551,0-2.813,1.261-2.813,2.812s1.262,2.813,2.813,2.813h40.572c1.55,0,2.812-1.262,2.812-2.813S66.332-206.609,64.782-206.609z" class="colorf28c1c svgShape"></path><path d="M64.782-198.984H24.21c-2.654,0-4.813-2.159-4.813-4.813c0-2.653,2.159-4.812,4.813-4.812h40.572c2.653,0,4.812,2.159,4.812,4.812C69.594-201.143,67.436-198.984,64.782-198.984z M24.21-206.609c-1.551,0-2.813,1.261-2.813,2.812s1.262,2.813,2.813,2.813h40.572c1.55,0,2.812-1.262,2.812-2.813s-1.262-2.812-2.812-2.812H24.21z" fill="#000000" class="color000000 svgShape"></path><path fill="#f2bb1c" d="M22.091-216.577c-0.547-0.547-1.268-0.821-1.987-0.821c-0.721,0-1.441,0.274-1.989,0.822l-10.811,10.81c-0.531,0.531-0.823,1.237-0.823,1.988c0,0.751,0.292,1.457,0.824,1.988l10.81,10.811c1.063,1.063,2.914,1.063,3.978,0c0.531-0.531,0.824-1.237,0.824-1.988c0-0.751-0.292-1.457-0.824-1.989l-8.114-8.114c-0.391-0.391-0.391-1.023,0-1.414l8.114-8.115c0.531-0.531,0.824-1.237,0.824-1.988C22.916-215.338,22.623-216.045,22.091-216.577z" class="colorf28c1c svgShape"></path><path d="M20.104-188.155c-1.285,0-2.494-0.501-3.403-1.41l-10.81-10.81c-0.909-0.908-1.41-2.117-1.41-3.402c0-1.285,0.5-2.493,1.409-3.402l10.811-10.811c1.877-1.875,4.929-1.875,6.805-0.001c0.91,0.911,1.41,2.119,1.41,3.404c0,1.286-0.5,2.494-1.41,3.403l-7.407,7.407l7.407,7.407c0.909,0.91,1.41,2.118,1.41,3.403c0,1.286-0.5,2.494-1.41,3.403S21.389-188.155,20.104-188.155z M20.104-217.398c-0.721,0-1.441,0.274-1.989,0.822l-10.811,10.81c-0.531,0.531-0.823,1.237-0.823,1.988c0,0.751,0.292,1.457,0.824,1.988l10.81,10.811c1.063,1.063,2.914,1.063,3.978,0c0.531-0.531,0.824-1.237,0.824-1.988c0-0.751-0.292-1.457-0.824-1.989l-8.114-8.114c-0.391-0.391-0.391-1.023,0-1.414l8.114-8.115c0.531-0.531,0.824-1.237,0.824-1.988c0-0.751-0.293-1.458-0.825-1.989C21.544-217.124,20.824-217.398,20.104-217.398z" fill="#000000" class="color000000 svgShape"></path></g><g fill="#000000" class="color000000 svgShape"><path fill="#4285f4" d="M-180.492-212.536l-10.168-10.168c-0.976-0.976-2.681-0.975-3.655,0l-10.168,10.168c-0.489,0.489-0.758,1.138-0.758,1.829s0.269,1.34,0.758,1.829c0.977,0.977,2.679,0.977,3.657,0l7.632-7.631c0.195-0.195,0.451-0.293,0.707-0.293s0.512,0.098,0.707,0.293l7.632,7.632c0.976,0.977,2.678,0.978,3.658-0.001C-179.484-209.888-179.484-211.528-180.492-212.536z" class="color37c3f4 svgShape"></path><path fill="#4285f4" d="M-175.691-192.481c0-1.426-1.16-2.586-2.586-2.586h-10.618c-0.265,0-0.52-0.105-0.707-0.293s-0.312-0.461-0.312-0.726v-10.618c0-1.426-1.16-2.586-2.586-2.586s-2.586,1.16-2.586,2.586v10.618c0,0.265-0.105,0.52-0.293,0.707s-0.461,0.312-0.726,0.312h-10.618c-1.426,0-2.586,1.16-2.586,2.586s1.16,2.586,2.586,2.586h10.618c0.27,0,0.528,0.109,0.716,0.302c0.182,0.187,0.303,0.457,0.303,0.718v10.618c0,1.426,1.16,2.586,2.586,2.586s2.586-1.16,2.586-2.586v-10.618c0-0.261,0.102-0.511,0.284-0.698l0.019-0.02c0.188-0.193,0.446-0.302,0.716-0.302h10.618C-176.851-189.895-175.691-191.055-175.691-192.481z" class="color37c3f4 svgShape"></path><path d="M-192.5-173.672c-2.529,0-4.586-2.057-4.586-4.586v-9.637h-9.637c-2.529,0-4.586-2.057-4.586-4.586s2.057-4.586,4.586-4.586h9.637v-9.637c0-2.529,2.057-4.586,4.586-4.586s4.586,2.057,4.586,4.586v9.637h9.637c2.529,0,4.586,2.057,4.586,4.586s-2.057,4.586-4.586,4.586h-9.637v9.637C-187.914-175.729-189.971-173.672-192.5-173.672z M-206.723-195.067c-1.426,0-2.586,1.16-2.586,2.586s1.16,2.586,2.586,2.586h10.618c0.27,0,0.528,0.109,0.716,0.302c0.182,0.187,0.303,0.457,0.303,0.718v10.618c0,1.426,1.16,2.586,2.586,2.586s2.586-1.16,2.586-2.586v-10.618c0-0.261,0.102-0.511,0.284-0.698l0.019-0.02c0.188-0.193,0.446-0.302,0.716-0.302h10.618c1.426,0,2.586-1.16,2.586-2.586s-1.16-2.586-2.586-2.586h-10.618c-0.265,0-0.52-0.105-0.707-0.293s-0.312-0.461-0.312-0.726v-10.618c0-1.426-1.16-2.586-2.586-2.586s-2.586,1.16-2.586,2.586v10.618c0,0.265-0.105,0.52-0.293,0.707s-0.461,0.312-0.726,0.312H-206.723z" fill="#000000" class="color000000 svgShape"></path><path fill="#4285f4" d="M-208.85-184.125l-7.631-7.632c-0.391-0.391-0.391-1.023,0-1.414l7.631-7.632c0.489-0.489,0.758-1.138,0.758-1.829s-0.269-1.34-0.758-1.829c-0.488-0.488-1.137-0.757-1.828-0.757c-0.69,0-1.34,0.269-1.829,0.758l-10.168,10.167c-1.007,1.008-1.007,2.648,0,3.656l10.167,10.168c0.979,0.978,2.681,0.975,3.656,0.001c0.49-0.489,0.759-1.139,0.759-1.829S-208.361-183.636-208.85-184.125z" class="color37c3f4 svgShape"></path><path d="M-210.678-177.71c-1.224,0-2.375-0.477-3.243-1.343l-10.167-10.168c-1.788-1.788-1.788-4.696,0-6.484l10.168-10.168c0.867-0.866,2.019-1.343,3.243-1.343c1.225,0,2.377,0.477,3.243,1.343c0.866,0.866,1.343,2.018,1.343,3.243c0,1.225-0.478,2.376-1.344,3.243l-6.924,6.924l6.924,6.925c0.867,0.866,1.344,2.018,1.344,3.243c0,1.225-0.478,2.376-1.344,3.243C-208.301-178.187-209.452-177.71-210.678-177.71z M-210.678-205.217c-0.69,0-1.34,0.269-1.829,0.758l-10.168,10.167c-1.007,1.008-1.007,2.648,0,3.656l10.167,10.168c0.979,0.978,2.681,0.975,3.656,0.001c0.49-0.489,0.759-1.139,0.759-1.829s-0.269-1.34-0.758-1.829l-7.631-7.632c-0.391-0.391-0.391-1.023,0-1.414l7.631-7.632c0.489-0.489,0.758-1.138,0.758-1.829s-0.269-1.34-0.758-1.829C-209.338-204.948-209.987-205.217-210.678-205.217z" fill="#000000" class="color000000 svgShape"></path><path fill="#4285f4" d="M-162.326-190.636c1.008-1.008,1.008-2.648,0-3.657l-10.168-10.168c-0.488-0.488-1.138-0.757-1.828-0.757c-0.691,0-1.34,0.269-1.828,0.757c-0.489,0.489-0.758,1.138-0.758,1.829s0.269,1.339,0.758,1.828l7.631,7.633c0.391,0.391,0.391,1.023,0,1.414l-7.631,7.632c-0.489,0.489-0.758,1.138-0.758,1.829s0.269,1.339,0.757,1.827c0.978,0.979,2.679,0.98,3.657,0L-162.326-190.636z" class="color37c3f4 svgShape"></path><path d="M-174.322-177.71c-1.226,0-2.377-0.478-3.243-1.345c-0.866-0.865-1.343-2.016-1.343-3.241c0-1.225,0.477-2.376,1.344-3.243l6.924-6.925l-6.924-6.925c-0.867-0.866-1.344-2.017-1.344-3.242c0-1.225,0.477-2.376,1.344-3.243c0.865-0.866,2.017-1.343,3.242-1.343c1.224,0,2.375,0.477,3.242,1.342l10.168,10.168c1.788,1.788,1.788,4.697,0,6.485l-10.167,10.168C-171.947-178.187-173.098-177.71-174.322-177.71z M-174.322-205.217c-0.691,0-1.34,0.269-1.828,0.757c-0.489,0.489-0.758,1.138-0.758,1.829s0.269,1.339,0.758,1.828l7.631,7.633c0.391,0.391,0.391,1.023,0,1.414l-7.631,7.632c-0.489,0.489-0.758,1.138-0.758,1.829s0.269,1.339,0.757,1.827c0.978,0.979,2.679,0.98,3.657,0l10.167-10.167c1.008-1.008,1.008-2.648,0-3.657l-10.168-10.168C-172.982-204.948-173.632-205.217-174.322-205.217z" fill="#000000" class="color000000 svgShape"></path><path fill="#4285f4" d="M-180.492-172.464c1.008-1.008,1.008-2.648,0-3.657c-0.979-0.977-2.682-0.976-3.656,0l-7.633,7.632c-0.391,0.391-1.023,0.391-1.414,0l-7.633-7.632c-0.488-0.488-1.138-0.757-1.828-0.757s-1.34,0.269-1.828,0.757c-0.489,0.489-0.758,1.138-0.758,1.829s0.269,1.339,0.758,1.828l10.168,10.168c0.975,0.976,2.68,0.977,3.656,0L-180.492-172.464z" class="color37c3f4 svgShape"></path><path d="M-192.488-159.539c-1.226,0-2.377-0.477-3.243-1.344l-10.167-10.167c-0.867-0.866-1.344-2.017-1.344-3.242c0-1.225,0.477-2.376,1.344-3.243c0.866-0.866,2.018-1.343,3.242-1.343c1.224,0,2.375,0.477,3.242,1.342l6.926,6.926l6.925-6.925c0.865-0.866,2.017-1.343,3.242-1.343c1.224,0,2.375,0.477,3.242,1.342c1.789,1.789,1.789,4.698,0.001,6.486l-10.168,10.168C-190.112-160.016-191.263-159.539-192.488-159.539z M-202.656-176.878c-0.69,0-1.34,0.269-1.828,0.757c-0.489,0.489-0.758,1.138-0.758,1.829s0.269,1.339,0.758,1.828l10.168,10.168c0.975,0.976,2.68,0.977,3.656,0l10.168-10.168c1.008-1.008,1.008-2.648,0-3.657c-0.979-0.977-2.682-0.976-3.656,0l-7.633,7.632c-0.391,0.391-1.023,0.391-1.414,0l-7.633-7.632C-201.316-176.609-201.965-176.878-202.656-176.878z" fill="#000000" class="color000000 svgShape"></path><path fill="#ffffff" d="M-180.491-208.88c1.007-1.007,1.007-2.648-0.001-3.656l-10.168-10.168c-0.976-0.976-2.681-0.975-3.655,0l-0.161,0.161c0.047-0.002,0.091-0.014,0.139-0.014c0.958,0,1.858,0.373,2.535,1.05l10.168,10.169c0.701,0.701,1.042,1.622,1.039,2.543C-180.562-208.826-180.523-208.848-180.491-208.88z" class="colorffffff svgShape"></path><path d="M-182.32-206.122c-1.225,0-2.377-0.477-3.243-1.343l-6.925-6.925l-6.925,6.925c-0.867,0.866-2.019,1.343-3.243,1.343c-1.225,0-2.376-0.477-3.242-1.343c-0.867-0.866-1.344-2.018-1.344-3.243c0-1.225,0.478-2.376,1.344-3.243l10.167-10.167c0.865-0.866,2.016-1.343,3.242-1.343c1.225,0,2.376,0.477,3.242,1.343l10.168,10.168c1.788,1.788,1.788,4.696,0,6.484C-179.945-206.599-181.097-206.122-182.32-206.122z M-192.488-216.804c0.256,0,0.512,0.098,0.707,0.293l7.632,7.632c0.976,0.977,2.678,0.978,3.658-0.001c1.007-1.007,1.007-2.648-0.001-3.656l-10.168-10.168c-0.976-0.976-2.681-0.975-3.655,0l-10.168,10.168c-0.489,0.489-0.758,1.138-0.758,1.829s0.269,1.34,0.758,1.829c0.977,0.977,2.679,0.977,3.657,0l7.632-7.631C-193-216.707-192.744-216.804-192.488-216.804z" fill="#000000" class="color000000 svgShape"></path></g><g fill="#000000" class="color000000 svgShape"><path fill="#f2bb1c" d="M-83.663,128.099c-1.551,0-2.813,1.262-2.813,2.813v11.476c0,0.553-0.448,1-1,1h-11.476c-1.551,0-2.813,1.262-2.813,2.813s1.262,2.813,2.813,2.813h15.288c1.551,0,2.813-1.262,2.813-2.813v-15.288C-80.851,129.36-82.112,128.099-83.663,128.099z" class="colorf28c1c svgShape"></path><path fill="#fbbc05" d="M-71.337,128.099c-1.551,0-2.813,1.262-2.813,2.813v15.288c0,1.551,1.262,2.813,2.813,2.813h15.288c1.551,0,2.813-1.262,2.813-2.813s-1.262-2.813-2.813-2.813h-11.476c-0.552,0-1-0.447-1-1v-11.476C-68.524,129.36-69.786,128.099-71.337,128.099z" class="colorf2bf1c svgShape"></path><path fill="#f2bb1c" d="M-58.998,166.941c-1.056-1.055-2.897-1.063-3.961-0.014c-0.494,0.486-0.768,1.169-0.771,1.922c-0.003,0.832,0.322,1.637,0.893,2.207l11.591,11.592c0.335,0.336,0.674,0.563,1.009,0.678c1.147,0.393,2.341,0.091,3.115-0.784c0.915-1.034,0.785-2.939-0.273-3.997L-58.998,166.941z" class="colorf28c1c svgShape"></path><path d="M-49.224,185.499c-0.548,0-1.107-0.092-1.659-0.28c0,0,0,0-0.001,0c-0.626-0.215-1.224-0.604-1.776-1.157l-11.59-11.591c-0.945-0.944-1.484-2.267-1.479-3.629c0.005-1.29,0.49-2.476,1.367-3.34c0.906-0.892,2.105-1.383,3.377-1.383c1.285,0,2.493,0.5,3.401,1.407l11.604,11.604c1.816,1.816,1.98,4.901,0.357,6.735C-46.563,184.931-47.859,185.499-49.224,185.499z M-50.236,183.326c1.147,0.393,2.341,0.091,3.115-0.784c0.915-1.034,0.785-2.939-0.273-3.997l-11.604-11.604c-1.056-1.055-2.897-1.063-3.961-0.014c-0.494,0.486-0.768,1.169-0.771,1.922c-0.003,0.832,0.322,1.637,0.893,2.207l11.591,11.592C-50.91,182.984-50.571,183.212-50.236,183.326L-50.236,183.326z" fill="#000000" class="color000000 svgShape"></path><path fill="#f2bb1c" d="M-55.911,155.851h-15.288c-1.551,0-2.813,1.262-2.813,2.813v15.288c0,1.551,1.262,2.813,2.813,2.813s2.813-1.262,2.813-2.813v-11.476c0-0.553,0.448-1,1-1h11.475c1.551,0,2.813-1.262,2.813-2.813S-54.36,155.851-55.911,155.851z" class="colorf28c1c svgShape"></path><path d="M-71.199,178.764c-2.654,0-4.813-2.159-4.813-4.813v-15.288c0-2.653,2.159-4.813,4.813-4.813h15.288c2.654,0,4.813,2.159,4.813,4.813s-2.159,4.813-4.813,4.813h-10.475v10.476C-66.386,176.604-68.545,178.764-71.199,178.764z M-71.199,155.851c-1.551,0-2.813,1.262-2.813,2.813v15.288c0,1.551,1.262,2.813,2.813,2.813s2.813-1.262,2.813-2.813v-11.476c0-0.553,0.448-1,1-1h11.475c1.551,0,2.813-1.262,2.813-2.813s-1.262-2.813-2.813-2.813H-71.199z" fill="#000000" class="color000000 svgShape"></path><path fill="#f2bb1c" d="M-103.545,122.394c-1.077-1.075-2.944-1.202-3.998-0.272c-0.875,0.773-1.175,1.968-0.784,3.116c0.114,0.333,0.342,0.672,0.677,1.008l11.592,11.592c0.571,0.57,1.388,0.856,2.209,0.893c0.752-0.003,1.435-0.277,1.921-0.771c0.521-0.529,0.808-1.23,0.808-1.974c0-0.75-0.292-1.456-0.823-1.987L-103.545,122.394z" class="colorf28c1c svgShape"></path><path d="M-93.861,140.729c-1.355,0-2.669-0.538-3.61-1.479l-11.592-11.592c-0.554-0.554-0.942-1.15-1.156-1.775c0,0,0,0,0-0.001c-0.657-1.927-0.139-3.942,1.352-5.26c1.836-1.622,4.919-1.459,6.736,0.356l11.604,11.604c0.908,0.909,1.408,2.117,1.408,3.401c0,1.271-0.491,2.471-1.383,3.377c-0.863,0.876-2.048,1.361-3.338,1.367C-93.847,140.729-93.854,140.729-93.861,140.729z M-108.326,125.237c0.114,0.333,0.342,0.672,0.677,1.008l11.592,11.592c0.571,0.57,1.388,0.856,2.209,0.893c0.752-0.003,1.435-0.277,1.921-0.771c0.521-0.529,0.808-1.23,0.808-1.974c0-0.75-0.292-1.456-0.823-1.987l-11.603-11.604c-1.077-1.075-2.944-1.202-3.998-0.272C-108.417,122.895-108.717,124.089-108.326,125.237L-108.326,125.237z" fill="#000000" class="color000000 svgShape"></path><path fill="#ffffff" d="M-98.951,149.012h15.288c1.549,0,2.809-1.259,2.812-2.807c-0.698,0.768-1.695,1.26-2.812,1.26h-15.288c-1.122,0-2.118-0.497-2.812-1.273c0,0.003-0.001,0.005-0.001,0.007C-101.764,147.75-100.502,149.012-98.951,149.012z" class="colorffffff svgShape"></path><path d="M-83.663,151.012h-15.288c-2.654,0-4.813-2.159-4.813-4.813s2.159-4.813,4.813-4.813h10.476v-10.476c0-2.653,2.159-4.813,4.813-4.813s4.813,2.159,4.813,4.813v15.288C-78.851,148.853-81.009,151.012-83.663,151.012z M-98.951,143.387c-1.551,0-2.813,1.262-2.813,2.813s1.262,2.813,2.813,2.813h15.288c1.551,0,2.813-1.262,2.813-2.813v-15.288c0-1.551-1.262-2.813-2.813-2.813s-2.813,1.262-2.813,2.813v11.476c0,0.553-0.448,1-1,1H-98.951z" fill="#000000" class="color000000 svgShape"></path><path fill="#fbbc05" d="M-94.015,166.119c-0.751,0-1.457,0.292-1.988,0.823l-11.603,11.603c-1.058,1.058-1.188,2.963-0.273,3.997c0.775,0.875,1.968,1.176,3.115,0.784c0.335-0.114,0.674-0.342,1.008-0.677l11.592-11.593c0.571-0.57,0.896-1.375,0.893-2.207c-0.003-0.753-0.276-1.436-0.771-1.922C-92.57,166.406-93.271,166.119-94.015,166.119z" class="colorf2bf1c svgShape"></path><path d="M-105.776,185.499c-1.365,0-2.66-0.568-3.601-1.633c-1.623-1.834-1.459-4.919,0.357-6.735l11.604-11.604c0.909-0.908,2.117-1.408,3.402-1.408c1.271,0,2.471,0.491,3.377,1.383c0.877,0.864,1.362,2.05,1.367,3.34c0.005,1.362-0.534,2.685-1.479,3.629l-11.591,11.592c-0.551,0.553-1.149,0.941-1.775,1.156c0,0-0.001,0-0.001,0C-104.669,185.407-105.229,185.499-105.776,185.499z M-94.015,166.119c-0.751,0-1.457,0.292-1.988,0.823l-11.603,11.603c-1.058,1.058-1.188,2.963-0.273,3.997c0.775,0.875,1.968,1.176,3.115,0.784l0,0c0.335-0.114,0.674-0.342,1.008-0.677l11.592-11.593c0.571-0.57,0.896-1.375,0.893-2.207c-0.003-0.753-0.276-1.436-0.771-1.922C-92.57,166.406-93.271,166.119-94.015,166.119z" fill="#000000" class="color000000 svgShape"></path><path fill="#fbbc05" d="M-80.989,158.663c0-1.551-1.262-2.813-2.813-2.813h-15.288c-1.551,0-2.813,1.262-2.813,2.813s1.262,2.813,2.813,2.813h11.475c0.552,0,1,0.447,1,1v11.476c0,1.551,1.262,2.813,2.813,2.813s2.813-1.262,2.813-2.813V158.663z" class="colorf2bf1c svgShape"></path><path d="M-83.801,178.764c-2.654,0-4.813-2.159-4.813-4.813v-10.476h-10.475c-2.654,0-4.813-2.159-4.813-4.813s2.159-4.813,4.813-4.813h15.288c2.654,0,4.813,2.159,4.813,4.813v15.288C-78.989,176.604-81.147,178.764-83.801,178.764z M-99.089,155.851c-1.551,0-2.813,1.262-2.813,2.813s1.262,2.813,2.813,2.813h11.475c0.552,0,1,0.447,1,1v11.476c0,1.551,1.262,2.813,2.813,2.813s2.813-1.262,2.813-2.813v-15.288c0-1.551-1.262-2.813-2.813-2.813H-99.089z" fill="#000000" class="color000000 svgShape"></path><path fill="#fbbc05" d="M-49.229,121.498c-0.803,0-1.634,0.305-2.226,0.896l-11.604,11.604c-0.53,0.531-0.822,1.237-0.822,1.987c0,0.743,0.287,1.444,0.808,1.973c0.486,0.494,1.168,0.769,1.921,0.771c0.814-0.022,1.638-0.322,2.209-0.893l11.592-11.592c0.335-0.336,0.563-0.675,0.677-1.008c0.391-1.148,0.091-2.343-0.784-3.116C-47.932,121.702-48.571,121.498-49.229,121.498z" class="colorf2bf1c svgShape"></path><path d="M-61.139,140.729c-0.007,0-0.014,0-0.021,0c-1.29-0.006-2.475-0.491-3.338-1.368c-0.892-0.905-1.383-2.104-1.383-3.376c0-1.284,0.5-2.492,1.408-3.401l11.604-11.604c1.816-1.816,4.901-1.979,6.736-0.356c1.491,1.317,2.009,3.333,1.352,5.26c0,0.001,0,0.001,0,0.001c-0.213,0.625-0.602,1.222-1.156,1.775l-11.592,11.592C-58.47,140.191-59.784,140.729-61.139,140.729z M-49.229,121.498c-0.803,0-1.634,0.305-2.226,0.896l-11.604,11.604c-0.53,0.531-0.822,1.237-0.822,1.987c0,0.743,0.287,1.444,0.808,1.973c0.486,0.494,1.168,0.769,1.921,0.771c0.814-0.022,1.638-0.322,2.209-0.893l11.592-11.592c0.335-0.336,0.563-0.675,0.677-1.008c0.391-1.148,0.091-2.343-0.784-3.116C-47.932,121.702-48.571,121.498-49.229,121.498z" fill="#000000" class="color000000 svgShape"></path><path fill="#ffffff" d="M-71.337,149.012h15.288c1.551,0,2.813-1.262,2.813-2.813c0-0.088-0.018-0.17-0.026-0.256c-0.695,0.754-1.682,1.235-2.787,1.235h-15.288c-1.118,0-2.115-0.492-2.812-1.261v0.282C-74.149,147.75-72.888,149.012-71.337,149.012z" class="colorffffff svgShape"></path><path d="M-56.049,151.012h-15.288c-2.654,0-4.813-2.159-4.813-4.813v-15.288c0-2.653,2.159-4.813,4.813-4.813s4.813,2.159,4.813,4.813v10.476h10.476c2.654,0,4.813,2.159,4.813,4.813S-53.395,151.012-56.049,151.012z M-71.337,128.099c-1.551,0-2.813,1.262-2.813,2.813v15.288c0,1.551,1.262,2.813,2.813,2.813h15.288c1.551,0,2.813-1.262,2.813-2.813s-1.262-2.813-2.813-2.813h-11.476c-0.552,0-1-0.447-1-1v-11.476C-68.524,129.36-69.786,128.099-71.337,128.099z" fill="#000000" class="color000000 svgShape"></path></g><g fill="#000000" class="color000000 svgShape"><path fill="#ea4335" d="M272.621,129.141c-1.551,0-2.813,1.262-2.813,2.813v15.288c0,1.551,1.262,2.813,2.813,2.813h15.288c1.551,0,2.813-1.262,2.813-2.813s-1.262-2.813-2.813-2.813h-11.476c-0.553,0-1-0.447-1-1v-11.476C275.434,130.402,274.172,129.141,272.621,129.141z" class="coloref3039 svgShape"></path><path fill="#cc1506" d="M262.241,175.722c1.551,0,2.813-1.262,2.813-2.813v-15.288c0-1.551-1.262-2.813-2.813-2.813h-15.288c-1.551,0-2.813,1.262-2.813,2.813s1.262,2.813,2.813,2.813h11.476c0.553,0,1,0.447,1,1v11.476C259.429,174.46,260.69,175.722,262.241,175.722z" class="colorcc060e svgShape"></path><path fill="#cc1506" d="M252.853,171.041c0.57-0.57,0.896-1.375,0.893-2.207c-0.003-0.753-0.276-1.436-0.771-1.923c-0.529-0.521-1.23-0.809-1.973-0.809c-0.751,0-1.457,0.292-1.988,0.823l-11.604,11.604c-1.058,1.058-1.188,2.962-0.272,3.996c0.773,0.877,1.97,1.175,3.115,0.784c0.001,0,0.001,0,0.001,0c0.332-0.113,0.671-0.341,1.007-0.677L252.853,171.041z" class="colorcc060e svgShape"></path><path d="M239.238,185.482c-1.364,0-2.659-0.568-3.599-1.632c-1.624-1.835-1.461-4.92,0.356-6.735l11.604-11.604c0.909-0.908,2.117-1.408,3.402-1.408c1.271,0,2.471,0.491,3.377,1.384c0.876,0.864,1.361,2.05,1.366,3.34c0.005,1.361-0.533,2.685-1.479,3.629l-11.592,11.592c-0.555,0.555-1.152,0.943-1.776,1.155C240.346,185.391,239.786,185.482,239.238,185.482z M251.002,166.103c-0.751,0-1.457,0.292-1.988,0.823l-11.604,11.604c-1.058,1.058-1.188,2.962-0.272,3.996c0.773,0.877,1.97,1.175,3.115,0.784c0.001,0,0.001,0,0.001,0c0.332-0.113,0.671-0.341,1.007-0.677l11.592-11.592c0.57-0.57,0.896-1.375,0.893-2.207c-0.003-0.753-0.276-1.436-0.771-1.923C252.445,166.39,251.744,166.103,251.002,166.103z" fill="#000000" class="color000000 svgShape"></path><path fill="#ffffff" d="M262.241,154.809h-15.288c-1.551,0-2.813,1.262-2.813,2.813c0,0.007,0.002,0.014,0.002,0.021c0.694-0.775,1.69-1.271,2.811-1.271h15.288c1.118,0,2.115,0.492,2.813,1.261v-0.01C265.054,156.07,263.792,154.809,262.241,154.809z" class="colorffffff svgShape"></path><path d="M262.241,177.722c-2.653,0-4.813-2.159-4.813-4.813v-10.476h-10.476c-2.653,0-4.813-2.159-4.813-4.813s2.159-4.813,4.813-4.813h15.288c2.653,0,4.813,2.159,4.813,4.813v15.288C267.054,175.563,264.895,177.722,262.241,177.722z M246.953,154.809c-1.551,0-2.813,1.262-2.813,2.813s1.262,2.813,2.813,2.813h11.476c0.553,0,1,0.447,1,1v11.476c0,1.551,1.262,2.813,2.813,2.813s2.813-1.262,2.813-2.813v-15.288c0-1.551-1.262-2.813-2.813-2.813H246.953z" fill="#000000" class="color000000 svgShape"></path><path fill="#ea4335" d="M295.761,121.526c-0.81,0-1.649,0.301-2.231,0.884l-11.604,11.604c-0.53,0.531-0.822,1.237-0.822,1.988c0,0.742,0.287,1.443,0.81,1.973c0.486,0.494,1.169,0.768,1.922,0.771c0.004,0,0.008,0,0.012,0c0.828,0,1.627-0.325,2.195-0.893l11.592-11.592c0.336-0.336,0.563-0.675,0.677-1.007c0,0,0,0,0-0.001c0.392-1.147,0.092-2.342-0.783-3.115C297.062,121.727,296.421,121.526,295.761,121.526z" class="coloref3039 svgShape"></path><path d="M283.845,140.745c-0.006,0-0.013,0-0.019,0c-1.29-0.005-2.476-0.49-3.339-1.366c-0.894-0.906-1.385-2.105-1.385-3.377c0-1.285,0.5-2.493,1.407-3.402l11.605-11.604c1.815-1.817,4.9-1.981,6.736-0.356c1.49,1.317,2.008,3.332,1.351,5.259l0,0c-0.212,0.624-0.601,1.222-1.155,1.776l-11.592,11.592C286.515,140.207,285.2,140.745,283.845,140.745z M295.761,121.526c-0.81,0-1.649,0.301-2.231,0.884l-11.604,11.604c-0.53,0.531-0.822,1.237-0.822,1.988c0,0.742,0.287,1.443,0.81,1.973c0.486,0.494,1.169,0.768,1.922,0.771c0.004,0,0.008,0,0.012,0c0.828,0,1.627-0.325,2.195-0.893l11.592-11.592c0.336-0.336,0.563-0.675,0.677-1.007c0,0,0,0,0-0.001c0.392-1.147,0.092-2.342-0.783-3.115C297.062,121.727,296.421,121.526,295.761,121.526z" fill="#000000" class="color000000 svgShape"></path><path fill="#ffffff" d="M272.621,150.054h15.288c1.551,0,2.813-1.262,2.813-2.813c0-0.112-0.02-0.219-0.033-0.327c-0.696,0.748-1.68,1.223-2.78,1.223h-15.288c-1.117,0-2.114-0.492-2.812-1.26v0.365C269.809,148.792,271.07,150.054,272.621,150.054z" class="colorffffff svgShape"></path><path d="M287.909,152.054h-15.288c-2.653,0-4.813-2.159-4.813-4.813v-15.288c0-2.653,2.159-4.813,4.813-4.813s4.813,2.159,4.813,4.813v10.476h10.476c2.653,0,4.813,2.159,4.813,4.813S290.563,152.054,287.909,152.054z M272.621,129.141c-1.551,0-2.813,1.262-2.813,2.813v15.288c0,1.551,1.262,2.813,2.813,2.813h15.288c1.551,0,2.813-1.262,2.813-2.813s-1.262-2.813-2.813-2.813h-11.476c-0.553,0-1-0.447-1-1v-11.476C275.434,130.402,274.172,129.141,272.621,129.141z" fill="#000000" class="color000000 svgShape"></path></g><g fill="#000000" class="color000000 svgShape"><path fill="#f2bb1c" d="M-57.715-327.575l-10.18-10.166c-0.472-0.472-1.099-0.731-1.767-0.731c-0.669,0-1.297,0.261-1.77,0.734c-0.974,0.976-0.973,2.563,0.002,3.537l7.702,7.692c0.391,0.39,0.391,1.023,0.001,1.414l-7.692,7.703c-0.471,0.472-0.729,1.1-0.729,1.769c0.001,0.669,0.261,1.296,0.733,1.767c0.945,0.945,2.593,0.944,3.536-0.001l10.167-10.181C-56.738-325.014-56.739-326.6-57.715-327.575z" class="colorf28c1c svgShape"></path><path fill="#ffffff" d="M-57.712-324.038c0.974-0.976,0.973-2.562-0.002-3.537l-10.18-10.166c-0.472-0.472-1.099-0.731-1.767-0.731c-0.669,0-1.297,0.261-1.77,0.734c-0.035,0.035-0.059,0.075-0.091,0.112c0.006,0,0.011-0.002,0.017-0.002c0.935,0,1.813,0.363,2.473,1.023l10.18,10.166c0.694,0.693,1.032,1.608,1.021,2.519L-57.712-324.038z" class="colorffffff svgShape"></path><path d="M-65.848-325.8l-6.986,6.996c-0.848,0.85-1.315,1.98-1.314,3.183c0.001,1.204,0.47,2.333,1.319,3.181c0.849,0.849,1.979,1.317,3.18,1.317c1.204,0,2.334-0.469,3.185-1.32l10.167-10.181c1.753-1.755,1.752-4.611-0.004-6.365l-10.18-10.166c-0.849-0.849-1.979-1.316-3.181-1.316c-1.204,0-2.334,0.469-3.185,1.321c-1.753,1.756-1.751,4.611,0.004,6.365L-65.848-325.8z M-71.432-337.738c0.473-0.473,1.101-0.734,1.77-0.734c0.668,0,1.295,0.259,1.767,0.731l10.18,10.166c0.976,0.975,0.977,2.561,0.002,3.537l-10.167,10.181c-0.943,0.945-2.591,0.947-3.536,0.001c-0.472-0.471-0.732-1.098-0.733-1.767c0-0.669,0.258-1.297,0.729-1.769l7.692-7.703c0.39-0.391,0.39-1.024-0.001-1.414l-7.702-7.692C-72.405-335.175-72.406-336.762-71.432-337.738z" fill="#000000" class="color000000 svgShape"></path><path fill="#f2bb1c" d="M-52.561-296.507c-0.357-0.634-0.968-1.094-1.674-1.263c-1.294-0.309-2.667,0.466-3.08,1.748c-2.752,8.542-10.636,14.281-19.617,14.281c-0.001,0-0.001,0-0.002,0c-2.387,0-4.757-0.417-7.046-1.24c-8.981-3.228-14.626-12.443-13.421-21.914c1.291-10.147,9.949-17.922,20.139-18.087c1.157-0.018,2.167-0.821,2.457-1.954c0.201-0.784,0.032-1.599-0.463-2.238c-0.51-0.657-1.274-1.019-2.153-1.019c-12.308,0.216-22.812,9.211-24.958,21.389c-2.254,12.795,5.41,25.315,17.829,29.122c2.497,0.765,5.066,1.152,7.636,1.152h0.002c11.255-0.001,21.127-7.201,24.564-17.917C-52.13-295.127-52.207-295.879-52.561-296.507z" class="colorf28c1c svgShape"></path><path d="M-50.819-297.489c-0.63-1.117-1.706-1.929-2.953-2.226c-0.348-0.083-0.706-0.125-1.064-0.125c-2.003,0-3.765,1.288-4.383,3.205c-2.485,7.713-9.604,12.895-17.714,12.895c0,0-0.001,0-0.002,0c-2.156,0-4.299-0.377-6.37-1.122c-8.107-2.913-13.201-11.232-12.114-19.78c1.166-9.167,8.985-16.191,18.187-16.339c2.055-0.033,3.849-1.454,4.363-3.457c0.355-1.387,0.057-2.831-0.82-3.961c-0.897-1.156-2.223-1.792-3.751-1.792c-13.28,0.232-24.598,9.923-26.911,23.042c-2.429,13.788,5.831,27.279,19.212,31.381c2.688,0.823,5.454,1.24,8.222,1.24h0.002c12.128-0.001,22.765-7.759,26.468-19.305C-50.056-295.043-50.192-296.376-50.819-297.489z M-52.35-294.445c-3.438,10.716-13.309,17.916-24.564,17.917h-0.002c-2.569,0-5.139-0.388-7.636-1.152c-12.418-3.807-20.083-16.327-17.829-29.122c2.147-12.178,12.651-21.173,24.958-21.389c0.879,0,1.644,0.362,2.153,1.019c0.495,0.639,0.664,1.454,0.463,2.238c-0.29,1.132-1.3,1.936-2.457,1.954c-10.19,0.165-18.848,7.94-20.139,18.087c-1.205,9.47,4.44,18.686,13.421,21.914c2.289,0.823,4.66,1.24,7.046,1.24c0.001,0,0.001,0,0.002,0c8.981,0,16.865-5.739,19.617-14.281c0.413-1.282,1.785-2.057,3.08-1.748c0.707,0.168,1.317,0.629,1.674,1.263C-52.207-295.879-52.13-295.127-52.35-294.445z" fill="#000000" class="color000000 svgShape"></path></g><g fill="#000000" class="color000000 svgShape"><path fill="#f2bb1c" d="M32.148-85.623c0-0.669-0.258-1.297-0.729-1.769l-7.692-7.703c-0.39-0.391-0.39-1.024,0.001-1.414l7.702-7.692c0.975-0.974,0.976-2.561,0.002-3.537c-0.473-0.473-1.101-0.734-1.77-0.734c-0.668,0-1.295,0.259-1.767,0.73L17.715-97.575c-0.976,0.975-0.977,2.561-0.002,3.537l10.167,10.181c0.944,0.946,2.592,0.946,3.536,0.002C31.887-84.327,32.147-84.954,32.148-85.623z" class="colorf28c1c svgShape"></path><path fill="#ffffff" d="M29.662-108.472c-0.668,0-1.295,0.259-1.767,0.73L17.715-97.575c-0.976,0.975-0.977,2.561-0.002,3.537l0.108,0.108c-0.011-0.911,0.327-1.826,1.021-2.519l10.18-10.166c0.66-0.66,1.539-1.023,2.473-1.023c0.007,0,0.013,0.002,0.019,0.002c-0.029-0.033-0.051-0.07-0.083-0.101C30.959-108.211,30.331-108.472,29.662-108.472z" class="colorffffff svgShape"></path><path d="M29.648-81.124c-1.204,0-2.334-0.469-3.185-1.32L16.297-92.625c-1.753-1.755-1.752-4.611,0.004-6.365l10.18-10.166c0.848-0.849,1.978-1.316,3.18-1.316c1.204,0,2.334,0.469,3.185,1.321c1.753,1.756,1.751,4.611-0.004,6.365L25.848-95.8l6.986,6.996c0.848,0.85,1.315,1.98,1.314,3.183c-0.001,1.204-0.47,2.333-1.32,3.182C31.979-81.592,30.85-81.124,29.648-81.124z M29.662-108.472c-0.668,0-1.295,0.259-1.767,0.73L17.715-97.575c-0.976,0.975-0.977,2.561-0.002,3.537l10.167,10.181c0.944,0.946,2.592,0.946,3.536,0.002c0.473-0.472,0.732-1.099,0.733-1.768c0-0.669-0.258-1.297-0.729-1.769l-7.692-7.703c-0.39-0.391-0.39-1.024,0.001-1.414l7.702-7.692c0.975-0.974,0.976-2.561,0.002-3.537C30.959-108.211,30.331-108.472,29.662-108.472z" fill="#000000" class="color000000 svgShape"></path><path fill="#f2bb1c" d="M14.236-67.77c-0.707,0.168-1.317,0.629-1.675,1.263c-0.354,0.628-0.431,1.379-0.212,2.061c3.438,10.717,13.31,17.917,24.565,17.918l0.002,1v-1c2.571,0,5.14-0.388,7.635-1.152c12.419-3.808,20.084-16.327,17.829-29.121C60.233-88.98,49.73-97.975,37.405-98.191c-0.861,0-1.626,0.362-2.136,1.019c-0.495,0.638-0.664,1.454-0.463,2.237c0.29,1.132,1.3,1.936,2.457,1.954c10.19,0.165,18.849,7.94,20.14,18.087c1.205,9.47-4.439,18.685-13.422,21.913c-2.289,0.823-4.659,1.24-7.046,1.24c-8.983,0-16.868-5.739-19.62-14.282c-0.351-1.088-1.347-1.818-2.479-1.818C14.634-67.841,14.433-67.817,14.236-67.77z" class="colorf28c1c svgShape"></path><path d="M36.917-44.528h-0.002c-12.128-0.001-22.765-7.76-26.469-19.306c-0.39-1.21-0.253-2.542,0.374-3.655c0.63-1.118,1.707-1.929,2.952-2.226c0.348-0.084,0.707-0.126,1.064-0.126c2.003,0,3.765,1.288,4.383,3.205c2.485,7.713,9.604,12.896,17.716,12.896c2.155,0,4.298-0.378,6.369-1.123c8.107-2.913,13.202-11.23,12.114-19.778c-1.166-9.167-8.984-16.191-18.187-16.339c-2.055-0.033-3.849-1.454-4.362-3.457c-0.355-1.387-0.057-2.831,0.82-3.96c0.897-1.156,2.223-1.793,3.733-1.793c13.298,0.232,24.616,9.923,26.927,23.042c2.431,13.787-5.829,27.278-19.212,31.381C42.452-44.945,39.687-44.528,36.917-44.528z M14.835-67.841c-0.201,0-0.403,0.023-0.6,0.071c-0.707,0.168-1.317,0.629-1.675,1.263c-0.354,0.628-0.431,1.379-0.212,2.061c3.438,10.717,13.31,17.917,24.565,17.918l0.002,1v-1c2.571,0,5.14-0.388,7.635-1.152c12.419-3.808,20.084-16.327,17.829-29.121C60.233-88.98,49.73-97.975,37.405-98.191c-0.861,0-1.626,0.362-2.136,1.019c-0.495,0.638-0.664,1.454-0.463,2.237c0.29,1.132,1.3,1.936,2.457,1.954c10.19,0.165,18.849,7.94,20.14,18.087c1.205,9.47-4.439,18.685-13.422,21.913c-2.289,0.823-4.659,1.24-7.046,1.24c-8.983,0-16.868-5.739-19.62-14.282C16.964-67.11,15.968-67.841,14.835-67.841z" fill="#000000" class="color000000 svgShape"></path></g><g fill="#000000" class="color000000 svgShape"><path d="M170.799-284.99c-1.201,0-2.331-0.466-3.18-1.313l-10.177-10.164c-0.851-0.848-1.32-1.979-1.32-3.184c0-1.201,0.468-2.33,1.315-3.18c0.852-0.85,1.982-1.318,3.186-1.318c1.201,0,2.331,0.466,3.179,1.313l6.993,6.983l6.982-6.992c0.849-0.85,1.979-1.318,3.184-1.318c1.201,0,2.331,0.466,3.18,1.313c0.853,0.852,1.321,1.982,1.321,3.185s-0.468,2.332-1.316,3.18l-10.163,10.176C173.136-285.459,172.005-284.99,170.799-284.99z M160.623-302.148c-0.67,0-1.299,0.26-1.771,0.732c-0.471,0.471-0.73,1.099-0.73,1.766c0,0.669,0.261,1.296,0.733,1.768l10.177,10.165c0.943,0.941,2.599,0.938,3.533-0.002l10.165-10.178c0.472-0.471,0.731-1.098,0.731-1.766s-0.261-1.296-0.734-1.769c-0.941-0.939-2.593-0.939-3.534,0.002l-7.689,7.699c-0.391,0.392-1.024,0.391-1.415,0.001l-7.7-7.689C161.919-301.89,161.291-302.148,160.623-302.148z" fill="#000000" class="color000000 svgShape"></path><path fill="#fbbc05" d="M179.193-301.431l-7.689,7.699c-0.391,0.392-1.024,0.391-1.415,0.001l-7.7-7.689c-0.47-0.469-1.098-0.728-1.766-0.728c-0.67,0-1.299,0.26-1.771,0.732c-0.471,0.471-0.73,1.099-0.73,1.766c0,0.669,0.261,1.296,0.733,1.768l10.177,10.165c0.943,0.941,2.599,0.938,3.533-0.002l10.165-10.178c0.472-0.471,0.731-1.098,0.731-1.766s-0.261-1.296-0.734-1.769C181.786-302.373,180.135-302.373,179.193-301.431z" class="colorf2bf1c svgShape"></path><path fill="#ffffff" d="M158.855-297.883l10.177,10.165c0.879,0.878,2.37,0.924,3.326,0.166c-0.933-0.001-1.811-0.363-2.47-1.021l-10.176-10.163c-0.663-0.661-1.027-1.54-1.027-2.475c-0.358,0.442-0.563,0.984-0.563,1.561C158.122-298.982,158.383-298.354,158.855-297.883z" class="colorffffff svgShape"></path><path fill="#fbbc05" d="M151.802-332.372c-1.477-0.261-2.982-0.393-4.474-0.393c-11.219,0-21.351,7.49-24.637,18.215c-0.766,2.496-1.153,5.064-1.153,7.635c0.001,11.251,7.199,21.119,17.911,24.557c0.674,0.216,1.441,0.137,2.063-0.212c0.633-0.357,1.093-0.967,1.262-1.674c0.047-0.196,0.07-0.398,0.07-0.6c0-1.131-0.73-2.127-1.818-2.478c-8.54-2.752-14.277-10.634-14.276-19.613c0-2.387,0.417-4.757,1.238-7.043c2.919-8.122,10.698-13.579,19.357-13.579c0.853,0,1.71,0.054,2.55,0.161c10.146,1.291,17.919,9.946,18.082,20.133c0.019,1.156,0.821,2.166,1.952,2.456c0.787,0.204,1.6,0.032,2.237-0.463c0.656-0.509,1.018-1.273,1.018-2.152C172.97-319.726,163.978-330.226,151.802-332.372z" class="colorf2bf1c svgShape"></path><path d="M140.232-280.236c-0.474,0-0.942-0.073-1.394-0.217c-11.544-3.704-19.3-14.338-19.301-26.461c0-2.77,0.418-5.535,1.241-8.221c3.542-11.558,14.459-19.629,26.549-19.629c1.607,0,3.229,0.142,4.821,0.423c13.116,2.312,22.803,13.625,23.034,26.901c0,1.528-0.636,2.854-1.791,3.75c-1.124,0.872-2.578,1.177-3.961,0.82c-2.001-0.512-3.423-2.306-3.455-4.361c-0.147-9.198-7.17-17.014-16.334-18.18c-0.757-0.097-1.53-0.146-2.298-0.146c-7.818,0-14.841,4.925-17.475,12.256c-0.744,2.069-1.121,4.211-1.121,6.367c-0.001,8.108,5.179,15.225,12.89,17.71c1.917,0.618,3.205,2.378,3.205,4.381c0,0.356-0.042,0.713-0.125,1.063c-0.298,1.248-1.109,2.324-2.226,2.954C141.806-280.44,141.023-280.236,140.232-280.236z M147.328-332.764c-11.219,0-21.351,7.49-24.637,18.215c-0.766,2.496-1.153,5.064-1.153,7.635c0.001,11.251,7.199,21.119,17.911,24.557c0.674,0.216,1.441,0.137,2.063-0.212c0.633-0.357,1.093-0.967,1.262-1.674c0.047-0.196,0.07-0.398,0.07-0.6c0-1.131-0.73-2.127-1.818-2.478c-8.54-2.752-14.277-10.634-14.276-19.613c0-2.387,0.417-4.757,1.238-7.043c2.919-8.122,10.698-13.579,19.357-13.579c0.853,0,1.71,0.054,2.55,0.161c10.146,1.291,17.919,9.946,18.082,20.133c0.019,1.156,0.821,2.166,1.952,2.456c0.787,0.204,1.6,0.032,2.237-0.463c0.656-0.509,1.018-1.273,1.018-2.152c-0.214-12.304-9.206-22.804-21.382-24.949C150.325-332.632,148.819-332.764,147.328-332.764z" fill="#000000" class="color000000 svgShape"></path></g><g fill="#000000" class="color000000 svgShape"><path fill="#4285f4" d="M26.474-334.277c0-1.381-1.125-2.504-2.507-2.504l-14.389.009c-.667 0-1.295.263-1.769.737-.474.474-.734 1.103-.733 1.77.001 1.38 1.126 2.503 2.507 2.503l10.882-.007h0c.552 0 1 .447 1 .999l.009 10.882c0 .67.261 1.299.734 1.771.473.473 1.103.733 1.772.733 1.38-.001 2.503-1.126 2.503-2.508L26.474-334.277zM48.516-295.108l.01 14.387c0 1.381 1.123 2.504 2.504 2.504l14.392-.009c.668 0 1.297-.262 1.771-.737.474-.474.734-1.103.733-1.771-.001-1.38-1.126-2.503-2.507-2.503l-10.883.007c-.001 0-.001 0-.001 0-.552 0-1-.447-1-.999l-.009-10.882c0-.67-.261-1.3-.733-1.772-.474-.472-1.104-.732-1.774-.732C49.639-297.615 48.516-296.49 48.516-295.108z" class="color37c3f4 svgShape"></path><path d="M51.033-276.217c-0.001,0-0.004,0-0.004,0c-2.483,0-4.504-2.021-4.504-4.504l-0.01-14.387c0-2.484,2.02-4.506,4.501-4.508c1.204,0,2.336,0.468,3.188,1.316c0.852,0.852,1.32,1.983,1.32,3.187l0.008,9.882l9.884-0.006c2.483,0,4.505,2.019,4.508,4.501c0.001,1.202-0.467,2.333-1.318,3.186c-0.851,0.853-1.981,1.323-3.184,1.324L51.033-276.217z M51.018-297.615c-1.379,0-2.502,1.125-2.502,2.507l0.01,14.387c0,1.381,1.123,2.504,2.504,2.504l14.392-0.009c0.668,0,1.297-0.262,1.771-0.737c0.474-0.474,0.734-1.103,0.733-1.771c-0.001-1.38-1.126-2.503-2.507-2.503l-10.883,0.007c-0.001,0-0.001,0-0.001,0c-0.552,0-1-0.447-1-0.999l-0.009-10.882c0-0.67-0.261-1.3-0.733-1.772C52.318-297.355,51.688-297.615,51.018-297.615z" fill="#000000" class="color000000 svgShape"></path><path fill="#4285f4" d="M63.629-294.026c1.109,0,2.098-0.66,2.517-1.681c1.405-3.429,2.177-7.053,2.294-10.769c0.257-8.159-2.931-16.31-8.745-22.363c-5.889-6.127-13.659-9.544-21.883-9.622c-0.293,0.017-1.017,0.058-1.939,0.125c-0.762,0.056-1.462,0.44-1.921,1.054c-0.459,0.615-0.629,1.396-0.466,2.145c0.264,1.209,1.304,2.086,2.473,2.086h0l0.156-0.004c0.429-0.023,0.888-0.036,1.348-0.036c1.259,0,2.537,0.092,3.798,0.275c11.284,1.629,20.395,11.058,21.661,22.42c0.479,4.308-0.131,8.686-1.766,12.662c-0.411,1-0.187,2.141,0.573,2.908C62.239-294.31,62.915-294.026,63.629-294.026z" class="color37c3f4 svgShape"></path><path d="M63.629-292.026c-1.251,0-2.43-0.494-3.32-1.39c-1.326-1.34-1.72-3.333-1.002-5.077c1.507-3.666,2.069-7.705,1.627-11.68c-1.167-10.472-9.562-19.162-19.959-20.663c-1.592-0.23-3.2-0.303-4.782-0.221l-0.209,0.005c0,0-0.001,0-0.002,0c-2.127,0-3.988-1.539-4.451-3.66c-0.286-1.315,0.012-2.688,0.818-3.768c0.806-1.078,2.036-1.753,3.376-1.852c1.059-0.078,1.86-0.121,2-0.128c8.857,0.075,17.142,3.71,23.41,10.234c6.186,6.439,9.576,15.118,9.302,23.812c-0.123,3.956-0.945,7.813-2.442,11.465C67.268-293.173,65.554-292.026,63.629-292.026z M37.462-333.089c1.259,0,2.537,0.092,3.798,0.275c11.284,1.629,20.395,11.058,21.661,22.42c0.479,4.308-0.131,8.686-1.766,12.662c-0.411,1-0.187,2.141,0.573,2.908c0.51,0.514,1.186,0.798,1.899,0.798c1.109,0,2.098-0.66,2.517-1.681c1.405-3.429,2.177-7.053,2.294-10.769c0.257-8.159-2.931-16.31-8.745-22.363c-5.889-6.127-13.659-9.544-21.883-9.622c-0.293,0.017-1.017,0.058-1.939,0.125c-0.762,0.056-1.462,0.44-1.921,1.054c-0.459,0.615-0.629,1.396-0.466,2.145c0.264,1.209,1.304,2.086,2.473,2.086h0l0.156-0.004C36.543-333.077,37.003-333.089,37.462-333.089z" fill="#000000" class="color000000 svgShape"></path><path fill="#ffffff" d="M23.967-336.781l-14.389.009c-.667 0-1.295.263-1.769.737-.472.472-.731 1.098-.733 1.762.009-.01.015-.021.025-.031.663-.664 1.542-1.03 2.477-1.031l14.389-.009c.983 0 1.869.408 2.506 1.06C26.47-335.662 25.347-336.781 23.967-336.781zM65.413-278.217l-14.389-.009c-.667 0-1.295-.263-1.769-.737-.472-.472-.731-1.098-.733-1.762.009.01.015.021.025.031.663.664 1.542 1.03 2.477 1.031l14.389.009c.983 0 1.869-.408 2.506-1.06C67.915-279.336 66.793-278.217 65.413-278.217z" class="colorffffff svgShape"></path><path d="M23.982-315.383L23.982-315.383L23.982-315.383L23.982-315.383L23.982-315.383c-1.205,0-2.336-0.468-3.186-1.318c-0.852-0.849-1.321-1.981-1.321-3.186l-0.008-9.882l-9.883,0.006c-2.483,0-4.505-2.019-4.508-4.501c-0.001-1.202,0.467-2.333,1.318-3.185c0.851-0.853,1.981-1.323,3.183-1.324l14.39-0.009c2.485,0,4.507,2.02,4.507,4.503l0.01,14.387C28.484-317.406,26.464-315.384,23.982-315.383L23.982-315.383z M20.466-331.769c0.552,0,1,0.447,1,0.999l0.009,10.882c0,0.67,0.261,1.299,0.734,1.771c0.473,0.473,1.103,0.733,1.772,0.733c1.38-0.001,2.503-1.126,2.503-2.508l-0.01-14.387c0-1.381-1.125-2.504-2.507-2.504l-14.389,0.009c-0.667,0-1.295,0.263-1.769,0.737c-0.474,0.474-0.734,1.103-0.733,1.77c0.001,1.38,1.126,2.503,2.507,2.503L20.466-331.769L20.466-331.769z" fill="#000000" class="color000000 svgShape"></path><path fill="#4285f4" d="M11.37-320.973c-1.109,0-2.096,0.66-2.515,1.681c-1.406,3.427-2.178,7.05-2.294,10.769c-0.257,8.159,2.93,16.31,8.746,22.363c5.878,6.117,13.655,9.533,21.9,9.62c0.213-0.012,0.958-0.053,1.92-0.123c0.763-0.057,1.463-0.441,1.921-1.054c0.46-0.615,0.63-1.397,0.467-2.146c-0.263-1.209-1.303-2.086-2.473-2.086l-0.156,0.004c-1.607,0.088-3.425,0.01-5.147-0.239c-11.285-1.629-20.394-11.058-21.66-22.42c-0.48-4.31,0.13-8.688,1.765-12.663c0.411-1,0.186-2.141-0.574-2.908C12.76-320.689,12.084-320.973,11.37-320.973z" class="color37c3f4 svgShape"></path><path d="M37.223-274.539c-0.001,0-0.002,0-0.004,0c-8.799-0.084-17.094-3.719-23.355-10.235c-6.186-6.438-9.576-15.117-9.302-23.812c0.125-3.958,0.946-7.816,2.443-11.465c0.728-1.775,2.441-2.922,4.366-2.922c1.251,0,2.431,0.494,3.32,1.39c1.327,1.339,1.721,3.332,1.003,5.077c-1.507,3.665-2.07,7.704-1.627,11.68c1.167,10.472,9.561,19.161,19.958,20.662c1.594,0.23,3.203,0.306,4.784,0.221l0.209-0.005h0.001c2.128,0,3.989,1.539,4.451,3.661c0.286,1.315-0.013,2.688-0.819,3.768c-0.805,1.078-2.035,1.753-3.377,1.852c-0.991,0.073-1.757,0.115-1.964,0.126C37.289-274.541,37.246-274.539,37.223-274.539z M11.37-320.973c-1.109,0-2.096,0.66-2.515,1.681c-1.406,3.427-2.178,7.05-2.294,10.769c-0.257,8.159,2.93,16.31,8.746,22.363c5.878,6.117,13.655,9.533,21.9,9.62c0.213-0.012,0.958-0.053,1.92-0.123c0.763-0.057,1.463-0.441,1.921-1.054c0.46-0.615,0.63-1.397,0.467-2.146c-0.263-1.209-1.303-2.086-2.473-2.086l-0.156,0.004c-1.607,0.088-3.425,0.01-5.147-0.239c-11.285-1.629-20.394-11.058-21.66-22.42c-0.48-4.31,0.13-8.688,1.765-12.663c0.411-1,0.186-2.141-0.574-2.908C12.76-320.689,12.084-320.973,11.37-320.973z" fill="#000000" class="color000000 svgShape"></path></g><g fill="#000000" class="color000000 svgShape"><path fill="#4285f4" d="M169.494-190.595c0.531-0.532,0.824-1.238,0.824-1.989c0-0.751-0.293-1.458-0.824-1.988l-10.81-10.811c-0.531-0.532-1.237-0.824-1.988-0.824c-0.752,0-1.458,0.292-1.989,0.824c-0.531,0.531-0.824,1.237-0.824,1.989c0,0.751,0.293,1.457,0.824,1.988l8.114,8.115c0.391,0.391,0.391,1.023,0,1.414l-8.114,8.114c-0.531,0.531-0.824,1.237-0.824,1.989c0,0.751,0.293,1.457,0.824,1.988c1.062,1.062,2.914,1.063,3.978,0L169.494-190.595z" class="color37c3f4 svgShape"></path><path fill="#4285f4" d="M152.785-195.416h-27.321c-1.551,0-2.813,1.261-2.813,2.812s1.262,2.813,2.813,2.813h27.321c1.551,0,2.813-1.262,2.813-2.813S154.336-195.416,152.785-195.416z" class="color37c3f4 svgShape"></path><path d="M152.785-187.791h-27.321c-2.653,0-4.813-2.159-4.813-4.813c0-2.653,2.159-4.812,4.813-4.812h27.321c2.653,0,4.813,2.159,4.813,4.812C157.598-189.95,155.438-187.791,152.785-187.791z M125.464-195.416c-1.551,0-2.813,1.261-2.813,2.812s1.262,2.813,2.813,2.813h27.321c1.551,0,2.813-1.262,2.813-2.813s-1.262-2.812-2.813-2.812H125.464z" fill="#000000" class="color000000 svgShape"></path><path fill="#ffffff" d="M169.494-190.595c0.531-0.532,0.824-1.238,0.824-1.989c0-0.751-0.293-1.458-0.824-1.988l-0.194-0.194c0.003,0.061,0.018,0.12,0.018,0.182c0,1.019-0.397,1.976-1.117,2.696l-10.81,10.81c-0.72,0.72-1.678,1.117-2.695,1.117c-0.05,0-0.097-0.013-0.146-0.015c0.053,0.063,0.098,0.132,0.157,0.191c1.062,1.062,2.914,1.063,3.978,0L169.494-190.595z" class="colorffffff svgShape"></path><path d="M156.696-176.962c-1.286,0-2.495-0.5-3.403-1.41c-0.909-0.909-1.41-2.117-1.41-3.402c0-1.286,0.501-2.494,1.41-3.403l7.407-7.407l-7.407-7.408c-0.909-0.909-1.41-2.117-1.41-3.402c0-1.286,0.501-2.494,1.41-3.403c0.908-0.909,2.117-1.41,3.403-1.41c1.285,0,2.494,0.501,3.402,1.41l10.81,10.81c0.909,0.909,1.41,2.117,1.41,3.403c0,1.285-0.501,2.494-1.41,3.403l-10.81,10.81C159.19-177.462,157.982-176.962,156.696-176.962z M156.696-206.207c-0.752,0-1.458,0.292-1.989,0.824c-0.531,0.531-0.824,1.237-0.824,1.989c0,0.751,0.293,1.457,0.824,1.988l8.114,8.115c0.391,0.391,0.391,1.023,0,1.414l-8.114,8.114c-0.531,0.531-0.824,1.237-0.824,1.989c0,0.751,0.293,1.457,0.824,1.988c1.062,1.062,2.914,1.063,3.978,0l10.81-10.81c0.531-0.532,0.824-1.238,0.824-1.989c0-0.751-0.293-1.458-0.824-1.988l-10.81-10.811C158.153-205.915,157.447-206.207,156.696-206.207z" fill="#000000" class="color000000 svgShape"></path><path fill="#ea4335" d="M146.279-161.416h31.003c2.794,0,5.066-2.272,5.066-5.066v-52.037c0-2.793-2.272-5.066-5.066-5.066h-31.003c-2.793,0-5.065,2.272-5.065,5.066v12.802c0,1.661,1.352,3.013,3.013,3.013c0.806,0,1.563-0.314,2.131-0.883c0.569-0.57,0.883-1.328,0.882-2.134l-0.022-10.8c-0.001-0.552,0.445-1.001,0.998-1.002l27.068-0.057c0.001,0,0.001,0,0.002,0c0.265,0,0.519,0.105,0.706,0.292c0.188,0.188,0.294,0.442,0.294,0.707l0.062,48.164c0,0.266-0.104,0.521-0.292,0.708c-0.188,0.188-0.442,0.293-0.708,0.293h-27.069c-0.552,0-0.999-0.446-1-0.998l-0.023-11.035c-0.002-1.665-1.356-3.018-3.021-3.018c-1.665,0-3.02,1.355-3.02,3.021v12.965C141.214-163.688,143.486-161.416,146.279-161.416z" class="coloref3039 svgShape"></path><path d="M177.282-159.416h-31.003c-3.896,0-7.065-3.17-7.065-7.066v-12.965c0-2.769,2.252-5.021,5.02-5.021c2.766,0,5.019,2.25,5.021,5.015l0.021,10.036h25.07l-0.06-46.162l-25.067,0.053l0.021,9.801c0.001,1.342-0.52,2.603-1.466,3.55c-0.947,0.948-2.207,1.47-3.547,1.47c-2.764,0-5.013-2.249-5.013-5.013v-12.802c0-3.896,3.17-7.066,7.065-7.066h31.003c3.896,0,7.066,3.17,7.066,7.066v52.037C184.349-162.585,181.179-159.416,177.282-159.416z M144.233-182.467c-1.665,0-3.02,1.355-3.02,3.021v12.965c0,2.793,2.272,5.066,5.065,5.066h31.003c2.794,0,5.066-2.272,5.066-5.066v-52.037c0-2.793-2.272-5.066-5.066-5.066h-31.003c-2.793,0-5.065,2.272-5.065,5.066v12.802c0,1.661,1.352,3.013,3.013,3.013c0.806,0,1.563-0.314,2.131-0.883c0.569-0.57,0.883-1.328,0.882-2.134l-0.022-10.8c-0.001-0.552,0.445-1.001,0.998-1.002l27.068-0.057c0.001,0,0.001,0,0.002,0c0.265,0,0.519,0.105,0.706,0.292c0.188,0.188,0.294,0.442,0.294,0.707l0.062,48.164c0,0.266-0.104,0.521-0.292,0.708c-0.188,0.188-0.442,0.293-0.708,0.293h-27.069c-0.552,0-0.999-0.446-1-0.998l-0.023-11.035C147.252-181.113,145.897-182.467,144.233-182.467z" fill="#000000" class="color000000 svgShape"></path></g><g fill="#000000" class="color000000 svgShape"><path fill="#4285f4" d="M297.66-190.427c0.531-0.531,0.824-1.237,0.824-1.989c0-0.751-0.293-1.457-0.824-1.989l-10.81-10.81c-0.531-0.531-1.237-0.824-1.988-0.824c-0.752,0-1.458,0.292-1.989,0.824s-0.824,1.237-0.824,1.988c0,0.751,0.293,1.458,0.824,1.988l8.114,8.115c0.391,0.391,0.391,1.023,0,1.414l-8.114,8.115c-0.531,0.531-0.824,1.237-0.824,1.988c0,0.751,0.293,1.458,0.824,1.988c1.061,1.063,2.913,1.064,3.978,0L297.66-190.427z" class="color37c3f4 svgShape"></path><path fill="#4285f4" d="M253.63-196.209c-2.103,0-3.813,1.71-3.813,3.813s1.71,3.812,3.813,3.812h27.321c2.103,0,3.813-1.71,3.813-3.812s-1.71-3.813-3.813-3.813H253.63z" class="color37c3f4 svgShape"></path><path d="M280.951-187.584H253.63c-2.653,0-4.813-2.159-4.813-4.812c0-2.654,2.159-4.813,4.813-4.813h27.321c2.653,0,4.813,2.159,4.813,4.813C285.764-189.743,283.604-187.584,280.951-187.584z M253.63-195.209c-1.551,0-2.813,1.262-2.813,2.813s1.262,2.812,2.813,2.812h27.321c1.551,0,2.813-1.261,2.813-2.812s-1.262-2.813-2.813-2.813H253.63z" fill="#000000" class="color000000 svgShape"></path><path fill="#ffffff" d="M296.523-191.564l-10.81,10.81c-0.72,0.72-1.678,1.117-2.695,1.117c-0.061,0-0.118-0.018-0.178-0.021c0.012,0.013,0.02,0.028,0.033,0.04c1.061,1.063,2.913,1.064,3.978,0l10.81-10.81c0.531-0.531,0.824-1.237,0.824-1.989c0-0.751-0.293-1.457-0.824-1.989l-0.038-0.038c0.003,0.061,0.018,0.12,0.018,0.182C297.64-193.241,297.244-192.284,296.523-191.564z" class="colorffffff svgShape"></path><path d="M284.862-176.793c-1.286,0-2.495-0.501-3.403-1.41c-0.909-0.909-1.41-2.117-1.41-3.403c0-1.285,0.501-2.494,1.41-3.403l7.407-7.407l-7.407-7.407c-0.909-0.909-1.41-2.117-1.41-3.403c0-1.285,0.501-2.494,1.41-3.403c0.908-0.909,2.117-1.409,3.403-1.409s2.494,0.5,3.402,1.41l10.81,10.81c0.909,0.909,1.41,2.118,1.41,3.403c0,1.286-0.501,2.494-1.41,3.403l-10.81,10.81C287.356-177.294,286.147-176.793,284.862-176.793z M284.862-206.038c-0.752,0-1.458,0.292-1.989,0.824s-0.824,1.237-0.824,1.988c0,0.751,0.293,1.458,0.824,1.988l8.114,8.115c0.391,0.391,0.391,1.023,0,1.414l-8.114,8.115c-0.531,0.531-0.824,1.237-0.824,1.988c0,0.751,0.293,1.458,0.824,1.988c1.061,1.063,2.913,1.064,3.978,0l10.81-10.81c0.531-0.531,0.824-1.237,0.824-1.989c0-0.751-0.293-1.457-0.824-1.989l-10.81-10.81C286.319-205.746,285.613-206.038,284.862-206.038z" fill="#000000" class="color000000 svgShape"></path><path fill="#ea4335" d="M277.65-218.519c0-2.793-2.272-5.066-5.065-5.066h-31.003c-2.794,0-5.066,2.272-5.066,5.066v52.037c0,2.793,2.272,5.066,5.066,5.066h31.003c2.793,0,5.065-2.272,5.065-5.066v-12.802c0-1.661-1.352-3.013-3.013-3.013c-0.806,0-1.563,0.314-2.131,0.883c-0.569,0.57-0.883,1.328-0.882,2.134l0.022,10.8c0.001,0.552-0.445,1.001-0.998,1.002l-27.068,0.057c-0.001,0-0.001,0-0.002,0c-0.265,0-0.519-0.105-0.706-0.292c-0.188-0.188-0.294-0.442-0.294-0.707l-0.062-48.164c0-0.266,0.104-0.521,0.292-0.708c0.188-0.188,0.442-0.293,0.708-0.293h27.069c0.552,0,0.999,0.446,1,0.998l0.023,11.035c0.002,1.665,1.356,3.018,3.021,3.018c1.665,0,3.02-1.355,3.02-3.021V-218.519z" class="coloref3039 svgShape"></path><path d="M272.585-159.416h-31.003c-3.896,0-7.066-3.17-7.066-7.066v-52.037c0-3.896,3.17-7.066,7.066-7.066h31.003c3.896,0,7.065,3.17,7.065,7.066v12.965c0,2.769-2.252,5.021-5.02,5.021c-2.766,0-5.019-2.25-5.021-5.015l-0.021-10.036h-25.07l0.06,46.162l25.067-0.053l-0.021-9.801c-0.001-1.342,0.52-2.603,1.466-3.55c0.947-0.948,2.207-1.47,3.547-1.47c2.764,0,5.013,2.249,5.013,5.013v12.802C279.65-162.585,276.48-159.416,272.585-159.416z M241.582-223.584c-2.794,0-5.066,2.272-5.066,5.066v52.037c0,2.793,2.272,5.066,5.066,5.066h31.003c2.793,0,5.065-2.272,5.065-5.066v-12.802c0-1.661-1.352-3.013-3.013-3.013c-0.806,0-1.563,0.314-2.131,0.883c-0.569,0.57-0.883,1.328-0.882,2.134l0.022,10.8c0.001,0.552-0.445,1.001-0.998,1.002l-27.068,0.057c-0.001,0-0.001,0-0.002,0c-0.265,0-0.519-0.105-0.706-0.292c-0.188-0.188-0.294-0.442-0.294-0.707l-0.062-48.164c0-0.266,0.104-0.521,0.292-0.708c0.188-0.188,0.442-0.293,0.708-0.293h27.069c0.552,0,0.999,0.446,1,0.998l0.023,11.035c0.002,1.665,1.356,3.018,3.021,3.018c1.665,0,3.02-1.355,3.02-3.021v-12.965c0-2.793-2.272-5.066-5.065-5.066H241.582z" fill="#000000" class="color000000 svgShape"></path></g><g fill="#000000" class="color000000 svgShape"><path fill="#34a853" d="M-55.919-62.226c-1.063-1.063-2.915-1.063-3.977,0l-8.115,8.114c-0.391,0.391-1.023,0.391-1.414,0l-8.114-8.114c-0.531-0.531-1.237-0.824-1.989-0.824c-0.751,0-1.457,0.293-1.988,0.824c-0.532,0.531-0.825,1.237-0.825,1.989c0,0.751,0.292,1.457,0.824,1.988l10.81,10.81c1.063,1.063,2.916,1.063,3.977,0l10.811-10.81C-54.823-59.345-54.823-61.129-55.919-62.226z" class="color41d88d svgShape"></path><path fill="#ffffff" d="M-55.919-62.226c-0.124-0.124-0.26-0.23-0.403-0.325c0.03,1.011-0.328,2.031-1.098,2.801L-68.23-48.94c-0.72,0.721-1.677,1.117-2.696,1.117c-0.062,0-0.121-0.015-0.182-0.018l0.402,0.402c1.063,1.063,2.916,1.063,3.977,0l10.811-10.81C-54.823-59.345-54.823-61.129-55.919-62.226z" class="colorffffff svgShape"></path><path d="M-68.718-44.614c-1.285,0-2.494-0.501-3.403-1.41l-10.81-10.81c-0.909-0.908-1.41-2.117-1.41-3.402c0-1.286,0.501-2.495,1.41-3.403c0.909-0.909,2.117-1.41,3.402-1.41c1.286,0,2.494,0.501,3.403,1.41l7.407,7.407l7.408-7.407c0.909-0.909,2.117-1.41,3.402-1.41c1.286,0,2.494,0.501,3.403,1.41c1.875,1.876,1.875,4.929,0,6.806l-10.811,10.81C-66.224-45.115-67.432-44.614-68.718-44.614z M-79.528-63.05c-0.751,0-1.457,0.293-1.988,0.824c-0.532,0.531-0.825,1.237-0.825,1.989c0,0.751,0.292,1.457,0.824,1.988l10.81,10.81c1.063,1.063,2.916,1.063,3.977,0l10.811-10.81c1.096-1.097,1.096-2.881,0-3.978c-1.063-1.063-2.915-1.063-3.977,0l-8.115,8.114c-0.391,0.391-1.023,0.391-1.414,0l-8.114-8.114C-78.07-62.757-78.776-63.05-79.528-63.05z" fill="#000000" class="color000000 svgShape"></path><path fill="#34a853" d="M-68.896-62.61c1.654,0,3-1.346,3-3v-25.773c0-9.375-7.628-17.003-17.003-17.003s-17.003,7.627-17.003,17.003v19.175c0,1.654,1.346,3,3,3c1.654,0,3-1.346,3-3v-19.175c0-6.067,4.937-11.003,11.004-11.003c0.351,0,0.706,0.017,1.063,0.05c5.574,0.525,9.94,5.491,9.94,11.305l0,25.421C-71.896-63.956-70.551-62.61-68.896-62.61z" class="color41d88d svgShape"></path><path d="M-68.896-60.61c-2.757,0-5-2.243-5-5l0-25.421c0-4.793-3.57-8.884-8.127-9.313c-5.358-0.5-9.88,3.708-9.88,8.961v19.175c0,2.757-2.243,5-5,5s-5-2.243-5-5v-19.175c0-10.478,8.525-19.003,19.003-19.003c10.479,0,19.003,8.525,19.003,19.003v25.773C-63.896-62.854-66.14-60.61-68.896-60.61z M-82.899-102.386c0.351,0,0.706,0.017,1.063,0.05c5.574,0.525,9.94,5.491,9.94,11.305l0,25.421c0,1.654,1.346,3,3,3s3-1.346,3-3v-25.773c0-9.375-7.628-17.003-17.003-17.003s-17.003,7.627-17.003,17.003v19.175c0,1.654,1.346,3,3,3c1.654,0,3-1.346,3-3v-19.175C-93.903-97.45-88.967-102.386-82.899-102.386z" fill="#000000" class="color000000 svgShape"></path></g><g fill="#000000" class="color000000 svgShape"><path fill="#f2bb1c" d="M156.516,56.752c0.531-0.531,0.824-1.237,0.824-1.988c0-0.752-0.293-1.458-0.824-1.988c-1.063-1.064-2.915-1.063-3.976-0.001l-8.115,8.114c-0.391,0.391-1.023,0.391-1.414,0l-8.115-8.114c-0.531-0.531-1.237-0.824-1.988-0.824s-1.457,0.293-1.987,0.824c-1.098,1.097-1.098,2.881-0.002,3.978l10.811,10.81c1.063,1.063,2.915,1.063,3.978,0L156.516,56.752z" class="colorf28c1c svgShape"></path><path fill="#ffffff" d="M145.743,67.525c-0.061,0.003-0.12,0.018-0.182,0.018c-1.019,0-1.976-0.396-2.696-1.117l-10.811-10.81c-0.79-0.791-1.143-1.843-1.089-2.879c-0.015,0.014-0.032,0.024-0.046,0.038c-1.098,1.097-1.098,2.881-0.002,3.978l10.811,10.81c1.063,1.063,2.915,1.063,3.978,0L145.743,67.525z" class="colorffffff svgShape"></path><path d="M143.718,70.386c-1.285,0-2.494-0.501-3.403-1.41l-10.811-10.81c-1.876-1.877-1.875-4.93,0.001-6.806c0.908-0.909,2.116-1.41,3.402-1.41s2.494,0.501,3.403,1.41l7.407,7.407l7.407-7.407c0.908-0.909,2.116-1.41,3.402-1.41s2.494,0.501,3.403,1.41c0.908,0.908,1.409,2.116,1.409,3.403c0,1.286-0.501,2.494-1.41,3.403l-10.81,10.809C146.211,69.885,145.003,70.386,143.718,70.386z M132.907,51.95c-0.751,0-1.457,0.293-1.987,0.824c-1.098,1.097-1.098,2.881-0.002,3.978l10.811,10.81c1.063,1.063,2.915,1.063,3.978,0l10.81-10.81c0.531-0.531,0.824-1.237,0.824-1.988c0-0.752-0.293-1.458-0.824-1.988c-1.063-1.064-2.915-1.063-3.976-0.001l-8.115,8.114c-0.391,0.391-1.023,0.391-1.414,0l-8.115-8.114C134.364,52.243,133.658,51.95,132.907,51.95z" fill="#000000" class="color000000 svgShape"></path><path fill="#f2bb1c" d="M171.902,45.792c1.654,0,3-1.346,3-3V23.617c0-9.375-7.628-17.003-17.003-17.003s-17.003,7.628-17.003,17.003V49.39c0,1.654,1.346,3,3,3s3-1.346,3-3l-0.001-25.421c0-5.814,4.366-10.779,9.94-11.304c6.513-0.619,12.067,4.533,12.067,10.952v19.175C168.903,44.446,170.249,45.792,171.902,45.792z" class="colorf28c1c svgShape"></path><path d="M143.896,54.39c-2.757,0-5-2.243-5-5V23.617c0-10.479,8.524-19.003,19.003-19.003s19.003,8.524,19.003,19.003v19.175c0,2.757-2.243,5-5,5s-4.999-2.243-4.999-5V23.617c0-5.253-4.528-9.47-9.878-8.962c-4.56,0.43-8.13,4.521-8.13,9.313l0.001,25.421C148.896,52.146,146.653,54.39,143.896,54.39z M157.899,6.614c-9.375,0-17.003,7.628-17.003,17.003V49.39c0,1.654,1.346,3,3,3s3-1.346,3-3l-0.001-25.421c0-5.814,4.366-10.779,9.94-11.304c6.513-0.619,12.067,4.533,12.067,10.952v19.175c0,1.654,1.346,3,2.999,3c1.654,0,3-1.346,3-3V23.617C174.902,14.242,167.274,6.614,157.899,6.614z" fill="#000000" class="color000000 svgShape"></path></g></svg>