<svg xmlns="http://www.w3.org/2000/svg" data-name="Layer 1" viewBox="0 0 3000 2000"><defs><clipPath id="a"><polygon fill="none" points="1540.74 1322.5 1443.09 1510.06 1031.09 1279.38 1353.87 840.47 1540.74 1322.5"/></clipPath></defs><path fill="#d4e2ff" d="M2509.34,1257.68c-86.33,155.39-78.44,266.65-46.26,355,45.05,123.76,137.75,202.47,85.79,294.46-15.35,27.27-43.44,55.71-89.22,86.84L723.3,1998.56s-326.78-38.09-326.11-374.47c.44-222.42,110.36-299.62,300.05-388.51,249.74-117-157.11-571.21,124-871.72s646.46-267.48,849.09,49.37,339,362.87,506.88,281.89c94.73-45.71,244.71-11.09,334.47,93.2,58.79,68.29,91.72,166.5,66.33,291.57C2567,1134.19,2545,1193.53,2509.34,1257.68Z" opacity=".7"/><path fill="#fff" d="M2578 1079.89a156.18 156.18 0 11-77.2-292c3.65 0 7.28.12 10.87.39C2570.43 856.61 2603.36 954.82 2578 1079.89zM2548.87 1907.11c-4.81.47-9.65.71-14.57.71a156.18 156.18 0 01-71.22-295.17C2508.13 1736.41 2600.83 1815.12 2548.87 1907.11zM2227.45 2000.76l-780.26 2.06c-113.06-166.67-445.29-112.69-735-255.55-160.05-79-172.58-266-140.75-442.4-13.27 8.14-25.87 16.47-37.76 25.1 43.71-31.75 96.8-59.37 158.31-88.18 249.73-117-157.12-571.19 123.92-871.72 78.19-83.63 163-141.41 248.91-174.42 180.4 90.43 638.65 356.89 582.71 706.28-69.45 433.81 607 162.66 486.07 484.9C2026.86 1671.21 2359.36 1741.11 2227.45 2000.76z" opacity=".4"/><path fill="#8db2fc" d="M2176.13,439.27c0,109.31-88.62,197.93-197.93,197.93s-197.92-88.62-197.92-197.93,88.61-197.92,197.92-197.92S2176.13,330,2176.13,439.27Z" opacity=".6"/><path fill="#6e9cf9" d="M2169.9,389.85c-43.93,11.76-99.9,10.91-150.26-37.92-58.1-56.34-135.44-54.07-191.58-41.54a197.19,197.19,0,0,0-45.91,155.78c50.74-18.7,160.87-46.32,237.49,28,43.29,42,90.74,48.51,131.12,42a198.24,198.24,0,0,0,19.14-146.34Z" opacity=".3"/><path fill="#fff" d="M1948.4 243.58c-95.16 14.37-168.12 96.51-168.12 195.69A197.17 197.17 0 001834 574.8c6.7-51.24 39.59-113.5 93.21-188C1969 328.87 1963.33 278.51 1948.4 243.58zM2176.13 439.27a197.52 197.52 0 00-73.28-153.7c17.07 35 26.46 88.21-18 150-58.31 81-92.13 147.53-94.37 201.17C2094 630.46 2176.13 544.47 2176.13 439.27z" opacity=".2"/><path fill="#a2c5f9" d="M1146.15,1169.49c0,80.26-55.61,145.31-124.19,145.31s-124.2-65-124.2-145.31,55.61-145.3,124.2-145.3S1146.15,1089.25,1146.15,1169.49Z"/><path fill="#bbd5fc" d="M1142.27,1169.49c0,80.26-59.53,145.31-132.94,145.31s-133-65-133-145.31,59.52-145.3,133-145.3S1142.27,1089.25,1142.27,1169.49Z"/><path fill="#d4e2ff" d="M1130.56,1169.49c0,73.19-54.28,132.51-121.23,132.51s-121.24-59.32-121.24-132.51S942.37,1037,1009.33,1037,1130.56,1096.31,1130.56,1169.49Z"/><path fill="#fff" d="M1030.55,1073v20.73q19.8,1.89,33.38,9.94l-13.57,24.67q-11.74-8.38-23.11-8.4-7,0-11.37,3t-4.41,6.76c0,2.29,1.17,4.46,3.49,6.51a25.83,25.83,0,0,0,9.17,5l10.82,3.43q18.15,5.82,26.23,14.3t8.07,22a48.14,48.14,0,0,1-2,14.56,30,30,0,0,1-6.6,11.31,42.13,42.13,0,0,1-12,8.74,105.1,105.1,0,0,1-18.06,6.85v21.24h-16.88v-20.39a62.24,62.24,0,0,1-12.1-1.28,98.14,98.14,0,0,1-12.65-3.43,82.6,82.6,0,0,1-11.65-5,44.3,44.3,0,0,1-8.9-5.91l14.86-25.87q17.24,14.23,33.56,14.22a20.55,20.55,0,0,0,11.83-3.42q5-3.43,5.05-8.91,0-7.55-11.92-11.14l-10.46-3.08a100.25,100.25,0,0,1-15.95-6,39.69,39.69,0,0,1-10.83-7.54,27.21,27.21,0,0,1-6.23-9.68,35.16,35.16,0,0,1-2-12.42,44.66,44.66,0,0,1,2.29-14.21,35.82,35.82,0,0,1,7-12.25,39.88,39.88,0,0,1,11.65-9.09,43.63,43.63,0,0,1,16.5-4.54V1073Z" opacity=".5"/><path fill="#efa003" d="M2102.11,1185.8c0,80.25-55.6,145.31-124.19,145.31s-124.19-65.06-124.19-145.31,55.6-145.31,124.19-145.31S2102.11,1105.55,2102.11,1185.8Z"/><path fill="#f9c04e" d="M2098.23,1185.8c0,80.25-59.52,145.31-132.93,145.31s-133-65.06-133-145.31,59.52-145.31,133-145.31S2098.23,1105.55,2098.23,1185.8Z"/><path fill="#ff7708" d="M2086.52,1185.8c0,73.18-54.28,132.5-121.22,132.5s-121.24-59.32-121.24-132.5,54.28-132.51,121.24-132.51S2086.52,1112.62,2086.52,1185.8Z" opacity=".6"/><path fill="#fff" d="M1986.51,1089.34v20.72q19.82,1.89,33.38,9.94l-13.57,24.67q-11.74-8.39-23.11-8.39c-4.65,0-8.43,1-11.37,3s-4.4,4.25-4.4,6.76q0,3.43,3.48,6.51a25.83,25.83,0,0,0,9.17,5l10.83,3.43q18.15,5.82,26.22,14.3t8.07,22a47.83,47.83,0,0,1-2,14.56,29.82,29.82,0,0,1-6.6,11.31,42,42,0,0,1-12,8.74,105.24,105.24,0,0,1-18.07,6.85V1260h-16.87v-20.38a61.62,61.62,0,0,1-12.11-1.29,98.58,98.58,0,0,1-12.65-3.43,83.12,83.12,0,0,1-11.64-5,44.87,44.87,0,0,1-8.9-5.91l14.85-25.88q17.25,14.24,33.57,14.23a20.53,20.53,0,0,0,11.83-3.43q5-3.42,5-8.91,0-7.53-11.92-11.13l-10.45-3.09a98.14,98.14,0,0,1-16-6,39.45,39.45,0,0,1-10.82-7.53,27.55,27.55,0,0,1-6.24-9.68,35.5,35.5,0,0,1-2-12.43,44.38,44.38,0,0,1,2.29-14.21,35.66,35.66,0,0,1,7-12.25,39.77,39.77,0,0,1,11.64-9.08,43.45,43.45,0,0,1,16.51-4.55v-20.72Z" opacity=".5"/><path fill="#cadeff" d="M711.85,1572.2a8.09,8.09,0,0,1,0,11.43L609.19,1692.07a8.08,8.08,0,0,1-11.41.67L536,1634.31a8.09,8.09,0,0,1,0-11.43L638.7,1514.44a8.08,8.08,0,0,1,11.4-.67Z"/><path fill="#fff" d="M694.18,1571.66a8.21,8.21,0,1,1-11.61.31A8.21,8.21,0,0,1,694.18,1571.66Z" opacity=".5"/><path fill="#fff" d="M684.75,1581.62a8.22,8.22,0,1,1-11.62.32A8.22,8.22,0,0,1,684.75,1581.62Z" opacity=".5"/><rect width="165.96" height="25.78" x="525.16" y="1575.41" fill="#bbd5fc" transform="rotate(-46.58 608.066 1588.217)"/><path fill="#cadeff" d="M1274.82,511.43a8.09,8.09,0,0,1-10.79,3.76L1127.71,454.3a8.08,8.08,0,0,1-4.42-10.54L1158,366.14a8.08,8.08,0,0,1,10.8-3.75l136.33,60.88a8.08,8.08,0,0,1,4.41,10.54Z"/><path fill="#fff" d="M1269.48,494.58a8.21,8.21,0,1,1-4.15-10.85A8.22,8.22,0,0,1,1269.48,494.58Z" opacity=".5"/><path fill="#fff" d="M1257,489a8.22,8.22,0,1,1-4.16-10.85A8.22,8.22,0,0,1,1257,489Z" opacity=".5"/><rect width="25.78" height="165.96" x="1212.37" y="335.94" fill="#bbd5fc" transform="rotate(-65.93 1225.35 418.892)"/><path fill="#cadeff" d="M2303,1631.35a8.09,8.09,0,0,1-5.18,10.18l-140.47,50.6a8.08,8.08,0,0,1-10.49-4.54l-28.81-80a8.07,8.07,0,0,1,5.18-10.18l140.46-50.61a8.09,8.09,0,0,1,10.49,4.54Z"/><path fill="#fff" d="M2287.43,1622.9a8.22,8.22,0,1,1-10.52-5A8.22,8.22,0,0,1,2287.43,1622.9Z" opacity=".5"/><path fill="#fff" d="M2274.52,1627.55a8.22,8.22,0,1,1-10.52-5A8.21,8.21,0,0,1,2274.52,1627.55Z" opacity=".5"/><rect width="165.96" height="25.78" x="2120.13" y="1586.11" fill="#bbd5fc" transform="rotate(-19.81 2203.257 1599.09)"/><path fill="#bbd5fc" d="M1009.4 926.77a23.37 23.37 0 1123.35-23.36A23.39 23.39 0 011009.4 926.77zm0-43.41a20 20 0 1020 20A20.07 20.07 0 001009.4 883.36zM1210.73 364.1a23.31 23.31 0 1123.3-23.32A23.34 23.34 0 011210.73 364.1zm0-43.31a20 20 0 1020 20A20 20 0 001210.73 320.79zM2152.93 1037.85a23.31 23.31 0 1123.31-23.31A23.34 23.34 0 012152.93 1037.85zm0-43.31a20 20 0 1020 20A20 20 0 002152.93 994.54zM1852.13 1140.72a21.65 21.65 0 11-21.65-21.65A21.65 21.65 0 011852.13 1140.72zM1174.2 789.85A13.88 13.88 0 111160.33 776 13.87 13.87 0 011174.2 789.85z"/><path fill="#fddca7" d="M2114.59 1498.44a11.62 11.62 0 11-11.62-11.62A11.62 11.62 0 012114.59 1498.44zM2345.66 1014.54a11.62 11.62 0 11-11.61-11.62A11.61 11.61 0 012345.66 1014.54zM1688 366a11.62 11.62 0 11-11.62-11.62A11.61 11.61 0 011688 366zM933.85 787.93a11.62 11.62 0 11-11.61-11.62A11.61 11.61 0 01933.85 787.93zM1976.9 1803.37a11.61 11.61 0 11-11.61-11.62A11.61 11.61 0 011976.9 1803.37zM710.84 1396.3a11.62 11.62 0 11-11.62-11.62A11.62 11.62 0 01710.84 1396.3z"/><path fill="#6683ff" d="M1985.66,1495.76a31,31,0,0,1-31,31l-343.42-198.4L1234,1526.76a31,31,0,0,1-31-31V472.26a31,31,0,0,1,31-31h720.68a31,31,0,0,1,31,31Z"/><path fill="#2337e8" d="M1259.07,1498.12a32.53,32.53,0,0,1-32.49-32.5V502.39a32.52,32.52,0,0,1,32.49-32.48h217.65l.37,2.89a26.33,26.33,0,0,0,26.06,22.94h169.22a26.33,26.33,0,0,0,26.06-22.94,3.32,3.32,0,0,1,6.58.84,33,33,0,0,1-32.64,28.73H1503.15A33,33,0,0,1,1471,476.53h-212a25.89,25.89,0,0,0-25.86,25.86v963.23a25.9,25.9,0,0,0,25.86,25.87,3.32,3.32,0,0,1,0,6.63Z"/><path fill="#060555" d="M1230,1124s-74.6-79.45-49.4-172.45,123-125,192.79-105.61,107.54,126.92,31,172.45Z"/><path fill="#01011e" d="M1414.06,959.43s-35.85,22.49-66.85,22.78-53.28,5.13-63,13.85-55.22-30-64.91,24.22c-6,33.74-4.94,62.44-8.61,78.33A205.25,205.25,0,0,0,1230,1124l139.91-84.73-17.84-23.79S1412.12,975.11,1414.06,959.43Z"/><path fill="#fdb2d0" d="M1427.62,987.34s-33.91,174.38-111.41,156.95c0,0-12.59,52.31,9.69,64.91,0,0-18.41,60.06-81.39,54.25s-80.41-56.19-74.59-91.07c0,0,58.12-28.09,74.59-100.75,0,0,0-5.82-8.71-22.29S1233.86,999,1255.17,998s1,41.65,13.56,39.72,9.69-35.85,59.1-39.72,65.88-13.2,86.23-38.57c0,0-3.88,31.79-46.5,51.16C1367.56,1010.59,1402.43,1011.56,1427.62,987.34Z"/><path fill="#ff82b2" d="M1271.64,1092.94s10.2,76,42.49,97.35c-4.22-19.78,2.08-46,2.08-46S1290.05,1132.66,1271.64,1092.94Z"/><path fill="#fff" d="M1397.27,1005.43s18.73,18.73,16.79,21.31"/><path d="M1415.38 1027.74l-2.65-2a.92.92 0 00-.19.52c-.16-2.15-8.66-11.88-16.44-19.65l2.34-2.35C1418.19 1024 1416.15 1026.71 1415.38 1027.74zM1390.56 1044.88c-1.37 3.68-4.1 6-6.11 5.31s-2.52-4.34-1.15-8 4.1-6 6.11-5.31S1391.93 1041.21 1390.56 1044.88zM1330.49 1024.23c-1.37 3.68-4.1 6-6.1 5.31s-2.52-4.34-1.16-8 4.11-6 6.11-5.31S1331.87 1020.56 1330.49 1024.23z"/><path fill="#ff82b2" d="M1348.77,1081.65c-3.51,0-7.56-2.2-12.08-6.57l2.31-2.39c3.3,3.2,8,6.7,11.45,5.32,4.77-1.9,6.24-12.06,6.41-15.82l3.31.14c-.07,1.6-.89,15.73-8.49,18.76A7.73,7.73,0,0,1,1348.77,1081.65Z"/><path fill="#fdb2d0" d="M1479,1351.61l.32-18.08s18.09-18.73,9.37-29.39l-3.66-4.2s-31,31-38.36,25.84,22.19-53.44,22.19-53.44-24.92-9.86-23.38-25.36,9.19,4.85,49-4.84,68.19-4.85,83,9.69,14.85,61,9,69.75-39.84,30-40.27,56.19C1546.24,1377.77,1490.6,1370,1479,1351.61Z"/><path fill="#ff82b2" d="M1481.36 1331.18c-1.22 1.45-2.07 2.35-2.07 2.35l-.32 18.08c11.63 18.41 67.27 26.16 67.27 26.16.23-14.12 10.25-26.8 20.34-36.88C1510.71 1357.19 1489.25 1342 1481.36 1331.18zM1500.76 1313.27a12.8 12.8 0 01-2.22-.19c-9-1.54-14.75-11.9-15-12.34l-.52-.94 21.42-28.46 2.65 2L1487 1300c1.52 2.38 6.1 8.75 12.11 9.77 3.35.57 6.74-.64 10.08-3.61 13.51-12 15.63-19.51 15.64-19.59l3.22.82c-.09.34-2.23 8.4-16.66 21.24C1508 1311.73 1504.4 1313.27 1500.76 1313.27z"/><path fill="#ff82b2" d="M1518.84,1323.58a9.25,9.25,0,0,1-7.14-2.91c-4.25-4.63-3.1-13.11-3-13.47l3.28.47c0,.07-1,7.29,2.22,10.77a6.24,6.24,0,0,0,5.31,1.81c10-.57,13-13,13-13.18l3.24.73c-.14.61-3.51,15-16,15.76Z"/><path fill="#ff82b2" d="M1534.39 1330.39a16.23 16.23 0 01-6.33-1.21 12.74 12.74 0 01-6.84-6.68l3.11-1.16a9.38 9.38 0 005.09 4.81c4.07 1.69 9.51 1.06 16.15-1.88 18.82-8.34 27.17-11 27.51-11.16l1 3.15c-.08 0-8.56 2.78-27.18 11A31.48 31.48 0 011534.39 1330.39zM1470.28 1273.15l-2.89-1.63c.56-1 13.87-24.41 21.57-29.76l1.89 2.73C1483.77 1249.4 1470.41 1272.92 1470.28 1273.15z"/><path fill="#4052f2" d="M1321.7,1705.55l16.14,11.63,25.2,279H844.79s28.68-246.73,113.93-320.36C958.72,1675.84,1189,1736.55,1321.7,1705.55Z"/><path fill="#060555" d="M1134.4 1763.68c100-4.76 169.82-33.79 204.75-32l-1.31-14.52-16.14-11.63c-132.66 31-363-29.71-363-29.71-9.1 7.85-17.54 17.69-25.38 29C966.9 1728.46 1038.36 1768.26 1134.4 1763.68zM1188.77 1908.36c-11.77 6.92-32.76 62.25-42 87.84h43.1C1177.06 1961.13 1202.27 1900.42 1188.77 1908.36z" opacity=".5"/><path fill="#ff82b2" d="M1312.39,1090.68l5.78,4.75c.88.65,1.76,1.41,2.75,2.12s2,1.51,3,2.25,2.18,1.45,3.27,2.22,2.3,1.38,3.48,2a35.79,35.79,0,0,0,3.57,1.66c.61.23,1.2.48,1.79.73s1.21.34,1.8.54l1.77.55,1.74.32a18.22,18.22,0,0,0,3.29.52c1,.05,2,.25,2.91.29s1.67,0,2.33,0c1.32,0,2.13.12,2.13.12s-.61.45-1.79,1.15c-.59.34-1.31.78-2.18,1.2a23.15,23.15,0,0,1-3.08,1c-.58.15-1.19.36-1.83.47l-2,.19-2.16.14c-.73,0-1.47-.14-2.24-.22a19,19,0,0,1-4.63-1,26.57,26.57,0,0,1-4.49-1.86,30.89,30.89,0,0,1-7.49-5.63,28,28,0,0,1-2.78-3.22,29.81,29.81,0,0,1-2.08-3.14A23.61,23.61,0,0,1,1312.39,1090.68Z"/><path fill="#fcaa23" d="M1577.48,1358.09s-3.88,171.79-89.13,282.89-150.52-10.35-150.52-10.35v86.54s-59.83,1.31-127.11,22a175.4,175.4,0,0,1-26.62,5.74h0a309.57,309.57,0,0,1-39,2.86,429.38,429.38,0,0,1-62.19-3.76,422.67,422.67,0,0,1-42.55-7.71c-38.29-9-72.66-23.21-93.28-42.35,0,0-96.88-2.56-102-77.51s72.32-275,118.82-352.57,142.69-98.55,211.51-94.52c0,0-11.28,68,60.42,80.57s78.31-59.6,78.31-59.6,55.89,21.74,83.52,53.4c5.54,6.36,10,13.1,12.55,20.15,1.75,4.77,3.65,10,5.58,15.46,6.09,16.82,13,36.2,19.11,53.63,5.62,16.17,10.66,30.62,13.84,39.69l3.44,10,27.13-49.1S1511.6,1389.09,1577.48,1358.09Z"/><path fill="#ff7708" d="M1452.16 1382.62s-2.78-8-7.06-20.33c-14.26 41-23.93 96-23.93 96zM1352.05 1328.36s-17.44 241.55-14.21 320.35v-18.08a148.66 148.66 0 0029.68 36.74C1362.43 1597.38 1349.44 1407.67 1352.05 1328.36zM1093.06 1299.94s6.46 100.76-53 227.35c0 0 184.07 10.33 231.54 5.17 0 0 4.85 6.76 50.06 1.44l15.75 2v-16.72s-210.21 7.08-247-8.08S1126.65 1399.4 1093.06 1299.94z" opacity=".8"/><path fill="#ff7708" d="M947.09,1693.92s245.19,6.46,317.77-32.29c0,0,0-43.59,25.19-47.47s47.4-15.5,47.4-15.5v29.06s-38.68,2-50.31,24.22-26.16,39.73-152.1,52.32-170.31,2.92-170.31,2.92Z" opacity=".8"/><path fill="#ff82b2" d="M1461.91 1552.85l-.12-3.32c26-1 71.31-15 71.77-15.17l1 3.17C1532.67 1538.11 1488.32 1551.88 1461.91 1552.85zM1476.86 1573.63a65.59 65.59 0 01-7.78-.45l.4-3.29c23.42 2.81 49.09-9.49 49.34-9.61l1.45 3C1519.31 1563.73 1498.68 1573.63 1476.86 1573.63z"/><path fill="#2b72c9" d="M1793.46,1637.83c-4.48,104.22-51.78,225.65-103.58,223.43-43-1.85-75.53-88.15-82.85-177-.87-10.39-1.4-20.81-1.5-31.13q-.19-11.82.31-23.34c4.48-104.27,48.45-148.23,100.26-146,25.35,1.09,47.84,13.07,63.64,37.14l0,0a113,113,0,0,1,10.12,19C1790,1564.22,1795.23,1596.56,1793.46,1637.83Z"/><g opacity=".5"><path fill="#221e99" d="M1724.73 1583.08a15.62 15.62 0 11-15.62-15.61A15.62 15.62 0 011724.73 1583.08zM1678.66 1515a15.61 15.61 0 11-15.61-15.62A15.61 15.61 0 011678.66 1515zM1778 1540a15.62 15.62 0 11-15.2-19.22 15.09 15.09 0 014.22.58l0 0A113.59 113.59 0 011778 1540zM1778.44 1636.44a15.61 15.61 0 11-15.62-15.61A15.62 15.62 0 011778.44 1636.44zM1642.4 1602.54a15.62 15.62 0 11-15.62-15.62A15.61 15.61 0 011642.4 1602.54zM1702 1648.18a15.62 15.62 0 11-15.62-15.6A15.62 15.62 0 011702 1648.18zM1762.82 1708.2a15.61 15.61 0 11-15.6-15.61A15.61 15.61 0 011762.82 1708.2zM1686.41 1714.61A15.61 15.61 0 111670.8 1699 15.61 15.61 0 011686.41 1714.61zM1626.77 1675.85a15.64 15.64 0 01-15.27 15.63c-1.31-10.35-2.28-20.74-2.83-31a17 17 0 012.49-.19A15.59 15.59 0 011626.77 1675.85zM1717.49 1783.53a15.62 15.62 0 11-15.62-15.61A15.63 15.63 0 011717.49 1783.53z"/></g><path fill="#5990fd" d="M1870.07,1725.79c-31.32,72.54-97.57,145.68-133.64,130.11-29.9-12.91-29.64-82.76-10.81-147.62,2.19-7.59,4.64-15.11,7.34-22.43q3.07-8.41,6.53-16.43c31.33-72.57,74.31-91.8,110.37-76.23,17.64,7.62,30.32,22.17,35,43.47v0a85.53,85.53,0,0,1,2,16.22C1887.52,1672.78,1882.47,1697.06,1870.07,1725.79Z"/><g opacity=".5"><path fill="#221e99" d="M1840.75 1670.78a11.82 11.82 0 11-6.16-15.55A11.8 11.8 0 011840.75 1670.78zM1829.16 1609.63a11.82 11.82 0 11-6.17-15.55A11.82 11.82 0 011829.16 1609.63zM1890.76 1656.79a11.83 11.83 0 11-4.79-17.94 11.47 11.47 0 012.76 1.69l0 0A85.34 85.34 0 011890.76 1656.79zM1862.09 1724a11.82 11.82 0 11-6.17-15.53A11.82 11.82 0 011862.09 1724zM1777.67 1659.59a11.82 11.82 0 11-6.17-15.55A11.81 11.81 0 011777.67 1659.59zM1805.44 1709.23a11.83 11.83 0 11-6.18-15.55A11.84 11.84 0 011805.44 1709.23zM1829.69 1769.21a11.82 11.82 0 11-6.17-15.54A11.83 11.83 0 011829.69 1769.21zM1774.64 1750.73a11.82 11.82 0 11-6.18-15.54A11.84 11.84 0 011774.64 1750.73zM1744.8 1705.88a11.85 11.85 0 01-15.31 6.28c2.2-7.59 4.64-15.11 7.35-22.44a14.52 14.52 0 011.79.61A11.82 11.82 0 011744.8 1705.88zM1775.55 1808a11.82 11.82 0 11-6.17-15.55A11.8 11.8 0 011775.55 1808z"/></g><path fill="#5990fd" d="M1633.47,1672.7c50.78,60.54,86.4,152.58,56.31,177.82-25,20.92-87.27-10.67-136.78-56.6-5.8-5.37-11.41-10.92-16.75-16.63q-6.13-6.52-11.76-13.21c-50.77-60.56-48.66-107.59-18.57-132.83,14.72-12.35,33.42-17.15,54.55-11.77h0a85.52,85.52,0,0,1,15.41,5.48C1593.94,1633.32,1613.37,1648.73,1633.47,1672.7Z"/><g opacity=".4"><path fill="#221e99" d="M1566 1675.93a11.82 11.82 0 11-16.65-1.47A11.81 11.81 0 011566 1675.93zM1506.11 1658.84a11.83 11.83 0 11-16.66-1.46A11.83 11.83 0 011506.11 1658.84zM1575.91 1625a11.83 11.83 0 11-18.18-3.76 11.33 11.33 0 012.74-1.72h0A85.52 85.52 0 011575.91 1625zM1623.1 1680.76a11.82 11.82 0 11-16.66-1.47A11.78 11.78 0 011623.1 1680.76zM1527.66 1727.28a11.82 11.82 0 11-16.67-1.47A11.81 11.81 0 011527.66 1727.28zM1584.47 1724.75a11.82 11.82 0 11-16.66-1.46A11.83 11.83 0 011584.47 1724.75zM1649 1730a11.83 11.83 0 11-16.65-1.46A11.82 11.82 0 011649 1730zM1607.73 1770.89a11.83 11.83 0 11-16.66-1.45A11.84 11.84 0 011607.73 1770.89zM1554.26 1777.43a11.83 11.83 0 01-1.26 16.49c-5.8-5.37-11.41-10.92-16.75-16.63a15.44 15.44 0 011.35-1.33A11.82 11.82 0 011554.26 1777.43zM1659.31 1795.77a11.83 11.83 0 11-16.67-1.46A11.83 11.83 0 011659.31 1795.77z"/></g><path fill="#efa003" d="M1676.42,925.91c-74.8,0-135.42-20.63-135.42-46.06s60.62-46.05,135.42-46.05,135.4,20.62,135.4,46.05S1751.2,925.91,1676.42,925.91Z"/><path fill="#f9c04e" d="M1676.42,915.33c-74.8,0-135.42-20.62-135.42-46.05s60.62-46,135.42-46,135.4,20.62,135.4,46S1751.2,915.33,1676.42,915.33Z"/><path fill="#ff7708" d="M1676.42,911.27c-68.2,0-123.49-18.8-123.49-42s55.29-42,123.49-42,123.48,18.8,123.48,42S1744.61,911.27,1676.42,911.27Z" opacity=".6"/><path fill="#fff" d="M1766.33,876.62H1747q-1.76,6.87-9.26,11.57l-23-4.71q7.82-4.07,7.82-8,0-2.41-2.79-3.94a12.94,12.94,0,0,0-6.31-1.52,15.61,15.61,0,0,0-6.07,1.2,12.79,12.79,0,0,0-4.63,3.18l-3.19,3.75a30.91,30.91,0,0,1-13.33,9.08q-7.9,2.81-20.52,2.8a118.18,118.18,0,0,1-13.57-.7,51.24,51.24,0,0,1-10.54-2.29,30.28,30.28,0,0,1-8.14-4.16,32,32,0,0,1-6.38-6.26h-19.8v-5.84h19a8.83,8.83,0,0,1,1.2-4.19,21.11,21.11,0,0,1,3.19-4.39,29.57,29.57,0,0,1,4.63-4,28.29,28.29,0,0,1,5.51-3.08l24.11,5.14q-13.26,6-13.26,11.63,0,2.34,3.2,4.1a17.25,17.25,0,0,0,8.3,1.74q7,0,10.38-4.13l2.87-3.62a30.36,30.36,0,0,1,5.59-5.52,26.67,26.67,0,0,1,7-3.75,43.07,43.07,0,0,1,9-2.16,84.39,84.39,0,0,1,11.58-.7,107.34,107.34,0,0,1,13.25.79,62.67,62.67,0,0,1,11.42,2.42,31.4,31.4,0,0,1,8.46,4,9.94,9.94,0,0,1,4.23,5.72h19.32Z" opacity=".3"/><path fill="#efa003" d="M1682,781.61C1682,856.4,1630.2,917,1566.28,917s-115.73-60.62-115.73-135.41,51.81-135.41,115.73-135.41S1682,706.83,1682,781.61Z"/><path fill="#f9c04e" d="M1665.69,781.61C1665.69,856.4,1613.87,917,1550,917s-115.73-60.62-115.73-135.41S1486,646.2,1550,646.2,1665.69,706.83,1665.69,781.61Z"/><path fill="#ff7708" d="M1655.5,781.61c0,68.2-47.26,123.49-105.54,123.49s-105.53-55.29-105.53-123.49S1491.68,658.13,1550,658.13,1655.5,713.42,1655.5,781.61Z" opacity=".6"/><path fill="#fff" d="M1568.44,691.72V711q17.24,1.76,29,9.26l-11.81,23q-10.23-7.83-20.12-7.82a16.41,16.41,0,0,0-9.9,2.79q-3.83,2.79-3.83,6.3a8.32,8.32,0,0,0,3,6.07,22.14,22.14,0,0,0,8,4.63l9.42,3.2q15.8,5.43,22.83,13.33t7,20.51a48,48,0,0,1-1.75,13.57,28.48,28.48,0,0,1-5.75,10.54,36.84,36.84,0,0,1-10.46,8.14,87.88,87.88,0,0,1-15.72,6.39v19.8h-14.69v-19a50.19,50.19,0,0,1-10.54-1.2,81.39,81.39,0,0,1-11-3.19,71.32,71.32,0,0,1-10.14-4.63,39.27,39.27,0,0,1-7.74-5.51l12.93-24.11q15,13.26,29.22,13.25a17,17,0,0,0,10.3-3.19,9.82,9.82,0,0,0,4.39-8.3q0-7-10.38-10.38l-9.1-2.87a84.21,84.21,0,0,1-13.89-5.59,34.59,34.59,0,0,1-9.42-7,25.71,25.71,0,0,1-5.43-9,35,35,0,0,1-1.75-11.57,44.23,44.23,0,0,1,2-13.26,34.05,34.05,0,0,1,6.07-11.41,35.06,35.06,0,0,1,10.14-8.46,35.73,35.73,0,0,1,14.37-4.23V691.72Z" opacity=".3"/><g opacity=".5"><path fill="#fff" d="M1009.32 1331.18a21.65 21.65 0 11-21.64-21.64A21.64 21.64 0 011009.32 1331.18zM1052.62 1222.6A21.65 21.65 0 111031 1201 21.64 21.64 0 011052.62 1222.6zM1095.91 1307.43a21.65 21.65 0 11-21.64-21.64A21.64 21.64 0 011095.91 1307.43zM1152.21 1222.6a21.65 21.65 0 11-21.65-21.65A21.65 21.65 0 011152.21 1222.6zM1184.59 1312.58a21.65 21.65 0 11-21.65-21.64A21.65 21.65 0 011184.59 1312.58zM1074.27 1418a21.65 21.65 0 11-21.65-21.65A21.64 21.64 0 011074.27 1418zM943.88 1410.3a21.65 21.65 0 11-21.64-21.64A21.64 21.64 0 01943.88 1410.3zM1009.32 1483.06a21.65 21.65 0 11-21.64-21.64A21.64 21.64 0 011009.32 1483.06zM909.74 1516.86a21.65 21.65 0 11-21.65-21.65A21.64 21.64 0 01909.74 1516.86zM987.68 1572A21.65 21.65 0 11966 1550.32 21.64 21.64 0 01987.68 1572zM1095.91 1557.92a21.65 21.65 0 11-21.64-21.65A21.65 21.65 0 011095.91 1557.92zM1052.62 1651.81a21.65 21.65 0 11-21.64-21.65A21.64 21.64 0 011052.62 1651.81zM922.24 1632.57a21.65 21.65 0 11-21.65-21.65A21.65 21.65 0 01922.24 1632.57zM1162.94 1624.9a21.65 21.65 0 11-21.65-21.65A21.66 21.66 0 011162.94 1624.9zM1232.78 1557.92a21.65 21.65 0 11-21.65-21.65A21.65 21.65 0 011232.78 1557.92zM1247.66 1644.31a21.65 21.65 0 11-21.64-21.65A21.65 21.65 0 011247.66 1644.31zM1163.92 1418a21.65 21.65 0 11-21.65-21.65A21.65 21.65 0 011163.92 1418zM1247.66 1395.25a21.65 21.65 0 11-21.64-21.64A21.64 21.64 0 011247.66 1395.25zM1289.91 1314.8a21.65 21.65 0 11-21.65-21.65A21.66 21.66 0 011289.91 1314.8zM1353.87 1244.24a21.65 21.65 0 11-21.64-21.64A21.64 21.64 0 011353.87 1244.24zM1384.68 1331.18a21.65 21.65 0 11-21.64-21.64A21.64 21.64 0 011384.68 1331.18zM1334 1395.25a21.65 21.65 0 11-21.65-21.64A21.65 21.65 0 011334 1395.25zM1293.29 1470.67a21.65 21.65 0 11-21.65-21.65A21.65 21.65 0 011293.29 1470.67zM1185.56 1497.87a21.65 21.65 0 11-21.64-21.65A21.64 21.64 0 011185.56 1497.87zM1419.76 1432a21.65 21.65 0 11-21.65-21.65A21.66 21.66 0 011419.76 1432zM1448.71 1372.62a21.22 21.22 0 01-11.79 3.53 21.66 21.66 0 01-2.05-43.22C1440.49 1349.1 1445.53 1363.55 1448.71 1372.62zM1415.76 1279.3c-.54 0-1.12.08-1.7.08a21.68 21.68 0 01-21.67-21.66 21.46 21.46 0 015.24-14c5.54 6.36 10 13.1 12.55 20.15C1411.93 1268.61 1413.83 1273.8 1415.76 1279.3zM1519.59 1418A21.65 21.65 0 111498 1396.3 21.64 21.64 0 011519.59 1418zM1436.92 1630.16a21.65 21.65 0 11-21.65-21.64A21.65 21.65 0 011436.92 1630.16zM1334 1686.36a21.65 21.65 0 11-21.65-21.65A21.65 21.65 0 011334 1686.36zM1185.57 1737a21.22 21.22 0 01-1.47 7.87h0a309.57 309.57 0 01-39 2.86 21.65 21.65 0 1140.46-10.73zM1083.38 1739.49a21.24 21.24 0 01-.46 4.49 422.67 422.67 0 01-42.55-7.71 21.62 21.62 0 0143 3.22z"/></g><path fill="#4052f2" d="M1256,1275.65a127.33,127.33,0,0,1-22.72-2.16c-29.84-5.38-51.94-18.17-65.67-38-21-30.28-14.78-65.72-14.5-67.21a3.31,3.31,0,0,1,6.52,1.19,96.36,96.36,0,0,0,3.84,43c9.92,29.46,33.81,47.81,71,54.52,27.37,5,49.43.94,65.57-11.88,25.83-20.53,27.91-57,27.93-57.38a3.29,3.29,0,0,1,3.47-3.15,3.33,3.33,0,0,1,3.15,3.48c-.08,1.62-2.27,39.87-30.42,62.23C1291.27,1270.51,1275.13,1275.65,1256,1275.65Z" opacity=".5"/><path fill="#060555" d="M1516.71,1583.15a11.16,11.16,0,0,1-15,4.78L1423.57,1563a11.17,11.17,0,0,1-4.78-15.06l122-225.44a11.17,11.17,0,0,1,15-4.79l89.71,17.19a11.16,11.16,0,0,1,4.78,15Z"/><path fill="#3a03c0" d="M1528.34,1583.15a11.17,11.17,0,0,1-15.06,4.78L1435.2,1563a11.17,11.17,0,0,1-4.78-15.06l121.94-225.44a11.18,11.18,0,0,1,15.06-4.79l89.71,17.19a11.18,11.18,0,0,1,4.78,15Z"/><path fill="#060555" d="M1597.51,1376.79c-3.31,7.81-9.24,12.76-13.25,11.06s-4.57-9.4-1.27-17.22,9.24-12.76,13.25-11.06S1600.82,1369,1597.51,1376.79Z"/><path fill="#fdb2d0" d="M1271.64,1532.46s-38.75,60.39-12.59,112.7c0,0,70.83-34.87,103.71-46.5s84.24,2.91,110.4,0,51.34-41.66,58.12-57.16,24.23-34.56,8.72-30.36-75.88,18.74-98.49,6.14c0,0-5.17-11.62,14.21-43.6,0,0-16.47-6.77-40.69,0s-36.82,48.45-69.76,57.16S1271.64,1532.46,1271.64,1532.46Z"/><path fill="#ff82b2" d="M1277.28,1533.28c-3.57-.46-5.64-.82-5.64-.82s-38.75,60.39-12.59,112.7c0,0,11.55-5.68,27.48-13.23C1261.53,1596.49,1272.22,1550,1277.28,1533.28Z"/><rect width="524.7" height="165.34" x="900.59" y="553.31" fill="#8ab1ff"/><path fill="#fff" d="M1033.74,642.61a46.07,46.07,0,1,1-46.07-46.07A46.06,46.06,0,0,1,1033.74,642.61Z" opacity=".8"/><path fill="#fcaa23" d="M961.65,625.59a11.33,11.33,0,0,1,1-4.77,9.92,9.92,0,0,1,2.73-3.59,12.77,12.77,0,0,1,4.18-2.23,17.22,17.22,0,0,1,5.38-.79,14.71,14.71,0,0,1,5,.85,12.34,12.34,0,0,1,4,2.36,10.24,10.24,0,0,1,2.64,3.62,11.13,11.13,0,0,1,.95,4.62,11.77,11.77,0,0,1-1,4.87,10.9,10.9,0,0,1-2.7,3.71,11.9,11.9,0,0,1-4.15,2.36,16.61,16.61,0,0,1-5.31.81q-5.85,0-9.31-3.17A11.15,11.15,0,0,1,961.65,625.59Zm7.61.13a5.38,5.38,0,0,0,1.51,3.77,5.19,5.19,0,0,0,5.88,1.2,6,6,0,0,0,1.7-1.17,5.59,5.59,0,0,0,1.16-1.69,5,5,0,0,0,.44-2.05,5.1,5.1,0,0,0-.44-2.1,5.38,5.38,0,0,0-1.19-1.7,5.61,5.61,0,0,0-1.74-1.13,5,5,0,0,0-2-.41,5.23,5.23,0,0,0-3.74,1.54A5,5,0,0,0,969.26,625.72Zm32.51-11h6.1l-27.48,47.4h-6.16Zm-7.17,36.15a11.21,11.21,0,0,1,1-4.75,10.28,10.28,0,0,1,2.7-3.58,11.84,11.84,0,0,1,4.18-2.26,17.46,17.46,0,0,1,5.41-.79,14.8,14.8,0,0,1,5.15.85,11.57,11.57,0,0,1,4,2.39,10.94,10.94,0,0,1,2.62,3.64,11.21,11.21,0,0,1,.94,4.56,12.07,12.07,0,0,1-.94,4.81,10.37,10.37,0,0,1-2.68,3.71,12,12,0,0,1-4.15,2.39,16,16,0,0,1-5.37.85,15.8,15.8,0,0,1-5.25-.82,11.52,11.52,0,0,1-4.06-2.36,10.26,10.26,0,0,1-2.61-3.74A12.62,12.62,0,0,1,994.6,650.87Zm7.67.13a5.27,5.27,0,0,0,1.54,3.83,5.35,5.35,0,0,0,8.71-5.88,5.21,5.21,0,0,0-1.2-1.69,5.55,5.55,0,0,0-1.72-1.14,5.13,5.13,0,0,0-2-.41,5.32,5.32,0,0,0-3.71,1.51A4.94,4.94,0,0,0,1002.27,651Z"/><path fill="#fff" d="M1358.51 618.22a4.85 4.85 0 01-4.84 4.85H1079.11a4.84 4.84 0 01-4.84-4.85h0a4.83 4.83 0 014.84-4.84h274.56a4.84 4.84 0 014.84 4.84zM1295.59 652.79c0 2.68-1.68 4.85-3.77 4.85H1078c-2.08 0-3.77-2.17-3.77-4.85h0c0-2.67 1.69-4.84 3.77-4.84h213.78c2.09 0 3.77 2.17 3.77 4.84z" opacity=".8"/><rect width="524.7" height="165.34" x="1849.08" y="1229.92" fill="#8ab1ff"/><path fill="#fff" d="M1993.06,1316.46a46.07,46.07,0,1,1-46.07-46.07A46.07,46.07,0,0,1,1993.06,1316.46Z" opacity=".7"/><path fill="#fff" d="M2316.7 1294.32a4.85 4.85 0 01-4.84 4.85H2037.3a4.85 4.85 0 01-4.84-4.85h0a4.84 4.84 0 014.84-4.84h274.56a4.84 4.84 0 014.84 4.84zM2253.78 1328.9c0 2.67-1.69 4.84-3.77 4.84H2036.23c-2.08 0-3.77-2.17-3.77-4.84h0c0-2.68 1.69-4.85 3.77-4.85H2250c2.08 0 3.77 2.17 3.77 4.85z" opacity=".8"/><rect width="524.7" height="165.35" x="1797.73" y="668.45" fill="#8ab1ff"/><path fill="#fff" d="M1948.58 713.58c-.44-6.65-5.18-4.68-5.18-4.68A56.77 56.77 0 011902 693.37a4.28 4.28 0 00-2-1.2v0l-.1 0-.07 0v0a4.15 4.15 0 00-2.07 1.2 56.78 56.78 0 01-41.42 15.53s-4.73-2-5.17 4.68-4.49 80.9 48.66 100v.06l.08 0 .09 0v-.06C1953.12 794.48 1949 720.23 1948.58 713.58zM2273.4 731.25a4.84 4.84 0 01-4.84 4.84H1994a4.84 4.84 0 01-4.84-4.84h0a4.84 4.84 0 014.84-4.84h274.56a4.84 4.84 0 014.84 4.84zM2210.48 765.82c0 2.68-1.69 4.85-3.77 4.85H1992.93c-2.08 0-3.77-2.17-3.77-4.85h0c0-2.67 1.69-4.84 3.77-4.84h213.78c2.08 0 3.77 2.17 3.77 4.84z" opacity=".8"/><polygon fill="#87a5ff" points="1887.64 772.39 1870.12 749.73 1875.36 745.68 1888.84 763.11 1924.98 735.39 1929.01 740.65 1887.64 772.39"/><polygon fill="#221e99" points="1840.99 1824.39 1836.32 1888.34 1831.68 1951.93 1828.47 1996.19 1561.15 1996.19 1557.93 1951.93 1553.3 1888.34 1548.62 1824.39 1840.99 1824.39"/><polygon fill="#fcaa23" points="1836.32 1888.34 1831.68 1951.93 1557.93 1951.93 1553.3 1888.34 1836.32 1888.34" opacity=".8"/><path fill="#01011e" d="M1558.31,1824.39h-9.69l4.68,63.95,4.63,63.59,3.22,44.26h267.32l1.6-22.1C1644.21,1973.74,1579.55,1876.17,1558.31,1824.39Z" opacity=".4"/><path fill="#3a03c0" d="M1793.84,1049.93a35,35,0,0,1-35,35h-271.6a35,35,0,0,1-35-35v-12.81a35,35,0,0,1,35-35h271.6a35,35,0,0,1,35,35Z"/><g clip-path="url(#a)" opacity=".4"><polygon fill="#3addc0" points="1370.85 1510.06 1540.74 1374.97 1540.74 1510.06 1370.85 1510.06"/><polygon fill="#3addc0" points="1366.55 1510.06 1540.74 1371.55 1540.74 1374.97 1370.85 1510.06 1366.55 1510.06"/><polygon fill="#3bddc0" points="1362.25 1510.06 1540.74 1368.13 1540.74 1371.55 1366.55 1510.06 1362.25 1510.06"/><polygon fill="#3cddc1" points="1357.95 1510.06 1540.74 1364.71 1540.74 1368.13 1362.25 1510.06 1357.95 1510.06"/><polygon fill="#3ddec1" points="1353.65 1510.06 1540.74 1361.29 1540.74 1364.71 1357.95 1510.06 1353.65 1510.06"/><polygon fill="#3edec1" points="1349.35 1510.06 1540.74 1357.87 1540.74 1361.29 1353.65 1510.06 1349.35 1510.06"/><polygon fill="#3fdec2" points="1345.05 1510.06 1540.74 1354.45 1540.74 1357.87 1349.35 1510.06 1345.05 1510.06"/><polygon fill="#40dec2" points="1340.75 1510.06 1540.74 1351.04 1540.74 1354.45 1345.05 1510.06 1340.75 1510.06"/><polygon fill="#41dec2" points="1336.45 1510.06 1540.74 1347.62 1540.74 1351.04 1340.75 1510.06 1336.45 1510.06"/><polygon fill="#42dec3" points="1332.16 1510.06 1540.74 1344.2 1540.74 1347.62 1336.45 1510.06 1332.16 1510.06"/><polygon fill="#43dfc3" points="1327.86 1510.06 1540.74 1340.78 1540.74 1344.2 1332.16 1510.06 1327.86 1510.06"/><polygon fill="#44dfc3" points="1323.56 1510.06 1540.74 1337.36 1540.74 1340.78 1327.86 1510.06 1323.56 1510.06"/><polygon fill="#45dfc4" points="1319.26 1510.06 1540.74 1333.94 1540.74 1337.36 1323.56 1510.06 1319.26 1510.06"/><polygon fill="#46dfc4" points="1314.96 1510.06 1540.74 1330.53 1540.74 1333.94 1319.26 1510.06 1314.96 1510.06"/><polygon fill="#47dfc4" points="1310.66 1510.06 1540.74 1327.11 1540.74 1330.53 1314.96 1510.06 1310.66 1510.06"/><polygon fill="#48dfc5" points="1306.36 1510.06 1540.74 1323.69 1540.74 1327.11 1310.66 1510.06 1306.36 1510.06"/><polygon fill="#49e0c5" points="1302.06 1510.06 1540.74 1320.27 1540.74 1323.69 1306.36 1510.06 1302.06 1510.06"/><polygon fill="#4ae0c5" points="1297.76 1510.06 1540.74 1316.85 1540.74 1320.27 1302.06 1510.06 1297.76 1510.06"/><polygon fill="#4be0c5" points="1293.46 1510.06 1540.74 1313.43 1540.74 1316.85 1297.76 1510.06 1293.46 1510.06"/><polygon fill="#4ce0c6" points="1289.16 1510.06 1540.74 1310.01 1540.74 1313.43 1293.46 1510.06 1289.16 1510.06"/><polygon fill="#4de0c6" points="1284.87 1510.06 1540.74 1306.6 1540.74 1310.01 1289.16 1510.06 1284.87 1510.06"/><polygon fill="#4ee0c6" points="1280.57 1510.06 1540.74 1303.18 1540.74 1306.6 1284.87 1510.06 1280.57 1510.06"/><polygon fill="#4fe1c7" points="1276.27 1510.06 1540.74 1299.76 1540.74 1303.18 1280.57 1510.06 1276.27 1510.06"/><polygon fill="#50e1c7" points="1271.97 1510.06 1540.74 1296.34 1540.74 1299.76 1276.27 1510.06 1271.97 1510.06"/><polygon fill="#51e1c7" points="1267.67 1510.06 1540.74 1292.92 1540.74 1296.34 1271.97 1510.06 1267.67 1510.06"/><polygon fill="#52e1c8" points="1263.37 1510.06 1540.74 1289.5 1540.74 1292.92 1267.67 1510.06 1263.37 1510.06"/><polygon fill="#53e1c8" points="1259.07 1510.06 1540.74 1286.08 1540.74 1289.5 1263.37 1510.06 1259.07 1510.06"/><polygon fill="#54e2c8" points="1254.77 1510.06 1540.74 1282.66 1540.74 1286.08 1259.07 1510.06 1254.77 1510.06"/><polygon fill="#55e2c9" points="1250.47 1510.06 1540.74 1279.25 1540.74 1282.66 1254.77 1510.06 1250.47 1510.06"/><polygon fill="#56e2c9" points="1246.17 1510.06 1540.74 1275.83 1540.74 1279.25 1250.47 1510.06 1246.17 1510.06"/><polygon fill="#57e2c9" points="1241.87 1510.06 1540.74 1272.41 1540.74 1275.83 1246.17 1510.06 1241.87 1510.06"/><polygon fill="#58e2ca" points="1237.58 1510.06 1540.74 1268.99 1540.74 1272.41 1241.87 1510.06 1237.58 1510.06"/><polygon fill="#59e2ca" points="1233.28 1510.06 1540.74 1265.57 1540.74 1268.99 1237.58 1510.06 1233.28 1510.06"/><polygon fill="#5ae3ca" points="1228.98 1510.06 1540.74 1262.15 1540.74 1265.57 1233.28 1510.06 1228.98 1510.06"/><polygon fill="#5be3cb" points="1224.68 1510.06 1540.74 1258.73 1540.74 1262.15 1228.98 1510.06 1224.68 1510.06"/><polygon fill="#5ce3cb" points="1220.38 1510.06 1540.74 1255.32 1540.74 1258.73 1224.68 1510.06 1220.38 1510.06"/><polygon fill="#5de3cb" points="1216.08 1510.06 1540.74 1251.9 1540.74 1255.32 1220.38 1510.06 1216.08 1510.06"/><polygon fill="#5ee3cc" points="1211.78 1510.06 1540.74 1248.48 1540.74 1251.9 1216.08 1510.06 1211.78 1510.06"/><polygon fill="#5fe3cc" points="1207.48 1510.06 1540.74 1245.06 1540.74 1248.48 1211.78 1510.06 1207.48 1510.06"/><polygon fill="#60e4cc" points="1206.06 1510.06 1204.94 1508.66 1540.74 1241.64 1540.74 1245.06 1207.48 1510.06 1206.06 1510.06"/><polygon fill="#61e4cd" points="1204.94 1508.66 1203.28 1506.56 1540.74 1238.22 1540.74 1241.64 1204.94 1508.66"/><polygon fill="#62e4cd" points="1203.28 1506.56 1201.61 1504.47 1540.74 1234.8 1540.74 1238.22 1203.28 1506.56"/><polygon fill="#63e4cd" points="1201.61 1504.47 1199.95 1502.38 1540.74 1231.39 1540.74 1234.8 1201.61 1504.47"/><polygon fill="#64e4ce" points="1199.95 1502.38 1198.28 1500.28 1540.74 1227.97 1540.74 1231.39 1199.95 1502.38"/><polygon fill="#65e4ce" points="1198.28 1500.28 1196.62 1498.19 1540.74 1224.55 1540.74 1227.97 1198.28 1500.28"/><polygon fill="#66e5ce" points="1196.62 1498.19 1194.95 1496.09 1540.74 1221.13 1540.74 1224.55 1196.62 1498.19"/><polygon fill="#67e5ce" points="1194.95 1496.09 1193.29 1494 1540.74 1217.71 1540.74 1221.13 1194.95 1496.09"/><polygon fill="#68e5cf" points="1193.29 1494 1191.62 1491.9 1540.74 1214.29 1540.74 1217.71 1193.29 1494"/><polygon fill="#69e5cf" points="1191.62 1491.9 1189.96 1489.81 1540.74 1210.87 1540.74 1214.29 1191.62 1491.9"/><polygon fill="#6ae5cf" points="1189.96 1489.81 1188.29 1487.71 1540.74 1207.45 1540.74 1210.87 1189.96 1489.81"/><polygon fill="#6be6d0" points="1188.29 1487.71 1186.63 1485.62 1540.74 1204.04 1540.74 1207.45 1188.29 1487.71"/><polygon fill="#6ce6d0" points="1186.63 1485.62 1184.96 1483.53 1540.74 1200.62 1540.74 1204.04 1186.63 1485.62"/><polygon fill="#6de6d0" points="1184.96 1483.53 1183.29 1481.43 1540.74 1197.2 1540.74 1200.62 1184.96 1483.53"/><polygon fill="#6ee6d1" points="1183.29 1481.43 1181.63 1479.34 1540.74 1193.78 1540.74 1197.2 1183.29 1481.43"/><polygon fill="#6fe6d1" points="1181.63 1479.34 1179.96 1477.24 1540.74 1190.36 1540.74 1193.78 1181.63 1479.34"/><polygon fill="#70e6d1" points="1179.96 1477.24 1178.3 1475.15 1540.74 1186.94 1540.74 1190.36 1179.96 1477.24"/><polygon fill="#71e7d2" points="1178.3 1475.15 1176.63 1473.06 1540.74 1183.53 1540.74 1186.94 1178.3 1475.15"/><polygon fill="#72e7d2" points="1176.63 1473.06 1174.97 1470.96 1540.74 1180.11 1540.74 1183.53 1176.63 1473.06"/><polygon fill="#73e7d2" points="1174.97 1470.96 1173.3 1468.87 1540.74 1176.69 1540.74 1180.11 1174.97 1470.96"/><polygon fill="#74e7d3" points="1173.3 1468.87 1171.64 1466.77 1540.74 1173.27 1540.74 1176.69 1173.3 1468.87"/><polygon fill="#75e7d3" points="1171.64 1466.77 1169.97 1464.68 1540.74 1169.85 1540.74 1173.27 1171.64 1466.77"/><polygon fill="#76e7d3" points="1169.97 1464.68 1168.31 1462.58 1540.74 1166.43 1540.74 1169.85 1169.97 1464.68"/><polygon fill="#77e8d4" points="1168.31 1462.58 1166.64 1460.49 1540.74 1163.01 1540.74 1166.43 1168.31 1462.58"/><polygon fill="#78e8d4" points="1166.64 1460.49 1164.97 1458.39 1540.74 1159.6 1540.74 1163.01 1166.64 1460.49"/><polygon fill="#79e8d4" points="1164.97 1458.39 1163.31 1456.3 1540.74 1156.18 1540.74 1159.6 1164.97 1458.39"/><polygon fill="#7ae8d5" points="1163.31 1456.3 1161.64 1454.21 1540.74 1152.76 1540.74 1156.18 1163.31 1456.3"/><polygon fill="#7be8d5" points="1161.64 1454.21 1159.98 1452.11 1540.74 1149.34 1540.74 1152.76 1161.64 1454.21"/><polygon fill="#7ce8d5" points="1159.98 1452.11 1158.31 1450.02 1540.74 1145.92 1540.74 1149.34 1159.98 1452.11"/><polygon fill="#7de9d6" points="1158.31 1450.02 1156.65 1447.92 1540.74 1142.5 1540.74 1145.92 1158.31 1450.02"/><polygon fill="#7ee9d6" points="1156.65 1447.92 1154.98 1445.83 1540.74 1139.08 1540.74 1142.5 1156.65 1447.92"/><polygon fill="#7fe9d6" points="1154.98 1445.83 1153.32 1443.73 1540.74 1135.66 1540.74 1139.08 1154.98 1445.83"/><polygon fill="#80e9d7" points="1153.32 1443.73 1151.65 1441.64 1540.74 1132.25 1540.74 1135.66 1153.32 1443.73"/><polygon fill="#81e9d7" points="1151.65 1441.64 1149.99 1439.55 1540.74 1128.83 1540.74 1132.25 1151.65 1441.64"/><polygon fill="#82e9d7" points="1149.99 1439.55 1148.32 1437.45 1540.74 1125.41 1540.74 1128.83 1149.99 1439.55"/><polygon fill="#83ead7" points="1148.32 1437.45 1146.66 1435.36 1540.74 1121.99 1540.74 1125.41 1148.32 1437.45"/><polygon fill="#84ead8" points="1146.66 1435.36 1144.99 1433.26 1540.74 1118.57 1540.74 1121.99 1146.66 1435.36"/><polygon fill="#85ead8" points="1144.99 1433.26 1143.33 1431.17 1540.74 1115.15 1540.74 1118.57 1144.99 1433.26"/><polygon fill="#86ead8" points="1143.33 1431.17 1141.66 1429.07 1540.74 1111.73 1540.74 1115.15 1143.33 1431.17"/><polygon fill="#87ead9" points="1141.66 1429.07 1139.99 1426.98 1540.74 1108.32 1540.74 1111.73 1141.66 1429.07"/><polygon fill="#88ebd9" points="1139.99 1426.98 1138.33 1424.89 1540.74 1104.9 1540.74 1108.32 1139.99 1426.98"/><polygon fill="#89ebd9" points="1138.33 1424.89 1136.66 1422.79 1540.74 1101.48 1540.74 1104.9 1138.33 1424.89"/><polygon fill="#8aebda" points="1136.66 1422.79 1135 1420.7 1540.74 1098.06 1540.74 1101.48 1136.66 1422.79"/><polygon fill="#8bebda" points="1135 1420.7 1133.33 1418.6 1540.74 1094.64 1540.74 1098.06 1135 1420.7"/><polygon fill="#8cebda" points="1133.33 1418.6 1131.67 1416.51 1540.74 1091.22 1540.74 1094.64 1133.33 1418.6"/><polygon fill="#8debdb" points="1131.67 1416.51 1130 1414.41 1540.74 1087.8 1540.74 1091.22 1131.67 1416.51"/><polygon fill="#8eecdb" points="1130 1414.41 1128.34 1412.32 1540.74 1084.39 1540.74 1087.8 1130 1414.41"/><polygon fill="#8fecdb" points="1128.34 1412.32 1126.67 1410.22 1540.74 1080.97 1540.74 1084.39 1128.34 1412.32"/><polygon fill="#90ecdc" points="1126.67 1410.22 1125.01 1408.13 1540.74 1077.55 1540.74 1080.97 1126.67 1410.22"/><polygon fill="#91ecdc" points="1125.01 1408.13 1123.34 1406.04 1540.74 1074.13 1540.74 1077.55 1125.01 1408.13"/><polygon fill="#92ecdc" points="1123.34 1406.04 1121.68 1403.94 1540.74 1070.71 1540.74 1074.13 1123.34 1406.04"/><polygon fill="#93ecdd" points="1121.68 1403.94 1120.01 1401.85 1540.74 1067.29 1540.74 1070.71 1121.68 1403.94"/><polygon fill="#94eddd" points="1120.01 1401.85 1118.35 1399.75 1540.28 1064.24 1540.74 1064.82 1540.74 1067.29 1120.01 1401.85"/><rect width="539.07" height="2.68" x="1058.94" y="1229.61" fill="#95eddd" transform="rotate(-38.49 1328.535 1230.97)"/><rect width="539.07" height="2.68" x="1057.28" y="1227.52" fill="#96edde" transform="rotate(-38.49 1326.857 1228.873)"/><rect width="539.07" height="2.68" x="1055.61" y="1225.42" fill="#97edde" transform="rotate(-38.49 1325.193 1226.782)"/><rect width="539.07" height="2.68" x="1053.95" y="1223.33" fill="#98edde" transform="rotate(-38.49 1323.529 1224.69)"/><rect width="539.07" height="2.68" x="1052.28" y="1221.23" fill="#99eddf" transform="rotate(-38.49 1321.865 1222.6)"/><rect width="539.07" height="2.68" x="1050.62" y="1219.14" fill="#9aeedf" transform="rotate(-38.49 1320.206 1220.494)"/><rect width="539.07" height="2.68" x="1048.95" y="1217.05" fill="#9beedf" transform="rotate(-38.49 1318.528 1218.398)"/><rect width="539.07" height="2.68" x="1047.29" y="1214.95" fill="#9deee0" transform="rotate(-38.49 1316.864 1216.306)"/><rect width="539.07" height="2.68" x="1045.62" y="1212.86" fill="#9eeee0" transform="rotate(-38.49 1315.2 1214.215)"/><rect width="539.07" height="2.68" x="1043.96" y="1210.76" fill="#9feee0" transform="rotate(-38.49 1313.536 1212.124)"/><rect width="539.07" height="2.68" x="1042.29" y="1208.67" fill="#a0efe0" transform="rotate(-38.49 1311.872 1210.033)"/><rect width="539.07" height="2.68" x="1040.62" y="1206.57" fill="#a1efe1" transform="rotate(-38.49 1310.213 1207.927)"/><rect width="539.07" height="2.68" x="1038.96" y="1204.48" fill="#a2efe1" transform="rotate(-38.49 1308.549 1205.836)"/><rect width="539.07" height="2.68" x="1037.29" y="1202.39" fill="#a3efe1" transform="rotate(-38.49 1306.87 1203.74)"/><rect width="539.07" height="2.68" x="1035.63" y="1200.29" fill="#a4efe2" transform="rotate(-38.49 1305.207 1201.648)"/><rect width="539.07" height="2.68" x="1033.96" y="1198.2" fill="#a5efe2" transform="rotate(-38.49 1303.543 1199.557)"/><rect width="539.07" height="2.68" x="1032.3" y="1196.1" fill="#a6f0e2" transform="rotate(-38.49 1301.879 1197.466)"/><rect width="539.07" height="2.68" x="1030.63" y="1194.01" fill="#a7f0e3" transform="rotate(-38.49 1300.215 1195.375)"/><rect width="539.07" height="2.68" x="1028.97" y="1191.91" fill="#a8f0e3" transform="rotate(-38.49 1298.556 1193.269)"/><rect width="539.07" height="2.68" x="1027.3" y="1189.82" fill="#a9f0e3" transform="rotate(-38.49 1296.878 1191.173)"/><rect width="539.07" height="2.68" x="1025.64" y="1187.73" fill="#aaf0e4" transform="rotate(-38.49 1295.214 1189.081)"/><rect width="539.07" height="2.68" x="1023.97" y="1185.63" fill="#abf0e4" transform="rotate(-38.49 1293.55 1186.99)"/><rect width="539.07" height="2.68" x="1022.31" y="1183.54" fill="#acf1e4" transform="rotate(-38.49 1291.886 1184.899)"/><rect width="539.07" height="2.68" x="1020.64" y="1181.44" fill="#adf1e5" transform="rotate(-38.49 1290.222 1182.808)"/><rect width="539.07" height="2.68" x="1018.97" y="1179.35" fill="#aef1e5" transform="rotate(-38.49 1288.563 1180.702)"/><rect width="539.07" height="2.68" x="1017.31" y="1177.25" fill="#aff1e5" transform="rotate(-38.49 1286.899 1178.61)"/><rect width="539.07" height="2.68" x="1015.64" y="1175.16" fill="#b0f1e6" transform="rotate(-38.49 1285.22 1176.515)"/><rect width="539.07" height="2.68" x="1013.98" y="1173.06" fill="#b1f1e6" transform="matrix(.78 -.62 .62 .78 -452.04 1054.04)"/><rect width="539.07" height="2.68" x="1012.31" y="1170.97" fill="#b2f2e6" transform="rotate(-38.49 1281.893 1172.332)"/><rect width="539.07" height="2.68" x="1010.65" y="1168.88" fill="#b3f2e7" transform="rotate(-38.49 1280.229 1170.24)"/><rect width="539.07" height="2.68" x="1008.98" y="1166.78" fill="#b4f2e7" transform="rotate(-38.49 1278.57 1168.135)"/><rect width="539.07" height="2.68" x="1007.32" y="1164.69" fill="#b5f2e7" transform="rotate(-38.49 1276.906 1166.044)"/><rect width="539.07" height="2.68" x="1005.65" y="1162.59" fill="#b6f2e8" transform="rotate(-38.49 1275.228 1163.948)"/><rect width="539.07" height="2.68" x="1003.99" y="1160.5" fill="#b7f3e8" transform="rotate(-38.49 1273.564 1161.857)"/><rect width="539.07" height="2.68" x="1002.32" y="1158.4" fill="#b8f3e8" transform="rotate(-38.49 1271.9 1159.765)"/><rect width="539.07" height="2.68" x="1000.66" y="1156.31" fill="#b9f3e9" transform="rotate(-38.49 1270.236 1157.674)"/><rect width="539.07" height="2.68" x="998.99" y="1154.22" fill="#baf3e9" transform="rotate(-38.49 1268.577 1155.568)"/><rect width="539.07" height="2.68" x="997.32" y="1152.12" fill="#bbf3e9" transform="rotate(-38.49 1266.913 1153.477)"/><rect width="539.07" height="2.68" x="995.66" y="1150.03" fill="#bcf3e9" transform="rotate(-38.49 1265.235 1151.381)"/><rect width="539.07" height="2.68" x="993.99" y="1147.93" fill="#bdf4ea" transform="rotate(-38.49 1263.57 1149.29)"/><rect width="539.07" height="2.68" x="992.33" y="1145.84" fill="#bef4ea" transform="rotate(-38.49 1261.907 1147.198)"/><rect width="539.07" height="2.68" x="990.66" y="1143.74" fill="#bff4ea" transform="rotate(-38.49 1260.243 1145.107)"/><rect width="539.07" height="2.68" x="989" y="1141.65" fill="#c0f4eb" transform="rotate(-38.49 1258.584 1143.002)"/><rect width="539.07" height="2.68" x="987.33" y="1139.56" fill="#c1f4eb" transform="rotate(-38.49 1256.92 1140.91)"/><rect width="539.07" height="2.68" x="985.67" y="1137.46" fill="#c2f4eb" transform="rotate(-38.49 1255.242 1138.814)"/><rect width="539.07" height="2.68" x="984" y="1135.37" fill="#c3f5ec" transform="rotate(-38.49 1253.578 1136.723)"/><rect width="539.07" height="2.68" x="982.34" y="1133.27" fill="#c4f5ec" transform="rotate(-38.49 1251.914 1134.632)"/><rect width="539.07" height="2.68" x="980.67" y="1131.18" fill="#c5f5ec" transform="rotate(-38.49 1250.25 1132.54)"/><rect width="539.07" height="2.68" x="979.01" y="1129.08" fill="#c6f5ed" transform="rotate(-38.49 1248.59 1130.435)"/><rect width="539.07" height="2.68" x="977.34" y="1126.99" fill="#c7f5ed" transform="rotate(-38.49 1246.927 1128.344)"/><rect width="539.07" height="2.68" x="975.67" y="1124.9" fill="#c8f5ed" transform="rotate(-38.49 1245.263 1126.252)"/><rect width="539.07" height="2.68" x="974.01" y="1122.8" fill="#c9f6ee" transform="rotate(-38.49 1243.585 1124.156)"/><polygon fill="#caf6ee" points="1031.74 1290.85 1031.09 1290.03 1031.09 1287.95 1452.01 953.24 1453.68 955.34 1031.74 1290.85"/><polygon fill="#cbf6ee" points="1031.09 1284.53 1450.35 951.15 1452.01 953.24 1031.09 1287.95 1031.09 1284.53"/><polygon fill="#ccf6ef" points="1031.09 1281.11 1448.68 949.05 1450.35 951.15 1031.09 1284.53 1031.09 1281.11"/><polygon fill="#cdf6ef" points="1031.09 1277.69 1447.02 946.96 1448.68 949.05 1031.09 1281.11 1031.09 1277.69"/><polygon fill="#cef7ef" points="1031.09 1274.28 1445.35 944.86 1447.02 946.96 1031.09 1277.69 1031.09 1274.28"/><polygon fill="#cff7f0" points="1031.09 1270.86 1443.69 942.77 1445.35 944.86 1031.09 1274.28 1031.09 1270.86"/><polygon fill="#d0f7f0" points="1031.09 1267.44 1442.02 940.67 1443.69 942.77 1031.09 1270.86 1031.09 1267.44"/><polygon fill="#d1f7f0" points="1031.09 1264.02 1440.36 938.58 1442.02 940.67 1031.09 1267.44 1031.09 1264.02"/><polygon fill="#d2f7f1" points="1031.09 1260.6 1438.69 936.49 1440.36 938.58 1031.09 1264.02 1031.09 1260.6"/><polygon fill="#d3f7f1" points="1031.09 1257.18 1437.03 934.39 1438.69 936.49 1031.09 1260.6 1031.09 1257.18"/><polygon fill="#d4f8f1" points="1031.09 1253.76 1435.36 932.3 1437.03 934.39 1031.09 1257.18 1031.09 1253.76"/><polygon fill="#d5f8f2" points="1031.09 1250.35 1433.69 930.2 1435.36 932.3 1031.09 1253.76 1031.09 1250.35"/><polygon fill="#d6f8f2" points="1031.09 1246.93 1432.03 928.11 1433.69 930.2 1031.09 1250.35 1031.09 1246.93"/><polygon fill="#d7f8f2" points="1031.09 1243.51 1430.36 926.01 1432.03 928.11 1031.09 1246.93 1031.09 1243.51"/><polygon fill="#d8f8f2" points="1031.09 1240.09 1428.7 923.92 1430.36 926.01 1031.09 1243.51 1031.09 1240.09"/><polygon fill="#d9f8f3" points="1031.09 1236.67 1427.03 921.83 1428.7 923.92 1031.09 1240.09 1031.09 1236.67"/><polygon fill="#daf9f3" points="1031.09 1233.25 1425.37 919.73 1427.03 921.83 1031.09 1236.67 1031.09 1233.25"/><polygon fill="#dbf9f3" points="1031.09 1229.83 1423.7 917.64 1425.37 919.73 1031.09 1233.25 1031.09 1229.83"/><polygon fill="#dcf9f4" points="1031.09 1226.41 1422.04 915.54 1423.7 917.64 1031.09 1229.83 1031.09 1226.41"/><polygon fill="#ddf9f4" points="1031.09 1223 1420.37 913.45 1422.04 915.54 1031.09 1226.41 1031.09 1223"/><polygon fill="#def9f4" points="1031.09 1219.58 1418.71 911.35 1420.37 913.45 1031.09 1223 1031.09 1219.58"/><polygon fill="#dff9f5" points="1031.09 1216.16 1417.04 909.26 1418.71 911.35 1031.09 1219.58 1031.09 1216.16"/><polygon fill="#e0faf5" points="1031.09 1212.74 1415.38 907.16 1417.04 909.26 1031.09 1216.16 1031.09 1212.74"/><polygon fill="#e1faf5" points="1031.09 1209.32 1413.71 905.07 1415.38 907.16 1031.09 1212.74 1031.09 1209.32"/><polygon fill="#e2faf6" points="1031.09 1205.9 1412.05 902.98 1413.71 905.07 1031.09 1209.32 1031.09 1205.9"/><polygon fill="#e3faf6" points="1031.09 1202.48 1410.38 900.88 1412.05 902.98 1031.09 1205.9 1031.09 1202.48"/><polygon fill="#e4faf6" points="1031.09 1199.07 1408.71 898.79 1410.38 900.88 1031.09 1202.48 1031.09 1199.07"/><polygon fill="#e5faf7" points="1031.09 1195.65 1407.05 896.69 1408.71 898.79 1031.09 1199.07 1031.09 1195.65"/><polygon fill="#e6fbf7" points="1031.09 1192.23 1405.38 894.6 1407.05 896.69 1031.09 1195.65 1031.09 1192.23"/><polygon fill="#e7fbf7" points="1031.09 1188.81 1403.72 892.5 1405.38 894.6 1031.09 1192.23 1031.09 1188.81"/><polygon fill="#e8fbf8" points="1031.09 1185.39 1402.05 890.41 1403.72 892.5 1031.09 1188.81 1031.09 1185.39"/><polygon fill="#e9fbf8" points="1031.09 1181.97 1400.39 888.32 1402.05 890.41 1031.09 1185.39 1031.09 1181.97"/><polygon fill="#eafbf8" points="1031.09 1178.55 1398.72 886.22 1400.39 888.32 1031.09 1181.97 1031.09 1178.55"/><polygon fill="#ebfcf9" points="1031.09 1175.14 1397.06 884.13 1398.72 886.22 1031.09 1178.55 1031.09 1175.14"/><polygon fill="#ecfcf9" points="1031.09 1171.72 1395.39 882.03 1397.06 884.13 1031.09 1175.14 1031.09 1171.72"/><polygon fill="#edfcf9" points="1031.09 1168.3 1393.73 879.94 1395.39 882.03 1031.09 1171.72 1031.09 1168.3"/><polygon fill="#eefcfa" points="1031.09 1164.88 1392.06 877.85 1393.73 879.94 1031.09 1168.3 1031.09 1164.88"/><polygon fill="#effcfa" points="1031.09 1161.46 1390.39 875.75 1392.06 877.85 1031.09 1164.88 1031.09 1161.46"/><polygon fill="#f0fcfa" points="1031.09 1158.04 1388.73 873.66 1390.39 875.75 1031.09 1161.46 1031.09 1158.04"/><polygon fill="#f1fdfb" points="1031.09 1154.62 1387.06 871.56 1388.73 873.66 1031.09 1158.04 1031.09 1154.62"/><polygon fill="#f2fdfb" points="1031.09 1151.21 1385.4 869.47 1387.06 871.56 1031.09 1154.62 1031.09 1151.21"/><polygon fill="#f3fdfb" points="1031.09 1147.79 1383.73 867.37 1385.4 869.47 1031.09 1151.21 1031.09 1147.79"/><polygon fill="#f4fdfb" points="1031.09 1144.37 1382.07 865.28 1383.73 867.37 1031.09 1147.79 1031.09 1144.37"/><polygon fill="#f5fdfc" points="1031.09 1140.95 1380.4 863.18 1382.07 865.28 1031.09 1144.37 1031.09 1140.95"/><polygon fill="#f6fdfc" points="1031.09 1137.53 1378.74 861.09 1380.4 863.18 1031.09 1140.95 1031.09 1137.53"/><polygon fill="#f7fefc" points="1031.09 1134.11 1377.07 859 1378.74 861.09 1031.09 1137.53 1031.09 1134.11"/><polygon fill="#f8fefd" points="1031.09 1130.69 1375.41 856.9 1377.07 859 1031.09 1134.11 1031.09 1130.69"/><polygon fill="#f9fefd" points="1031.09 1127.28 1373.74 854.81 1375.41 856.9 1031.09 1130.69 1031.09 1127.28"/><polygon fill="#fafefd" points="1031.09 1123.86 1372.08 852.71 1373.74 854.81 1031.09 1127.28 1031.09 1123.86"/><polygon fill="#fbfefe" points="1031.09 1120.44 1370.41 850.62 1372.08 852.71 1031.09 1123.86 1031.09 1120.44"/><polygon fill="#fcfefe" points="1031.09 1117.02 1368.74 848.52 1370.41 850.62 1031.09 1120.44 1031.09 1117.02"/><polygon fill="#fdfffe" points="1031.09 1113.6 1367.08 846.43 1368.74 848.52 1031.09 1117.02 1031.09 1113.6"/><polygon fill="#feffff" points="1031.09 1110.18 1365.41 844.34 1367.08 846.43 1031.09 1113.6 1031.09 1110.18"/><polygon fill="#fff" points="1031.09 1106.76 1363.75 842.24 1365.41 844.34 1031.09 1110.18 1031.09 1106.76"/><polygon fill="#fff" points="1362.34 840.47 1363.75 842.24 1031.09 1106.76 1031.09 840.47 1362.34 840.47"/></g></svg>