<svg xmlns="http://www.w3.org/2000/svg" viewBox="0 0 82.83 83.01"><g data-name="Layer 2" fill="#ea4335" class="color000000 svgShape"><g data-name="Layer 1" fill="#ea4335" class="color000000 svgShape"><path fill="#4285f4" d="M60.41 77.11l-19 5-19-5L0 83.01l6.63-63.27 18.78-5.87 16 5 16-5 18.79 5.87 6.63 63.27-22.42-5.9z" class="colord0d3d6 svgShape"></path><path fill="#40b25e" d="M73.42 22.01l-16.01-5-16 5-16-5-16 5-5.99 57 18.99-5 19 5 19-5 19.01 5-6-57z" class="color40b29b svgShape"></path><path fill="#40b25e" d="M22.41 74.01l-18.99 5 5.99-57 16-5-3 57z" class="color40b29b svgShape"></path><path fill="#34a853" d="M41.41 79.01l-19-5 3-57 16 5v57z" class="color30917a svgShape"></path><path fill="#40b25e" d="M60.41 74.01l-19 5v-57l16-5 3 57z" class="color40b29b svgShape"></path><path fill="#34a853" d="M41.67 59.59l17.74-7.74V33.01L41.67 59.59z" class="color30917a svgShape"></path><path fill="#34a853" d="M79.42 79.01l-19.01-5-3-57 16.01 5 6 57z" class="color30917a svgShape"></path><path fill="#fbbc05" d="M41.42 0a23.25 23.25 0 0 0-23.26 23.25c0 12.84 20.86 36.58 23.25 36.58s23.26-23.74 23.26-36.58A23.25 23.25 0 0 0 41.42 0zm0 31.67A8.71 8.71 0 1 1 50.13 23a8.71 8.71 0 0 1-8.71 8.67z" class="coloreec64a svgShape"></path><path fill="#eceef1" d="M41.42 11.51A11.45 11.45 0 1 0 52.87 23a11.45 11.45 0 0 0-11.45-11.49zm0 20.17A8.71 8.71 0 1 1 50.13 23a8.71 8.71 0 0 1-8.71 8.67z" class="colorecf0f1 svgShape"></path></g></g></svg>