<svg xmlns="http://www.w3.org/2000/svg" enable-background="new 0 0 74 74" version="1.0" viewBox="0 0 74 74"><path fill="#343434" d="M26.67,52.53c0,4.26-3.48,7.74-7.74,7.74c-4.29,0-7.76-3.48-7.76-7.74c0-4.29,3.48-7.76,7.76-7.76
				C23.19,44.77,26.67,48.25,26.67,52.53z"/><path fill="#343434" d="M26.67,52.53c0,4.26-3.48,7.74-7.74,7.74c-4.29,0-7.76-3.48-7.76-7.74c0-4.29,3.48-7.76,7.76-7.76
				C23.19,44.77,26.67,48.25,26.67,52.53z" opacity=".2"/><path fill="#343434" d="M18.92,58.78c-3.45,0-6.26-2.8-6.26-6.24c0-3.45,2.81-6.27,6.26-6.27c3.44,0,6.24,2.81,6.24,6.27
				C25.17,55.97,22.37,58.78,18.92,58.78z"/><path fill="#343434" d="M18.92,58.78c-3.45,0-6.26-2.8-6.26-6.24c0-3.45,2.81-6.27,6.26-6.27c3.44,0,6.24,2.81,6.24,6.27
				C25.17,55.97,22.37,58.78,18.92,58.78z"/><path fill="#e6e6e6" d="M23.41,52.25c0,2.47-2.02,4.49-4.49,4.49c-2.48,0-4.5-2.02-4.5-4.49c0-2.48,2.02-4.5,4.5-4.5
				C21.39,47.75,23.41,49.76,23.41,52.25z"/><path d="M18.92,60.78c-4.56,0-8.26-3.7-8.26-8.24c0-4.56,3.71-8.27,8.26-8.27c4.55,0,8.24,3.71,8.24,8.27
				C27.17,57.08,23.47,60.78,18.92,60.78z M18.92,45.27c-4.01,0-7.26,3.26-7.26,7.27c0,3.99,3.26,7.24,7.26,7.24
				c3.99,0,7.24-3.25,7.24-7.24C26.17,48.53,22.92,45.27,18.92,45.27z"/><path d="M18.92,57.23c-2.76,0-5-2.24-5-4.99c0-2.76,2.24-5,5-5c2.75,0,4.99,2.24,4.99,5C23.91,55,21.67,57.23,18.92,57.23z
				 M18.92,48.25c-2.21,0-4,1.79-4,4c0,2.2,1.79,3.99,4,3.99c2.2,0,3.99-1.79,3.99-3.99C22.91,50.04,21.12,48.25,18.92,48.25z"/><path fill="#343434" d="M67,52.53c0,4.26-3.48,7.74-7.74,7.74c-4.29,0-7.76-3.48-7.76-7.74c0-4.29,3.48-7.76,7.76-7.76
				C63.52,44.77,67,48.25,67,52.53z"/><path fill="#343434" d="M67,52.53c0,4.26-3.48,7.74-7.74,7.74c-4.29,0-7.76-3.48-7.76-7.74c0-4.29,3.48-7.76,7.76-7.76
				C63.52,44.77,67,48.25,67,52.53z" opacity=".2"/><path fill="#343434" d="M59.26,58.78c-3.45,0-6.27-2.8-6.27-6.24c0-3.45,2.81-6.27,6.27-6.27c3.44,0,6.24,2.81,6.24,6.27
				C65.5,55.97,62.7,58.78,59.26,58.78z"/><path fill="#e6e6e6" d="M63.74,52.25c0,2.47-2.02,4.49-4.49,4.49c-2.48,0-4.5-2.02-4.5-4.49c0-2.48,2.02-4.5,4.5-4.5
				C61.72,47.75,63.74,49.76,63.74,52.25z"/><path d="M59.26,60.78c-4.56,0-8.27-3.7-8.27-8.24c0-4.56,3.71-8.27,8.27-8.27c4.55,0,8.24,3.71,8.24,8.27
				C67.5,57.08,63.8,60.78,59.26,60.78z M59.26,45.27c-4.01,0-7.27,3.26-7.27,7.27c0,3.99,3.26,7.24,7.27,7.24
				c3.99,0,7.24-3.25,7.24-7.24C66.5,48.53,63.25,45.27,59.26,45.27z"/><path d="M59.25,57.23c-2.76,0-5-2.24-5-4.99c0-2.76,2.24-5,5-5c2.75,0,4.99,2.24,4.99,5C64.24,55,62,57.23,59.25,57.23z
				 M59.25,48.25c-2.2,0-4,1.79-4,4c0,2.2,1.79,3.99,4,3.99c2.2,0,3.99-1.79,3.99-3.99C63.24,50.04,61.45,48.25,59.25,48.25z"/><path fill="#e00000" d="M59.24,43.48h-7.72V30.23h1.96c1.12,0,2.11,0.74,2.43,1.82L59.24,43.48z"/><path d="M59.24,43.98h-7.71c-0.28,0-0.5-0.22-0.5-0.5V30.23c0-0.28,0.22-0.5,0.5-0.5h1.96c1.34,0,2.53,0.9,2.91,2.18l3.33,11.43
			c0.04,0.15,0.01,0.31-0.08,0.44C59.55,43.9,59.4,43.98,59.24,43.98z M52.03,42.98h6.55l-3.15-10.79
			c-0.25-0.86-1.05-1.46-1.95-1.46h-1.46V42.98z"/><rect width="8.55" height="5.41" x="7.99" y="37.54" fill="#e00000"/><path d="M16.54,43.45H7.99c-0.28,0-0.5-0.22-0.5-0.5v-5.41c0-0.28,0.22-0.5,0.5-0.5h8.55c0.28,0,0.5,0.22,0.5,0.5v5.41
			C17.04,43.23,16.81,43.45,16.54,43.45z M8.49,42.45h7.55v-4.41H8.49V42.45z"/><rect width="1.83" height="4.1" x="6.16" y="38.2" fill="#ffe200"/><path d="M7.99,42.8H6.16c-0.28,0-0.5-0.22-0.5-0.5v-4.1c0-0.28,0.22-0.5,0.5-0.5h1.83c0.28,0,0.5,0.22,0.5,0.5v4.1
			C8.49,42.58,8.27,42.8,7.99,42.8z M6.66,41.8h0.83v-3.1H6.66V41.8z"/><path fill="#e00000" d="M49.48,50.7c0-5.39,4.38-9.77,9.77-9.77c5.38,0,9.75,4.38,9.75,9.77H49.48z"/><path fill="#343434" d="M49.48,50.7c0-5.39,4.38-9.77,9.77-9.77c5.38,0,9.75,4.38,9.75,9.77H49.48z" opacity=".2"/><path fill="#e00000" d="M51.12,49.2c0.71-3.84,4.08-6.77,8.13-6.77c4.04,0,7.41,2.92,8.12,6.77H51.12z"/><path d="M69,51.2H49.48c-0.28,0-0.5-0.22-0.5-0.5c0-5.66,4.6-10.27,10.27-10.27c5.65,0,10.25,4.61,10.25,10.27
			C69.5,50.98,69.28,51.2,69,51.2z M50,50.2h18.49c-0.26-4.88-4.31-8.77-9.24-8.77C54.31,41.44,50.26,45.32,50,50.2z"/><path fill="red" d="M53.08,28.32h-4.21l1.47,13.59c0.34,3.12-2.11,5.85-5.25,5.85h-8.18c-3.6,0-6.14-3.52-5.01-6.94l1.95-5.9
			H10.47v12.84h3.96c0,2.63,2.13,4.76,4.76,4.76h31.22c2.63,0,4.76-2.13,4.76-4.76L53.08,28.32z"/><path fill="#343434" d="M53.08,28.32h-4.21l1.47,13.59c0.34,3.12-2.11,5.85-5.25,5.85h-8.18c-3.6,0-6.14-3.52-5.01-6.94l1.95-5.9
			H10.47v12.84h3.96c0,2.63,2.13,4.76,4.76,4.76h31.22c2.63,0,4.76-2.13,4.76-4.76L53.08,28.32z" opacity=".2"/><path fill="red" d="M19.19,51.02c-1.8,0-3.26-1.46-3.26-3.26v-1.5h-3.96v-9.84h19.8l-1.3,3.93c-0.69,2.09-0.35,4.32,0.94,6.1
			s3.29,2.81,5.5,2.81h8.18c1.92,0,3.76-0.82,5.05-2.25c1.28-1.43,1.9-3.35,1.69-5.26l-1.29-11.93h1.2l1.95,18.01
			c-0.04,1.77-1.49,3.19-3.26,3.19H19.19z"/><path d="M50.42,53.02H19.19c-2.73,0-4.99-2.1-5.24-4.76h-3.48c-0.28,0-0.5-0.22-0.5-0.5V34.92c0-0.28,0.22-0.5,0.5-0.5h23.37
			c0.16,0,0.31,0.08,0.41,0.21c0.09,0.13,0.12,0.3,0.07,0.45l-1.95,5.9c-0.49,1.47-0.25,3.04,0.66,4.3
			c0.91,1.26,2.32,1.98,3.88,1.98h8.18c1.36,0,2.65-0.58,3.56-1.59c0.91-1.01,1.34-2.36,1.19-3.71l-1.47-13.59
			c-0.02-0.14,0.03-0.28,0.13-0.39s0.23-0.17,0.37-0.17h4.21c0.26,0,0.47,0.19,0.5,0.45l2.11,19.44
			C55.68,50.66,53.32,53.02,50.42,53.02z M10.97,47.26h3.46c0.28,0,0.5,0.22,0.5,0.5c0,2.35,1.91,4.26,4.26,4.26h31.23
			c2.35,0,4.26-1.91,4.26-4.26l-2.06-18.94h-3.21l1.41,13.04c0.18,1.63-0.35,3.26-1.44,4.48c-1.1,1.22-2.66,1.92-4.3,1.92h-8.18
			c-1.88,0-3.59-0.87-4.69-2.4c-1.1-1.52-1.39-3.42-0.8-5.2l1.73-5.24H10.97V47.26z"/><path fill="red" d="M5,52.52c0-7.68,6.24-13.92,13.92-13.92c7.66,0,13.9,6.24,13.9,13.92H5z"/><path fill="#343434" d="M5,52.52c0-7.68,6.24-13.92,13.92-13.92c7.66,0,13.9,6.24,13.9,13.92H5z" opacity=".2"/><path fill="red" d="M6.59,51.02c0.74-6.15,5.99-10.92,12.33-10.92c6.33,0,11.57,4.78,12.31,10.92H6.59z"/><path d="M32.83,53.02H5c-0.28,0-0.5-0.22-0.5-0.5c0-7.95,6.47-14.42,14.42-14.42c7.94,0,14.4,6.47,14.4,14.42
			C33.33,52.8,33.1,53.02,32.83,53.02z M5.51,52.02h26.81c-0.26-7.17-6.17-12.92-13.39-12.92C11.69,39.1,5.77,44.85,5.51,52.02z"/><path d="M24.83 44.52H13c-.28 0-.5-.22-.5-.5s.22-.5.5-.5h11.83c.28 0 .5.22.5.5S25.1 44.52 24.83 44.52zM24.83 47.16H13c-.28 0-.5-.22-.5-.5s.22-.5.5-.5h11.83c.28 0 .5.22.5.5S25.1 47.16 24.83 47.16zM24.83 49.8H13c-.28 0-.5-.22-.5-.5s.22-.5.5-.5h11.83c.28 0 .5.22.5.5S25.1 49.8 24.83 49.8z"/><path fill="#343434" d="M35.91,34.23l0.67-2.02c0.27-0.82-0.34-1.67-1.21-1.67H10.22c-0.7,0-1.27,0.57-1.27,1.27v2.02
			c0,0.7,0.57,1.27,1.27,1.27H34.7C35.25,35.1,35.73,34.75,35.91,34.23z"/><path d="M34.7,35.6H10.22c-0.98,0-1.77-0.8-1.77-1.77V31.8c0-0.98,0.8-1.77,1.77-1.77h25.14c0.58,0,1.1,0.27,1.44,0.73
			c0.34,0.47,0.43,1.05,0.25,1.6l-0.67,2.02l0,0C36.14,35.11,35.46,35.6,34.7,35.6z M10.22,31.03c-0.43,0-0.77,0.35-0.77,0.77v2.02
			c0,0.43,0.35,0.77,0.77,0.77H34.7c0.33,0,0.63-0.21,0.73-0.53l0.67-2.02c0.08-0.24,0.04-0.49-0.11-0.7
			c-0.15-0.2-0.38-0.32-0.63-0.32H10.22z M35.91,34.23L35.91,34.23L35.91,34.23z"/><path fill="#ff9f3f" d="M26.66,14.79v14.68c0,0.59-0.48,1.06-1.06,1.06H8.82c-0.59,0-1.06-0.48-1.06-1.06V14.79
				c0-0.59,0.48-1.06,1.06-1.06H25.6C26.19,13.72,26.66,14.2,26.66,14.79z"/><path fill="#343434" d="M26.66,14.79v14.68c0,0.59-0.48,1.06-1.06,1.06H8.82c-0.59,0-1.06-0.48-1.06-1.06V14.79
				c0-0.59,0.48-1.06,1.06-1.06H25.6C26.19,13.72,26.66,14.2,26.66,14.79z" opacity=".2"/><rect width="15.9" height="13.8" x="9.26" y="15.23" fill="#ff9f3f"/><polygon fill="#e6e6e6" points="19.54 13.72 19.54 18.94 17.21 17.96 14.88 18.94 14.88 13.72"/><path d="M25.6,31.03H8.82c-0.86,0-1.56-0.7-1.56-1.56V14.79c0-0.86,0.7-1.56,1.56-1.56H25.6c0.86,0,1.56,0.7,1.56,1.56v14.68
				C27.16,30.33,26.46,31.03,25.6,31.03z M8.82,14.22c-0.31,0-0.56,0.25-0.56,0.56v14.68c0,0.31,0.25,0.56,0.56,0.56H25.6
				c0.31,0,0.56-0.25,0.56-0.56V14.79c0-0.31-0.25-0.56-0.56-0.56H8.82z"/><path d="M19.54,19.44c-0.07,0-0.13-0.01-0.19-0.04l-2.14-0.9l-2.14,0.9c-0.16,0.06-0.33,0.05-0.47-0.04
				c-0.14-0.09-0.22-0.25-0.22-0.42v-5.22c0-0.28,0.22-0.5,0.5-0.5h4.67c0.28,0,0.5,0.22,0.5,0.5v5.22c0,0.17-0.08,0.32-0.22,0.42
				C19.74,19.42,19.64,19.44,19.54,19.44z M17.21,17.46c0.07,0,0.13,0.01,0.19,0.04l1.64,0.69v-3.97h-3.67v3.97l1.64-0.69
				C17.08,17.47,17.15,17.46,17.21,17.46z"/><path fill="#e6e6e6" d="M53.23,21.95c2.06,0,3.74,1.63,3.74,3.63c0,2-1.67,3.63-3.74,3.63V21.95z"/><path d="M53.23,29.71c-0.28,0-0.5-0.22-0.5-0.5v-7.26c0-0.28,0.22-0.5,0.5-0.5c2.33,0,4.23,1.85,4.23,4.13
			C57.47,27.86,55.57,29.71,53.23,29.71z M53.73,22.49v6.19c1.55-0.23,2.73-1.53,2.73-3.09C56.47,24.02,55.28,22.72,53.73,22.49z"/><path fill="red" d="M54.25,29.95c-4.1,0-7.44-1.96-7.44-4.37c0-2.41,3.33-4.37,7.44-4.37V29.95z"/><path fill="#343434" d="M54.25,29.95c-4.1,0-7.44-1.96-7.44-4.37c0-2.41,3.33-4.37,7.44-4.37V29.95z" opacity=".2"/><path fill="red" d="M54.25,28.82c-3.04,0-5.5-1.45-5.5-3.24c0-1.78,2.47-3.23,5.5-3.23V28.82z"/><path d="M54.25,30.45c-4.45,0-7.94-2.14-7.94-4.87c0-2.73,3.49-4.87,7.94-4.87c0.28,0,0.5,0.22,0.5,0.5v8.74
			C54.75,30.23,54.53,30.45,54.25,30.45z M53.75,21.72c-3.54,0.15-6.44,1.85-6.44,3.86c0,2.01,2.9,3.71,6.44,3.86V21.72z"/><path fill="#343434" d="M49.14,27.17c0,0.78-0.64,1.41-1.41,1.41s-1.41-0.64-1.41-1.41c0-0.78,0.64-1.41,1.41-1.41
			S49.14,26.4,49.14,27.17z"/><g><path d="M47.72,29.09c-1.06,0-1.91-0.86-1.91-1.91s0.86-1.91,1.91-1.91s1.91,0.86,1.91,1.91S48.78,29.09,47.72,29.09z
			 M47.72,26.26c-0.5,0-0.91,0.41-0.91,0.91s0.41,0.91,0.91,0.91s0.91-0.41,0.91-0.91S48.23,26.26,47.72,26.26z"/></g><g><path d="M51.23,26.35c-0.21,0-0.41-0.14-0.48-0.35l-1.57-4.97c-0.05-0.15-0.19-0.25-0.34-0.25h-1.11c-0.28,0-0.5-0.22-0.5-0.5
			s0.22-0.5,0.5-0.5h1.11c0.6,0,1.12,0.38,1.3,0.95l1.57,4.97c0.08,0.26-0.06,0.54-0.33,0.63C51.33,26.35,51.28,26.35,51.23,26.35z"/></g><g><path fill="#343434" d="M46.31,17.71c1.28,0,2.32,1.01,2.32,2.26c0,1.24-1.04,2.25-2.32,2.25V17.71z"/></g><g><path d="M46.31,22.72c-0.28,0-0.5-0.22-0.5-0.5v-4.51c0-0.28,0.22-0.5,0.5-0.5c1.56,0,2.82,1.24,2.82,2.76
			C49.13,21.49,47.86,22.72,46.31,22.72z M46.81,18.28v3.38c0.76-0.21,1.32-0.89,1.32-1.69C48.13,19.17,47.57,18.49,46.81,18.28z"/></g></svg>